<svg width="20" height="20" viewBox="0 0 20 20" fill="none" xmlns="http://www.w3.org/2000/svg">
<g clip-path="url(#clip0_327_2553)">
<path opacity="0.997" fill-rule="evenodd" clip-rule="evenodd" d="M9.74609 -0.0195312C9.90234 -0.0195312 10.0586 -0.0195312 10.2148 -0.0195312C10.4876 0.064523 10.6634 0.246814 10.7422 0.527344C10.7617 3.41794 10.7682 6.30855 10.7617 9.19922C13.6524 9.1927 16.543 9.19922 19.4336 9.21875C19.7141 9.29754 19.8964 9.47332 19.9805 9.74609C19.9805 9.90234 19.9805 10.0586 19.9805 10.2148C19.8964 10.4876 19.7141 10.6634 19.4336 10.7422C16.543 10.7617 13.6524 10.7682 10.7617 10.7617C10.7682 13.6524 10.7617 16.543 10.7422 19.4336C10.6634 19.7141 10.4876 19.8964 10.2148 19.9805C10.0586 19.9805 9.90234 19.9805 9.74609 19.9805C9.47332 19.8964 9.29754 19.7141 9.21875 19.4336C9.19922 16.543 9.1927 13.6524 9.19922 10.7617C6.30855 10.7682 3.41794 10.7617 0.527344 10.7422C0.246814 10.6634 0.064523 10.4876 -0.0195312 10.2148C-0.0195312 10.0586 -0.0195312 9.90234 -0.0195312 9.74609C0.064523 9.47332 0.246814 9.29754 0.527344 9.21875C3.41794 9.19922 6.30855 9.1927 9.19922 9.19922C9.1927 6.30855 9.19922 3.41794 9.21875 0.527344C9.29754 0.246814 9.47332 0.064523 9.74609 -0.0195312Z" fill="#C79023"/>
</g>
<defs>
<clipPath id="clip0_327_2553">
<rect width="20" height="20" fill="white"/>
</clipPath>
</defs>
</svg>
