<svg width="20" height="20" viewBox="0 0 20 20" fill="none" xmlns="http://www.w3.org/2000/svg">
<g clip-path="url(#clip0_327_1727)">
<path opacity="0.97" fill-rule="evenodd" clip-rule="evenodd" d="M11.3479 -0.0195312C11.7515 -0.0195312 12.1552 -0.0195312 12.5588 -0.0195312C12.8761 0.0870121 13.1755 0.236752 13.4572 0.429688C14.7007 1.67318 15.9442 2.91667 17.1877 4.16016C17.716 4.90918 17.8201 5.71645 17.5002 6.58203C17.4125 6.79676 17.2953 6.99207 17.1487 7.16797C16.8282 7.47547 16.4962 7.76844 16.1526 8.04688C15.4679 8.29715 15.0513 8.0693 14.9026 7.36328C14.9197 7.17961 14.9783 7.01031 15.0783 6.85547C15.3778 6.58203 15.6773 6.30859 15.9768 6.03516C16.1169 5.74121 16.1039 5.45477 15.9377 5.17578C14.7854 4.02344 13.633 2.87109 12.4807 1.71875C12.162 1.46066 11.8364 1.44764 11.5041 1.67969C9.56943 3.62738 7.62283 5.56098 5.66428 7.48047C5.44592 7.79645 5.43291 8.12195 5.62521 8.45703C6.80467 9.64953 7.99607 10.8279 9.19943 11.9922C9.49228 12.1305 9.77873 12.1175 10.0588 11.9531C10.3713 11.6406 10.6838 11.3281 10.9963 11.0156C11.5448 10.7215 11.968 10.8452 12.2658 11.3867C12.3368 11.7075 12.2717 11.994 12.0705 12.2461C11.7267 12.5509 11.3946 12.8699 11.0744 13.2031C10.4 13.6988 9.65783 13.829 8.84787 13.5938C8.58318 13.494 8.3358 13.3638 8.10568 13.2031C6.86221 11.9596 5.61869 10.7161 4.37521 9.47266C3.8628 8.75492 3.74561 7.97367 4.02365 7.12891C4.12103 6.90793 4.23822 6.69961 4.37521 6.50391C6.34787 4.53125 8.32053 2.55859 10.2932 0.585938C10.6128 0.32218 10.9643 0.120358 11.3479 -0.0195312Z" fill="#171717"/>
<path opacity="0.966" fill-rule="evenodd" clip-rule="evenodd" d="M10.3322 6.15235C10.9467 6.15098 11.4935 6.33977 11.9729 6.71876C13.2174 7.95032 14.4479 9.1938 15.6643 10.4492C16.1551 11.1949 16.2462 11.9892 15.9377 12.832C15.8271 13.0535 15.6969 13.2618 15.5471 13.457C13.5343 15.4829 11.5096 17.4946 9.47287 19.4922C8.65111 20.0149 7.79174 20.08 6.89475 19.6875C6.77084 19.6191 6.65365 19.5409 6.54318 19.4531C5.29971 18.2097 4.05619 16.9661 2.81271 15.7227C2.3003 15.0049 2.18311 14.2237 2.46115 13.3789C2.54236 13.2034 2.63351 13.0341 2.73459 12.8711C3.0536 12.5 3.39865 12.155 3.76975 11.8359C4.31826 11.5418 4.74143 11.6655 5.03928 12.207C5.09978 12.5047 5.04771 12.7781 4.88303 13.0274C4.52783 13.3174 4.21533 13.6429 3.94553 14.0039C3.8947 14.2548 3.93377 14.4891 4.06271 14.707C5.22807 15.8724 6.39346 17.0378 7.55881 18.2031C7.70314 18.2949 7.85939 18.3535 8.02756 18.3789C8.19572 18.3535 8.35197 18.2949 8.49631 18.2031C10.469 16.2305 12.4416 14.2578 14.4143 12.2852C14.5544 11.9912 14.5414 11.7048 14.3752 11.4258C13.1947 10.2453 12.0163 9.06692 10.8401 7.89063C10.5666 7.70833 10.2932 7.70833 10.0197 7.89063C9.72092 8.18677 9.42146 8.48626 9.12131 8.78907C8.71904 9.08052 8.32189 9.07399 7.9299 8.76954C7.67299 8.42583 7.65994 8.07427 7.89084 7.71485C8.29045 7.28911 8.71361 6.89196 9.16037 6.52344C9.52939 6.3143 9.92002 6.19063 10.3322 6.15235Z" fill="#171717"/>
</g>
<defs>
<clipPath id="clip0_327_1727">
<rect width="20" height="20" fill="white"/>
</clipPath>
</defs>
</svg>
