<svg width="20" height="20" viewBox="0 0 20 20" fill="none" xmlns="http://www.w3.org/2000/svg">
<g clip-path="url(#clip0_327_2300)">
<path opacity="0.99" fill-rule="evenodd" clip-rule="evenodd" d="M19.9805 1.69922C19.9805 3.83464 19.9805 5.97004 19.9805 8.10547C19.795 8.55645 19.4564 8.73223 18.9648 8.63281C18.6849 8.56121 18.5091 8.38543 18.4375 8.10547C18.418 6.37375 18.4114 4.64199 18.418 2.91016C16.9189 2.94394 15.4214 2.89836 13.9258 2.77344C13.2878 2.7474 12.6497 2.7474 12.0117 2.77344C11.2461 2.98255 10.836 3.48385 10.7812 4.27734C10.7617 7.29816 10.7552 10.319 10.7617 13.3398C12.8981 13.358 15.0336 13.3385 17.168 13.2813C17.7368 13.1422 18.1209 12.7971 18.3203 12.2461C18.3629 11.9707 18.415 11.6972 18.4766 11.4258C18.7286 11.0162 19.0867 10.8925 19.5508 11.0547C19.7625 11.1605 19.9057 11.3232 19.9805 11.543C19.9805 12.819 19.9805 14.095 19.9805 15.3711C19.7191 16.6549 18.9639 17.5078 17.7148 17.9297C17.5864 17.9641 17.4561 17.9902 17.3242 18.0078C15.1368 18.0273 12.9493 18.0339 10.7617 18.0273C10.7489 18.5349 10.4885 18.7954 9.98047 18.8086C9.47242 18.7954 9.21203 18.5349 9.19922 18.0273C7.01168 18.0339 4.82418 18.0273 2.63672 18.0078C1.15836 17.7209 0.272942 16.842 -0.0195312 15.3711C-0.0195312 10.8138 -0.0195312 6.25652 -0.0195312 1.69922C0.122854 1.343 0.389781 1.16071 0.78125 1.15234C1.37337 1.27602 1.97232 1.34113 2.57812 1.34766C3.71814 1.30281 4.85746 1.24422 5.99609 1.17188C6.69922 1.14583 7.40234 1.14583 8.10547 1.17188C8.84738 1.28886 9.47238 1.6209 9.98047 2.16797C10.4886 1.6209 11.1136 1.28886 11.8555 1.17188C12.5586 1.14583 13.2617 1.14583 13.9648 1.17188C15.1035 1.24422 16.2428 1.30281 17.3828 1.34766C17.9886 1.34113 18.5876 1.27602 19.1797 1.15234C19.5712 1.16071 19.8381 1.343 19.9805 1.69922ZM6.03516 2.75391C6.67332 2.7474 7.31133 2.75391 7.94922 2.77344C8.7148 2.98255 9.12496 3.48385 9.17969 4.27734C9.19922 7.29816 9.20574 10.319 9.19922 13.3398C7.16793 13.3464 5.13668 13.3398 3.10547 13.3203C2.17448 13.2227 1.66016 12.7083 1.5625 11.7773C1.54297 8.82164 1.53646 5.8659 1.54297 2.91016C3.04899 2.95001 4.54637 2.89793 6.03516 2.75391ZM1.54297 14.5117C1.88385 14.7013 2.24843 14.825 2.63672 14.8828C4.74785 14.8835 6.85723 14.9095 8.96484 14.9609C9.0841 15.0411 9.1557 15.1518 9.17969 15.293C9.19922 15.6834 9.2057 16.074 9.19922 16.4648C7.16793 16.4714 5.13668 16.4648 3.10547 16.4453C2.31197 16.3906 1.81067 15.9804 1.60156 15.2148C1.56394 14.9818 1.54441 14.7475 1.54297 14.5117ZM18.3789 14.5117C18.4996 15.3966 18.148 16.015 17.3242 16.3672C17.1702 16.406 17.014 16.432 16.8555 16.4453C14.8243 16.4648 12.793 16.4714 10.7617 16.4648C10.7457 16.0197 10.7653 15.577 10.8203 15.1367C10.8659 15.0651 10.9245 15.0065 10.9961 14.9609C13.1037 14.9095 15.2131 14.8835 17.3242 14.8828C17.7055 14.8317 18.0571 14.708 18.3789 14.5117Z" fill="white"/>
</g>
<defs>
<clipPath id="clip0_327_2300">
<rect width="20" height="20" fill="white"/>
</clipPath>
</defs>
</svg>
