<svg width="20" height="20" viewBox="0 0 20 20" fill="none" xmlns="http://www.w3.org/2000/svg">
<g clip-path="url(#clip0_327_2443)">
<path d="M6.21917 0.0429711C6.04339 0.0937524 5.7973 0.351565 5.74652 0.535159C5.72308 0.61719 5.70355 0.957034 5.70355 1.29297V1.90625L4.62933 2.38281C3.05511 3.08594 2.63324 3.34375 1.89495 4.08203C1.36761 4.61328 1.01605 5.09766 0.687923 5.76172C0.320735 6.5 0.125423 7.16406 0.0394854 7.94922C0.0121416 8.21875 0.000422852 9.83203 0.00823535 13.125L0.0199541 17.9102L0.113704 18.0586C0.164485 18.1406 0.277767 18.2539 0.363704 18.3125L0.52386 18.418L2.01605 18.4297L3.50824 18.4414L3.52386 18.957C3.53558 19.418 3.54339 19.4883 3.62933 19.6211C3.68011 19.7031 3.79339 19.8164 3.87933 19.875L4.03949 19.9805H9.99652H15.9575L16.1059 19.8867C16.1879 19.8359 16.3012 19.7227 16.3598 19.6367C16.4575 19.4883 16.4653 19.4453 16.477 18.9609L16.4926 18.4414L17.9848 18.4297L19.477 18.418L19.6371 18.3125C19.7231 18.2539 19.8364 18.1406 19.8871 18.0586L19.9809 17.9102V15.1133V12.3203L19.8754 12.1602C19.7153 11.9141 19.5239 11.8164 19.2153 11.8164C19.0043 11.8164 18.934 11.8359 18.8012 11.9219C18.7153 11.9805 18.602 12.0938 18.5512 12.1758L18.4575 12.3242L18.4457 14.6016L18.434 16.875H17.4614H16.4848L16.477 12.3125L16.4653 7.75L16.3598 7.58985C16.1996 7.34375 16.0082 7.2461 15.6996 7.2461C15.4887 7.2461 15.4184 7.26563 15.2856 7.35156C15.1996 7.41016 15.0864 7.52344 15.0356 7.60547L14.9418 7.75391L14.9301 13.0938L14.9223 18.4375H10.0004H5.07855V17.6563V16.875L8.95745 16.8672L12.8364 16.8555L12.9965 16.75C13.2387 16.5898 13.3403 16.3984 13.3403 16.0938C13.3403 15.7891 13.2387 15.5977 12.9965 15.4375L12.8364 15.332L8.95745 15.3203L5.07855 15.3125L5.07074 11.5313L5.05902 7.75391L4.96527 7.60547C4.91449 7.52344 4.8012 7.41016 4.71527 7.35156C4.58245 7.26172 4.51214 7.2461 4.2973 7.2461C4.08245 7.2461 4.01214 7.26172 3.87933 7.35156C3.79339 7.41016 3.68011 7.52344 3.62933 7.60547L3.53558 7.75391L3.52386 12.3125L3.51605 16.875H2.53949H1.55902L1.57464 12.4141C1.58636 7.51563 1.57464 7.82031 1.82074 7.07031C2.1762 6.01172 2.94574 5.05078 3.9223 4.45313C4.26995 4.24219 6.18792 3.38281 6.20355 3.4336C6.21136 3.45313 6.30511 3.59766 6.41058 3.75C6.84027 4.35938 7.5512 4.94141 8.19573 5.21485C9.59027 5.80078 11.2621 5.6836 12.4457 4.91406C12.8285 4.66406 13.4028 4.09766 13.6489 3.71875C13.7504 3.56641 13.8481 3.4375 13.8676 3.4375C13.9301 3.4375 15.8051 4.28906 16.016 4.41406C16.3989 4.63672 16.7465 4.91797 17.0825 5.26953C17.9106 6.14453 18.3403 7.14453 18.434 8.42188C18.4692 8.95313 18.5395 9.10938 18.809 9.27735C19.184 9.51172 19.7035 9.38281 19.8989 9.00781C20.1137 8.58594 19.9457 7.29688 19.5356 6.25C19.02 4.92188 17.9926 3.74219 16.7387 3.02735C16.5746 2.9375 15.9614 2.64453 15.3715 2.38281L14.3051 1.90625L14.2895 1.21485C14.2778 0.539065 14.2739 0.515627 14.1723 0.363284C14.1137 0.277346 14.0004 0.164065 13.9184 0.113284L13.77 0.0195336L10.059 0.0117211C7.78558 0.00781488 6.2973 0.0195336 6.21917 0.0429711ZM12.727 1.86328C12.7153 2.11719 12.6879 2.21875 12.5707 2.46094C12.0942 3.42969 11.3129 3.94531 10.2348 4.01172C9.15277 4.07422 8.19964 3.6211 7.63714 2.77344C7.3637 2.35938 7.26605 2.10938 7.26605 1.81641V1.5625H10.0043H12.7426L12.727 1.86328Z" fill="#C79023"/>
</g>
<defs>
<clipPath id="clip0_327_2443">
<rect width="20" height="20" fill="white"/>
</clipPath>
</defs>
</svg>
