<svg width="20" height="20" viewBox="0 0 20 20" fill="none" xmlns="http://www.w3.org/2000/svg">
<g clip-path="url(#clip0_327_2472)">
<path opacity="0.977" fill-rule="evenodd" clip-rule="evenodd" d="M1.89453 -0.0195312C2.18099 -0.0195312 2.46745 -0.0195312 2.75391 -0.0195312C3.97156 0.392875 5.19555 0.803031 6.42578 1.21094C6.7957 1.28643 7.1668 1.30596 7.53906 1.26953C7.87437 1.22906 8.1348 1.34625 8.32031 1.62109C8.48391 1.99649 8.43832 2.34154 8.18359 2.65625C8.09031 2.72893 7.98617 2.78101 7.87109 2.8125C7.21668 2.92518 6.56562 2.89914 5.91797 2.73438C4.78473 2.35663 3.65192 1.97902 2.51953 1.60156C1.9677 1.53556 1.64869 1.77645 1.5625 2.32422C1.53646 6.79035 1.53646 11.2565 1.5625 15.7227C4.25781 13.0273 6.95312 10.332 9.64844 7.63672C8.71137 5.16766 9.19965 3.02573 11.1133 1.21094C11.9534 0.543434 12.9039 0.133277 13.9648 -0.0195312C14.3815 -0.0195312 14.7982 -0.0195312 15.2148 -0.0195312C17.5423 0.360908 19.0723 1.67601 19.8047 3.92578C19.8723 4.20273 19.9309 4.47617 19.9805 4.74609C19.9805 5.16277 19.9805 5.57941 19.9805 5.99609C19.8184 7.07422 19.4082 8.05078 18.75 8.92578C17.9459 9.91238 17.1125 10.8759 16.25 11.8164C15.9479 12.1733 15.6745 12.5509 15.4297 12.9492C15.2196 13.2256 14.9397 13.3558 14.5898 13.3398C14.24 13.3558 13.96 13.2256 13.75 12.9492C12.9743 11.8556 12.115 10.827 11.1719 9.86328C10.9505 9.58984 10.7292 9.31641 10.5078 9.04297C10.0716 9.47918 9.63543 9.91535 9.19922 10.3516C11.8294 12.9818 14.4596 15.612 17.0898 18.2422C17.7985 18.5617 18.2347 18.3468 18.3984 17.5977C18.3989 15.5641 18.425 13.5329 18.4766 11.5039C18.7586 11.0654 19.1427 10.9547 19.6289 11.1719C19.7888 11.2908 19.906 11.4405 19.9805 11.6211C19.9805 13.7565 19.9805 15.8919 19.9805 18.0273C19.7331 19.082 19.082 19.7331 18.0273 19.9805C17.7539 19.9805 17.4805 19.9805 17.207 19.9805C16.041 19.594 14.8691 19.2099 13.6914 18.8281C13.1875 18.6672 12.6797 18.6541 12.168 18.7891C10.6032 19.1998 9.0407 19.5969 7.48047 19.9805C7.07684 19.9805 6.67316 19.9805 6.26953 19.9805C4.95512 19.6812 3.64003 19.3622 2.32422 19.0234C1.03004 18.6345 0.248793 17.7816 -0.0195312 16.4648C-0.0195312 11.6081 -0.0195312 6.75129 -0.0195312 1.89453C0.240735 0.879055 0.878758 0.241036 1.89453 -0.0195312ZM14.082 1.58203C15.7675 1.45908 17.05 2.11012 17.9297 3.53516C18.5834 4.91117 18.5183 6.2523 17.7344 7.55859C17.0265 8.54035 16.2452 9.46484 15.3906 10.332C15.1152 10.6529 14.8482 10.9784 14.5898 11.3086C13.8393 10.3825 13.0515 9.48402 12.2266 8.61328C11.8007 8.10891 11.4361 7.56203 11.1328 6.97266C10.4634 5.24305 10.7955 3.73914 12.1289 2.46094C12.7093 2.00792 13.3604 1.71495 14.082 1.58203ZM8.02734 11.5039C9.92051 13.3775 11.8086 15.2591 13.6914 17.1484C13.426 17.132 13.1591 17.1125 12.8906 17.0898C12.6622 17.1029 12.4343 17.1225 12.207 17.1484C10.653 17.5207 9.10348 17.9113 7.55859 18.3203C7.03504 18.407 6.51422 18.394 5.99609 18.2812C4.90234 18.0078 3.80859 17.7344 2.71484 17.4609C2.55711 17.4258 2.41388 17.3607 2.28516 17.2656C4.20707 15.3502 6.12113 13.4296 8.02734 11.5039Z" fill="#C79023"/>
<path opacity="0.969" fill-rule="evenodd" clip-rule="evenodd" d="M14.4332 3.06641C15.6376 3.1059 16.4383 3.69184 16.8356 4.82422C16.9107 5.15062 16.9107 5.47613 16.8356 5.80078C16.5517 6.23922 16.1676 6.34988 15.6832 6.13281C15.3965 5.89887 15.2597 5.59289 15.2731 5.21484C15.0006 4.68395 14.6035 4.56023 14.0817 4.84375C13.7557 5.18746 13.7231 5.55855 13.984 5.95703C14.0653 6.02043 14.1499 6.07902 14.2379 6.13281C14.4919 6.17723 14.7393 6.2423 14.9801 6.32812C15.2907 6.55637 15.4013 6.86238 15.3121 7.24609C15.172 7.63977 14.892 7.82203 14.4723 7.79297C13.2633 7.69738 12.5146 7.05934 12.2262 5.87891C12.1129 4.26777 12.8485 3.33026 14.4332 3.06641Z" fill="#C79023"/>
</g>
<defs>
<clipPath id="clip0_327_2472">
<rect width="20" height="20" fill="white"/>
</clipPath>
</defs>
</svg>
