<svg width="20" height="20" viewBox="0 0 20 20" fill="none" xmlns="http://www.w3.org/2000/svg">
<g clip-path="url(#clip0_377_35)">
<path opacity="0.974" fill-rule="evenodd" clip-rule="evenodd" d="M18.9258 -0.0195312C19.1081 -0.0195312 19.2904 -0.0195312 19.4727 -0.0195312C19.5613 0.0381156 19.6524 0.0967094 19.7461 0.15625C19.8341 0.26313 19.9122 0.373807 19.9805 0.488281C19.9805 0.683594 19.9805 0.878906 19.9805 1.07422C19.2633 5.45547 18.5537 9.84348 17.8516 14.2383C17.6991 14.8519 17.315 15.0667 16.6992 14.8828C16.389 14.7247 16.2458 14.4708 16.2695 14.1211C16.8061 10.6546 17.3464 7.19113 17.8906 3.73047C15.0065 7.42188 12.1224 11.1133 9.23828 14.8047C10.9112 15.9602 12.5909 17.106 14.2773 18.2422C14.8128 18.5109 15.249 18.4003 15.5859 17.9102C15.6486 17.6962 15.7267 17.4879 15.8203 17.2852C16.1567 16.9395 16.5408 16.8809 16.9727 17.1094C17.3025 17.4515 17.3676 17.8421 17.168 18.2812C16.811 19.192 16.16 19.7584 15.2148 19.9805C14.9284 19.9805 14.6419 19.9805 14.3555 19.9805C14.0313 19.9004 13.7188 19.7766 13.418 19.6094C12.0737 18.6866 10.7261 17.7686 9.375 16.8555C8.77141 17.6545 8.15293 18.4422 7.51953 19.2188C7.20937 19.4193 6.88387 19.4453 6.54297 19.2969C6.40387 19.1838 6.2932 19.047 6.21094 18.8867C5.46875 16.9987 4.72656 15.1107 3.98438 13.2227C2.83536 12.4691 1.68302 11.7204 0.527344 10.9766C0.258673 10.7187 0.0763809 10.4127 -0.0195312 10.0586C-0.0195312 9.81121 -0.0195312 9.56379 -0.0195312 9.31641C0.125832 8.73457 0.477395 8.32441 1.03516 8.08594C7.00688 5.39289 12.9704 2.69107 18.9258 -0.0195312ZM13.8477 4.08203C10.7708 6.59211 7.69785 9.11164 4.62891 11.6406C4.55902 11.6609 4.49391 11.6479 4.43359 11.6016C3.48624 10.9879 2.54223 10.3695 1.60156 9.74609C1.57378 9.67316 1.59331 9.61457 1.66016 9.57031C5.71887 7.72969 9.78137 5.90027 13.8477 4.08203ZM13.9648 6.11328C11.7904 8.89344 9.62238 11.6799 7.46094 14.4727C7.27277 15.0502 7.07746 15.6231 6.875 16.1914C6.4416 15.0989 6.02496 14.0052 5.625 12.9102C8.38945 10.6205 11.1694 8.35492 13.9648 6.11328Z" fill="#C79023"/>
</g>
<defs>
<clipPath id="clip0_377_35">
<rect width="20" height="20" fill="white"/>
</clipPath>
</defs>
</svg>
