<svg width="20" height="20" viewBox="0 0 20 20" fill="none" xmlns="http://www.w3.org/2000/svg">
<g clip-path="url(#clip0_327_2286)">
<path d="M9.29711 0.0273438C8.32445 0.121094 7.68773 0.242188 6.96117 0.476562C5.40258 0.972656 4.06664 1.79688 2.90258 2.97266C1.31664 4.57812 0.375233 6.51172 0.0705458 8.78906C-0.00367296 9.33984 0.00804579 10.8438 0.0939833 11.4453C0.402577 13.6992 1.31664 15.6445 2.78539 17.1719C4.45336 18.9062 6.62523 19.875 9.09398 19.9883C9.92211 20.0234 10.4963 19.9258 11.0354 19.6602C12.0432 19.1602 12.6057 18.0977 12.5237 16.8555C12.4846 16.3203 12.4221 16.0391 12.1409 15.2188C11.8088 14.2344 11.7971 13.8789 12.0823 13.5312C12.2971 13.2695 12.9026 13.0508 13.5862 12.9844L13.8674 12.957V15.4375C13.8674 17.7773 13.8713 17.9336 13.9455 18.2188C14.0549 18.6562 14.2307 18.957 14.5705 19.3008C15.4963 20.2305 16.9299 20.2305 17.8518 19.3008C18.1916 18.9609 18.3635 18.6602 18.4768 18.2188C18.5823 17.8047 18.5784 17.6289 18.4455 17.3789C18.3557 17.2109 18.2971 17.1484 18.1252 17.0586C17.8557 16.918 17.6252 16.9258 17.3557 17.0938C17.1448 17.2266 17.0432 17.3984 16.9924 17.7109C16.926 18.1328 16.6721 18.3867 16.2854 18.4258C16.1057 18.4414 16.0432 18.4297 15.8596 18.332C15.6877 18.2422 15.6252 18.1797 15.5393 18.0117L15.4299 17.8047V13.7695V9.73828L15.6565 9.77344C15.8791 9.8125 16.6838 9.78906 16.883 9.74219L16.9885 9.71875L17.0002 11.9961L17.012 14.2773L17.1057 14.4258C17.1565 14.5078 17.2698 14.6211 17.3557 14.6797C17.4885 14.7695 17.5588 14.7852 17.7698 14.7852C18.1018 14.7852 18.3088 14.6562 18.4573 14.3633L18.5549 14.1641V11.5781V8.98828L18.7932 8.76172C19.5471 8.04297 20.0002 7.01172 20.0002 6.00391C20.0002 5.33594 19.7385 4.27344 19.4299 3.71484C18.9573 2.84766 18.2659 2.07031 17.344 1.37109C16.7659 0.933594 16.1448 0.609375 15.4143 0.371094C14.5823 0.0976562 13.6252 -0.0507812 13.301 0.0390625C12.9534 0.136719 12.6916 0.535156 12.7463 0.882812C12.758 0.960938 12.8323 1.16016 12.9065 1.32422C13.2776 2.11719 13.258 2.59766 12.8088 3.88672C12.3596 5.1875 12.2737 5.74609 12.3987 6.52344C12.5432 7.40625 13.0159 8.29688 13.6252 8.82422L13.8674 9.03516V10.2148V11.3945L13.508 11.4258C13.0432 11.4609 12.4026 11.6016 11.9963 11.7578C10.8791 12.1875 10.262 13.125 10.3284 14.2773C10.3557 14.7344 10.4377 15.0898 10.6995 15.8438C11.0237 16.7695 11.051 17.2891 10.8088 17.7734C10.5276 18.3359 9.94555 18.5156 8.76195 18.4023C6.16039 18.1484 4.00414 16.75 2.70726 14.4727C1.67992 12.6719 1.32055 10.3789 1.73851 8.30859C2.33226 5.37891 4.51586 2.92969 7.36742 1.99609C8.31664 1.6875 9.12523 1.5625 10.1995 1.5625C10.7034 1.5625 10.8049 1.55078 10.9338 1.48438C11.3166 1.28906 11.469 0.84375 11.2815 0.46875C11.1604 0.234375 10.9651 0.0898438 10.7073 0.0390625C10.5159 0.00390625 9.62133 -0.00390625 9.29711 0.0273438ZM15.2854 1.98047C15.7307 2.16016 16.1721 2.42578 16.6174 2.78906C17.6877 3.66016 18.2346 4.51953 18.4026 5.59766C18.5784 6.73828 17.9416 7.77734 16.8362 8.14844C16.508 8.26172 15.8088 8.25 15.4612 8.13281C14.387 7.76172 13.7463 6.63672 13.9612 5.49609C13.9963 5.30859 14.1291 4.85156 14.258 4.48047C14.6604 3.3125 14.6995 3.12109 14.7034 2.41016L14.7073 1.79688L14.8245 1.82031C14.8909 1.83203 15.0979 1.90625 15.2854 1.98047Z" fill="white"/>
<path d="M9.55089 3.19141C8.72667 3.48828 8.48839 4.50391 9.10167 5.11719C9.33996 5.35547 9.56652 5.44922 9.92199 5.44922C10.2775 5.44922 10.504 5.35547 10.7423 5.11719C10.9806 4.87891 11.0743 4.65234 11.0743 4.29688C11.0743 3.94141 10.9806 3.71484 10.7423 3.47656C10.4298 3.16406 9.94933 3.05078 9.55089 3.19141Z" fill="white"/>
<path d="M5.41027 5.06641C4.58605 5.36328 4.34777 6.37891 4.96105 6.99219C5.19933 7.23047 5.42589 7.32422 5.78136 7.32422C6.13683 7.32422 6.36339 7.23047 6.60167 6.99219C6.83996 6.75391 6.93371 6.52734 6.93371 6.17188C6.93371 5.81641 6.83996 5.58984 6.60167 5.35156C6.28917 5.03906 5.80871 4.92578 5.41027 5.06641Z" fill="white"/>
<path d="M3.92589 9.16797C3.10167 9.46484 2.86339 10.4805 3.47667 11.0938C3.71496 11.332 3.94152 11.4258 4.29699 11.4258C4.65246 11.4258 4.87902 11.332 5.1173 11.0938C5.35558 10.8555 5.44933 10.6289 5.44933 10.2734C5.44933 9.91797 5.35558 9.69141 5.1173 9.45312C4.8048 9.14062 4.32433 9.02734 3.92589 9.16797Z" fill="white"/>
<path d="M5.52746 13.0352C4.70324 13.332 4.46496 14.3477 5.07824 14.9609C5.31652 15.1992 5.54308 15.293 5.89855 15.293C6.25402 15.293 6.48058 15.1992 6.71886 14.9609C6.95714 14.7227 7.05089 14.4961 7.05089 14.1406C7.05089 13.7852 6.95714 13.5586 6.71886 13.3203C6.40636 13.0078 5.92589 12.8945 5.52746 13.0352Z" fill="white"/>
</g>
<defs>
<clipPath id="clip0_327_2286">
<rect width="20" height="20" fill="white"/>
</clipPath>
</defs>
</svg>
