<svg width="20" height="20" viewBox="0 0 20 20" fill="none" xmlns="http://www.w3.org/2000/svg">
<g clip-path="url(#clip0_327_2491)">
<path opacity="0.981" fill-rule="evenodd" clip-rule="evenodd" d="M1.08944 1.36873C7.01129 1.3594 12.9331 1.36873 18.8548 1.39667C19.8583 1.73695 20.2028 2.41667 19.8883 3.43577C19.6745 3.87309 19.33 4.14309 18.8548 4.24583C12.933 4.28309 7.01123 4.28309 1.08944 4.24583C0.0859363 3.90555 -0.258572 3.22583 0.0559251 2.20672C0.279081 1.76862 0.623584 1.48929 1.08944 1.36873Z" fill="#C79023"/>
<path opacity="0.981" fill-rule="evenodd" clip-rule="evenodd" d="M1.08944 8.51955C7.01129 8.51022 12.9331 8.51955 18.8548 8.54748C19.8583 8.88776 20.2028 9.56748 19.8883 10.5866C19.6745 11.0239 19.33 11.2939 18.8548 11.3966C12.933 11.4339 7.01123 11.4339 1.08944 11.3966C0.0859363 11.0564 -0.258572 10.3766 0.0559251 9.35754C0.279081 8.91944 0.623584 8.64011 1.08944 8.51955Z" fill="#C79023"/>
<path opacity="0.978" fill-rule="evenodd" clip-rule="evenodd" d="M9.63704 15.6704C12.7097 15.6611 15.7823 15.6704 18.8549 15.6983C19.8584 16.0386 20.2029 16.7183 19.8884 17.7374C19.6746 18.1748 19.3301 18.4448 18.8549 18.5475C15.7823 18.5848 12.7097 18.5848 9.63704 18.5475C8.63693 18.1756 8.31106 17.4773 8.65939 16.4525C8.89609 16.0757 9.22201 15.815 9.63704 15.6704Z" fill="#C79023"/>
</g>
<defs>
<clipPath id="clip0_327_2491">
<rect width="20" height="20" fill="white"/>
</clipPath>
</defs>
</svg>
