<svg width="20" height="20" viewBox="0 0 20 20" fill="none" xmlns="http://www.w3.org/2000/svg">
<g clip-path="url(#clip0_327_2324)">
<path d="M11.356 -0.00930768C11.3874 -0.00969026 11.4189 -0.0100728 11.4513 -0.010467C12.7095 -0.0226124 13.8703 0.135856 15.039 0.625C15.0647 0.635744 15.0905 0.646489 15.117 0.657559C17.0821 1.4949 18.6302 3.1687 19.448 5.12432C19.7812 5.95522 20.0027 6.87105 20.0079 7.76917C20.0081 7.80114 20.0084 7.83312 20.0087 7.86606C20.0094 7.96865 20.0096 8.07124 20.0097 8.17383C20.0097 8.22641 20.0097 8.22641 20.0098 8.28005C20.0092 8.79679 19.9941 9.29817 19.8828 9.80469C19.876 9.83639 19.8693 9.8681 19.8624 9.90076C19.7199 10.5607 19.5039 11.1925 19.2187 11.8042C19.2034 11.8374 19.1882 11.8705 19.1724 11.9047C19.0429 12.1735 18.8845 12.4334 18.6474 12.6196C18.3947 12.6898 18.1277 12.6918 17.8759 12.6172C17.6992 12.4825 17.532 12.3229 17.4609 12.1094C17.4226 11.7577 17.4922 11.5198 17.6586 11.2134C18.3651 9.82476 18.5933 8.1595 18.2031 6.64063C18.1958 6.61099 18.1884 6.58136 18.1809 6.55083C18.0755 6.13186 17.9214 5.74035 17.7343 5.35156C17.7156 5.31201 17.7156 5.31201 17.6965 5.27166C17.2822 4.40606 16.6637 3.6271 15.8984 3.04688C15.8574 3.01391 15.8166 2.9809 15.7757 2.94785C14.8872 2.24567 13.8394 1.86672 12.7343 1.67969C12.6984 1.67285 12.6626 1.66601 12.6256 1.65896C12.4832 1.63819 12.3432 1.6329 12.1996 1.63132C12.1711 1.63094 12.1425 1.63056 12.1131 1.63016C11.4714 1.62338 10.8596 1.63511 10.2343 1.79688C10.2047 1.80419 10.1752 1.8115 10.1447 1.81904C9.72565 1.92441 9.3341 2.07849 8.94525 2.26563C8.91888 2.27809 8.89252 2.29056 8.86535 2.30341C7.99975 2.71771 7.22079 3.3362 6.64056 4.10156C6.6076 4.14249 6.57459 4.18338 6.54153 4.22424C5.83936 5.11279 5.46041 6.16058 5.27338 7.26563C5.26654 7.30151 5.2597 7.33739 5.25265 7.37435C5.23188 7.51671 5.22659 7.65674 5.22501 7.80029C5.22463 7.82886 5.22424 7.85742 5.22385 7.88686C5.21706 8.52856 5.2288 9.14035 5.39056 9.76563C5.39788 9.7952 5.40519 9.82478 5.41273 9.85525C5.5181 10.2743 5.67218 10.6658 5.85931 11.0547C5.87178 11.0811 5.88425 11.1074 5.8971 11.1346C6.3114 12.0002 6.92989 12.7792 7.69525 13.3594C7.73618 13.3923 7.77707 13.4254 7.81793 13.4584C8.70648 14.1606 9.75427 14.5395 10.8593 14.7266C10.8953 14.7334 10.9313 14.7403 10.9683 14.7474C11.674 14.8501 12.5111 14.8178 13.2031 14.6484C13.2349 14.6409 13.2667 14.6333 13.2995 14.6256C13.8964 14.4799 14.4662 14.2592 15.0114 13.976C15.2115 13.875 15.4107 13.8399 15.6329 13.8844C15.8602 13.9604 16.0226 14.0849 16.1669 14.2773C16.2418 14.5102 16.2562 14.7707 16.1852 15.0073C16.0282 15.3105 15.7168 15.4791 15.4199 15.6177C15.3846 15.6342 15.3493 15.6507 15.3129 15.6678C14.3558 16.1025 13.2931 16.4049 12.2363 16.4156C12.2047 16.4159 12.1732 16.4163 12.1407 16.4167C11.4246 16.4236 10.7406 16.409 10.039 16.25C10.007 16.2431 9.9749 16.2362 9.94188 16.2291C8.79416 15.9774 7.64791 15.466 6.75531 14.6935C6.68355 14.6421 6.68355 14.6421 6.60455 14.6483C6.48476 14.7062 6.40985 14.7917 6.3183 14.8877C6.20165 15.0094 6.08586 15.1252 5.95731 15.2343C5.74304 15.4209 5.54435 15.6229 5.34423 15.8244C5.30109 15.8677 5.25794 15.9109 5.21477 15.9542C5.12241 16.0468 5.03011 16.1395 4.93785 16.2322C4.79184 16.3789 4.64567 16.5255 4.49947 16.672C4.08394 17.0885 3.66865 17.5052 3.25353 17.922C3.02383 18.1527 2.79399 18.3832 2.564 18.6136C2.41873 18.7591 2.27363 18.9048 2.12867 19.0506C2.03843 19.1413 1.94803 19.2319 1.85758 19.3224C1.81579 19.3642 1.77406 19.4062 1.7324 19.4482C1.67537 19.5057 1.61811 19.563 1.56078 19.6202C1.51289 19.6682 1.51289 19.6682 1.46403 19.7173C1.20251 19.9532 1.00606 20.0121 0.661865 20.0084C0.462882 19.9939 0.355345 19.9197 0.207458 19.7925C0.0132499 19.5668 -0.0133531 19.3924 -0.015625 19.1016C0.0136236 18.8813 0.127597 18.7248 0.275665 18.5649C0.306778 18.5313 0.33789 18.4977 0.369946 18.463C0.531521 18.2934 0.695728 18.1267 0.861755 17.9614C0.894813 17.9282 0.92787 17.895 0.961929 17.8608C0.994584 17.8282 1.02724 17.7956 1.06088 17.762C1.08974 17.7332 1.11859 17.7044 1.14832 17.6747C1.22684 17.6001 1.30614 17.5296 1.38836 17.4593C1.58379 17.2886 1.76629 17.106 1.94933 16.9222C1.98708 16.8845 2.02484 16.8467 2.06261 16.809C2.16421 16.7074 2.26568 16.6057 2.36713 16.504C2.47352 16.3973 2.58002 16.2908 2.6865 16.1843C2.88772 15.9829 3.08884 15.7815 3.28993 15.58C3.51903 15.3505 3.74825 15.121 3.97747 14.8916C4.44863 14.4201 4.91964 13.9484 5.39056 13.4766C5.32449 13.2993 5.22958 13.1638 5.11469 13.0151C4.90705 12.7388 4.73321 12.4529 4.57203 12.1475C4.53281 12.0734 4.4926 11.9998 4.4523 11.9263C4.05939 11.1927 3.80869 10.3893 3.67181 9.57031C3.66463 9.52731 3.65744 9.48431 3.65003 9.44001C3.58918 9.03601 3.57808 8.63791 3.57904 8.22998C3.57906 8.19581 3.57908 8.16165 3.5791 8.12644C3.58224 7.02322 3.7922 5.97996 4.21869 4.96094C4.22943 4.93521 4.24018 4.90949 4.25125 4.88298C5.08858 2.91786 6.76239 1.36975 8.71801 0.551949C9.5472 0.219412 10.4599 -0.000204829 11.356 -0.00930768Z" fill="white"/>
</g>
<defs>
<clipPath id="clip0_327_2324">
<rect width="20" height="20" fill="white"/>
</clipPath>
</defs>
</svg>
