<svg width="20" height="20" viewBox="0 0 20 20" fill="none" xmlns="http://www.w3.org/2000/svg">
<g clip-path="url(#clip0_327_1677)">
<path d="M12.168 0.078125C11.6133 0.167969 11.0469 0.402344 10.5742 0.746094L10.3125 0.9375L10.0078 0.851562C9.75781 0.777344 9.61328 0.765625 9.16016 0.765625C8.49609 0.769531 8.17969 0.84375 7.59766 1.12891C6.97656 1.4375 6.42969 1.94922 6.14062 2.49609L6.01953 2.71875L5.69141 2.76562C4.94531 2.875 4.33203 3.17578 3.77344 3.70703C3.1875 4.26953 2.8125 5.01172 2.71875 5.78906C2.69141 6.00391 2.68359 6.01562 2.50781 6.11719C1.67969 6.58984 1.10547 7.32031 0.839844 8.23047C0.667969 8.82031 0.667969 9.58984 0.84375 10.1211L0.902344 10.3047L0.707031 10.5625C0.460938 10.8867 0.222656 11.375 0.109375 11.7812C-0.0117188 12.2227 -0.0117188 13.0898 0.109375 13.5312C0.222656 13.9375 0.453125 14.4062 0.699219 14.7305L0.894531 14.9883L0.8125 15.2383C0.753906 15.4258 0.726562 15.6289 0.714844 16.0547C0.699219 16.5156 0.679688 16.6797 0.597656 16.9336C0.476562 17.3164 0.460938 17.8203 0.5625 18.1992C0.765625 18.9805 1.36328 19.6133 2.12891 19.8555L2.40234 19.9414H9.14062C15.5078 19.9414 15.8984 19.9375 16.2109 19.8711C18.0742 19.4727 19.4922 18.0859 19.8867 16.2773C19.9883 15.8086 20.0234 15.2852 19.9648 15.1055C19.8203 14.668 19.3086 14.4492 18.8867 14.6445C18.6055 14.7734 18.4375 15.043 18.4375 15.3672C18.4375 15.6055 18.3438 16.0664 18.2422 16.3477C17.8984 17.2734 17.082 18.0117 16.0977 18.293L15.8008 18.3789L9.27734 18.3906C4.63281 18.3984 2.71094 18.3906 2.60547 18.3594C2.42188 18.3047 2.19141 18.1055 2.125 17.9414C2.05859 17.7891 2.05469 17.4609 2.11328 17.3359C2.16797 17.2109 17.25 2.21875 17.375 2.16016C17.5078 2.10156 17.8125 2.09766 17.957 2.15234C18.1055 2.20703 18.3164 2.41406 18.3828 2.56641C18.4297 2.67188 18.4375 3.44141 18.4375 7.10938C18.4375 11.0078 18.4453 11.543 18.4961 11.6719C18.7344 12.2383 19.5078 12.3164 19.8633 11.8047L19.9805 11.6328L19.9922 7.13672C20 3.13281 19.9961 2.60547 19.9414 2.35156C19.7891 1.66797 19.332 1.08594 18.7109 0.789062C18.5273 0.703125 18.2812 0.609375 18.1602 0.582031C17.832 0.511719 17.1836 0.554688 16.9141 0.660156C16.7383 0.730469 16.625 0.746094 16.2773 0.742188C15.8359 0.738281 15.5 0.78125 15.1836 0.886719C14.9961 0.945312 14.9922 0.945312 14.8906 0.851562C14.5898 0.574219 14.0117 0.277344 13.5234 0.152344C13.1758 0.0625 12.5039 0.0273438 12.168 0.078125ZM13.3008 1.71875C13.6094 1.82422 13.8984 2.01953 14.1055 2.26562C14.1992 2.375 14.3398 2.5 14.4141 2.54688C14.4883 2.59375 14.5586 2.63672 14.5703 2.64453C14.5977 2.66797 13.3477 3.90625 13.2969 3.90625C13.2734 3.90625 13.1055 3.83594 12.9258 3.75391C12.3086 3.46875 11.5898 3.35156 10.9375 3.4375C9.39453 3.63672 8.16797 4.68359 7.73047 6.17578C7.66797 6.39062 7.64062 6.60938 7.62891 7.05078L7.60938 7.63672L7.07422 7.64062C6.42578 7.64062 6.0625 7.72656 5.48828 8.00781C4.44531 8.51562 3.69141 9.48047 3.45703 10.6094C3.42188 10.7891 3.39453 11.1016 3.39453 11.3672C3.39453 11.9961 3.51172 12.4961 3.78125 13.0312L3.90234 13.2695L3.24609 13.9219L2.58984 14.5781L2.54297 14.4648C2.51953 14.4023 2.36719 14.2227 2.21094 14.0664C1.53125 13.3984 1.38281 12.5977 1.78906 11.7656C1.85547 11.625 2.00391 11.4375 2.19141 11.25C2.35547 11.0898 2.51953 10.9023 2.55469 10.832C2.65625 10.6328 2.63672 10.3477 2.5 10.0781C1.94141 8.97266 2.45312 7.73047 3.62109 7.33984C4.11719 7.17578 4.30859 6.87891 4.26953 6.35547C4.21484 5.67578 4.53906 5 5.10156 4.62891C5.46094 4.39062 5.69141 4.32812 6.29297 4.30078C7.04297 4.26953 7.10156 4.22266 7.40625 3.46094C7.67188 2.79688 8.42578 2.30469 9.17188 2.30469C9.43359 2.30469 9.80859 2.40234 10.0781 2.53906C10.3242 2.66406 10.6016 2.69141 10.8008 2.61719C10.8594 2.59375 11.0586 2.42969 11.2461 2.25C11.6133 1.89453 11.875 1.74219 12.2422 1.65625C12.5469 1.58594 12.9961 1.61328 13.3008 1.71875ZM11.9453 5.05078L12.1094 5.09766L10.707 6.5L9.30078 7.90625L9.25 7.78906C9.21875 7.71875 9.20312 7.48828 9.20312 7.16797C9.20312 6.72656 9.21484 6.62891 9.29297 6.42578C9.58984 5.67969 10.2344 5.13672 10.9844 5C11.2305 4.95703 11.7188 4.98047 11.9453 5.05078ZM7.76562 9.26172L7.89062 9.31641L6.48828 10.7188L5.08203 12.125L5.03516 12.0078C4.96875 11.8359 4.94531 11.1484 5 10.8867C5.16406 10.0938 5.875 9.39453 6.69922 9.21875C6.92578 9.16797 7.61328 9.19922 7.76562 9.26172Z" fill="#171717"/>
<path d="M14.0239 7.62496C13.7973 7.74214 13.6371 7.96871 13.6098 8.22652C13.5629 8.59761 13.6332 8.69136 14.7973 9.83589C15.3715 10.4023 15.895 10.8906 15.9653 10.9218C16.1489 11 16.4575 10.9921 16.6411 10.8984C16.9536 10.7382 17.1254 10.3515 17.0317 10.0078C16.9848 9.84371 16.8754 9.71871 15.9223 8.75386C15.2309 8.05855 14.809 7.66011 14.7075 7.61324C14.4926 7.51558 14.2348 7.51949 14.0239 7.62496Z" fill="#171717"/>
<path d="M11.117 10.5938C11.0271 10.6172 10.8943 10.7031 10.7967 10.8008C10.535 11.0664 10.492 11.4414 10.6951 11.7656C10.742 11.836 11.7068 12.8203 12.8396 13.9531C14.2615 15.3711 14.949 16.0313 15.0467 16.0742C15.324 16.1875 15.6795 16.125 15.8904 15.9258C16.1209 15.7149 16.1951 15.3438 16.074 15.0469C15.9998 14.8672 11.9295 10.7735 11.7107 10.6641C11.5271 10.5664 11.3084 10.5391 11.117 10.5938Z" fill="#171717"/>
<path d="M7.98845 13.668C7.59782 13.8477 7.42985 14.3125 7.61345 14.7071C7.66032 14.8086 8.05876 15.2344 8.75407 15.9219C9.7736 16.9297 9.8322 16.9844 10.0236 17.0274C10.672 17.1797 11.1916 16.5235 10.8986 15.9219C10.7853 15.6836 8.85954 13.7774 8.63298 13.6758C8.41423 13.5782 8.19157 13.5742 7.98845 13.668Z" fill="#171717"/>
</g>
<defs>
<clipPath id="clip0_327_1677">
<rect width="20" height="20" fill="white"/>
</clipPath>
</defs>
</svg>
