<svg width="20" height="20" viewBox="0 0 20 20" fill="none" xmlns="http://www.w3.org/2000/svg">
<g clip-path="url(#clip0_327_1702)">
<path d="M1.79643 0.0585938C1.14799 0.203125 0.546432 0.671875 0.265182 1.25C-0.00825554 1.8125 -0.00825555 1.76562 0.0112757 5.58984C0.0229945 8.52344 0.0347132 9.06641 0.0894007 9.4375C0.296432 10.8242 0.632369 11.9023 1.2144 13.0469C1.71831 14.0469 2.24174 14.7812 3.10893 15.7227C3.99174 16.6758 4.10503 16.7852 4.2769 16.832C4.38628 16.8633 6.06596 16.875 10.0152 16.875C15.566 16.875 15.6011 16.875 15.7652 16.7969C15.9878 16.6875 17.1949 15.3945 17.7339 14.6875C18.5347 13.6367 19.1636 12.3828 19.5542 11.0586C19.691 10.5977 19.8589 9.80078 19.9058 9.39062C19.9488 8.99609 19.8042 8.71484 19.48 8.55078C19.2417 8.42578 18.8824 8.45703 18.6832 8.62109C18.4605 8.79688 18.4019 8.92969 18.316 9.44141C18.1167 10.6289 17.773 11.6367 17.2417 12.5898C16.8042 13.3711 16.4058 13.9023 15.6363 14.7344L15.105 15.3125H13.3746H11.6441L11.7613 15.0625C12.0464 14.4531 12.1441 13.6562 12.0152 13.0078C11.8941 12.4219 11.605 11.8242 11.2339 11.418L11.0972 11.2656L12.5425 9.68359C14.1558 7.92578 14.2222 7.87109 14.6011 7.89844C15.0152 7.93359 15.2925 8.25391 15.2925 8.69531C15.2925 8.88672 15.273 8.96094 15.1871 9.08594C15.1324 9.16797 14.6792 9.69141 14.1871 10.2422C13.4488 11.0703 13.2808 11.2812 13.2417 11.4258C13.1519 11.75 13.273 12.0859 13.5503 12.2852C13.6949 12.3867 13.7496 12.4023 13.9761 12.4023C14.1753 12.4023 14.2691 12.3828 14.3707 12.3203C14.441 12.2734 14.9371 11.7461 15.4722 11.1484C16.1675 10.3672 16.4839 9.98438 16.5816 9.79688C16.8707 9.25391 16.8511 9.54688 16.8746 5.625C16.8941 2.15234 16.8941 2.08594 16.9722 1.95312C17.2144 1.54297 17.8042 1.44141 18.1675 1.74609C18.4214 1.96094 18.4136 1.91406 18.4371 3.82812C18.4566 5.49609 18.4605 5.57422 18.5386 5.72266C18.5816 5.80859 18.6949 5.92969 18.7847 5.99609C18.9292 6.09766 18.9839 6.11328 19.2183 6.11328C19.4527 6.11328 19.5074 6.09766 19.6519 5.99609C19.7417 5.92969 19.855 5.80859 19.898 5.72266C19.9761 5.57031 19.98 5.51562 19.98 3.71094V1.85547L19.8785 1.59375C19.7222 1.19531 19.5386 0.917969 19.2574 0.652344C18.6675 0.09375 17.8628 -0.121094 17.1011 0.0742188C16.6402 0.191406 16.3472 0.359375 16.0074 0.703125C15.7808 0.929688 15.6675 1.07812 15.566 1.29297C15.3199 1.8125 15.3121 1.88672 15.3121 4.28516C15.3121 5.47266 15.3003 6.44531 15.2847 6.44531C15.2652 6.44141 15.148 6.41797 15.0191 6.38672C14.4136 6.23828 13.6871 6.39453 13.1558 6.78125C13.0503 6.85938 12.3003 7.64453 11.4917 8.52344L10.0269 10.1211L9.94096 10.0312C9.89409 9.98047 9.24174 9.28125 8.48784 8.47266C7.73393 7.66797 7.04253 6.94141 6.94878 6.85938C6.5894 6.55469 5.96831 6.32812 5.46831 6.32812C5.35112 6.32812 5.13237 6.35547 4.98003 6.38672C4.83159 6.41797 4.70268 6.44531 4.69878 6.44531C4.69096 6.44531 4.68706 5.47266 4.68706 4.28516C4.68706 1.87891 4.67924 1.80078 4.42924 1.29297C4.26128 0.949219 3.84331 0.507812 3.51518 0.324219C3.01128 0.0429688 2.33549 -0.0625 1.79643 0.0585938ZM2.68315 1.66016C2.80815 1.72266 2.92143 1.82031 2.99174 1.92188L3.10503 2.08203L3.12456 5.58203C3.14409 8.69531 3.15581 9.10547 3.2144 9.29688C3.31206 9.62109 3.49565 9.96875 3.67924 10.1758C4.17924 10.7461 6.50737 13.1953 6.61284 13.2617C6.70659 13.3203 6.80424 13.3398 6.99956 13.3398C7.22612 13.3398 7.28081 13.3242 7.42534 13.2227C7.75346 12.9922 7.86674 12.5664 7.68706 12.2344C7.63628 12.1484 6.98393 11.4219 6.23003 10.625C4.82768 9.13281 4.68706 8.96094 4.68706 8.66797C4.68706 8.45703 4.86284 8.13672 5.05034 8.01562C5.18315 7.92578 5.25346 7.91016 5.47221 7.91016C5.70268 7.91016 5.75346 7.92578 5.89409 8.02734C6.10503 8.18359 10.0972 12.4688 10.2417 12.6953C10.4019 12.9453 10.5074 13.3203 10.5074 13.6289C10.5035 14.1836 10.3472 14.5391 9.9019 14.9883L9.58549 15.3125H7.22221H4.85893L4.34721 14.7539C3.69878 14.0547 3.49956 13.8047 3.12065 13.2266C2.35503 12.0625 1.94096 10.9648 1.6519 9.33594C1.60112 9.0625 1.5894 8.40625 1.57378 5.625C1.56206 3.23828 1.56987 2.20312 1.60112 2.10156C1.69096 1.79688 2.00346 1.56641 2.32768 1.5625C2.41753 1.5625 2.56596 1.60547 2.68315 1.66016Z" fill="#171717"/>
<path d="M4.10882 18.4805C4.03851 18.5 3.91351 18.5859 3.83148 18.668C3.48382 19.0156 3.53851 19.5781 3.94086 19.8633L4.10882 19.9805H10.0385H15.9682L16.1362 19.8633C16.5932 19.5391 16.5932 18.8984 16.1362 18.5742L15.9682 18.457L10.1049 18.4492C6.47211 18.4453 4.18695 18.457 4.10882 18.4805Z" fill="#171717"/>
</g>
<defs>
<clipPath id="clip0_327_1702">
<rect width="20" height="20" fill="white"/>
</clipPath>
</defs>
</svg>
