<svg width="20" height="20" viewBox="0 0 20 20" fill="none" xmlns="http://www.w3.org/2000/svg">
<g clip-path="url(#clip0_501_155)">
<path d="M5.71283 -0.0167542C5.75493 -0.0183151 5.79702 -0.0198761 5.84039 -0.0214844C6.17418 0.0320268 6.4074 0.297221 6.63616 0.527929C6.66974 0.561318 6.70331 0.594707 6.7379 0.629108C6.83041 0.721232 6.92265 0.81361 7.01478 0.906108C7.11445 1.00604 7.21446 1.10564 7.31442 1.20528C7.50997 1.40031 7.70521 1.59566 7.90033 1.79112C8.05901 1.95007 8.21781 2.1089 8.37668 2.26765C8.39933 2.29028 8.42197 2.3129 8.44531 2.33622C8.49132 2.38219 8.53733 2.42816 8.58334 2.47414C9.01447 2.90493 9.44525 3.33609 9.8759 3.76737C10.245 4.13696 10.6143 4.50623 10.9839 4.87528C11.4136 5.30431 11.843 5.73353 12.2722 6.16305C12.318 6.20891 12.3638 6.25478 12.4097 6.30064C12.4322 6.3232 12.4548 6.34576 12.478 6.36901C12.6364 6.52753 12.795 6.68592 12.9536 6.84426C13.1471 7.03744 13.3404 7.23083 13.5334 7.42448C13.6318 7.52318 13.7303 7.62177 13.829 7.72012C13.9363 7.82699 14.0431 7.93432 14.1499 8.04169C14.1808 8.07234 14.2117 8.10298 14.2436 8.13456C14.7608 8.65725 15.0793 9.25397 15.0903 9.99545C15.0872 10.3966 14.9948 10.7308 14.8266 11.0916C14.8161 11.1154 14.8056 11.1391 14.7948 11.1636C14.7076 11.3389 14.5887 11.4795 14.4559 11.6219C14.4256 11.6546 14.4256 11.6546 14.3946 11.6879C14.0889 12.0143 13.7711 12.3291 13.455 12.6453C13.3579 12.7424 13.261 12.8397 13.164 12.9369C12.953 13.1484 12.7419 13.3598 12.5307 13.5712C12.3987 13.7033 12.2667 13.8354 12.1347 13.9676C11.7686 14.3341 11.4025 14.7006 11.0363 15.067C11.0129 15.0904 10.9896 15.1137 10.9656 15.1378C10.9422 15.1612 10.9188 15.1846 10.8947 15.2087C10.8473 15.2561 10.7999 15.3035 10.7525 15.3509C10.729 15.3744 10.7055 15.3979 10.6813 15.4221C10.2993 15.8043 9.91765 16.1866 9.53607 16.5691C9.14351 16.9626 8.75072 17.3559 8.35772 17.7489C8.13737 17.9693 7.91712 18.1898 7.69711 18.4105C7.5101 18.5981 7.32289 18.7855 7.13542 18.9727C7.03983 19.0681 6.94433 19.1636 6.84909 19.2594C6.74581 19.3632 6.64217 19.4666 6.53843 19.5699C6.50843 19.6003 6.47842 19.6306 6.44751 19.6618C6.22758 19.8797 6.04837 20.0168 5.72748 20.0199C5.48754 20.0141 5.33443 19.9657 5.15619 19.805C4.95703 19.5954 4.91389 19.4139 4.90381 19.1329C4.94978 18.8543 5.11499 18.6514 5.31153 18.4593C5.33476 18.4359 5.35799 18.4126 5.38192 18.3886C5.45924 18.3111 5.53711 18.2342 5.61499 18.1572C5.67079 18.1015 5.72656 18.0458 5.78229 17.99C5.93336 17.8391 6.0849 17.6886 6.23653 17.5383C6.39539 17.3805 6.55379 17.2223 6.71223 17.0642C7.01249 16.7646 7.31313 16.4654 7.61393 16.1664C8.05491 15.7279 8.4954 15.289 8.93579 14.85C8.96815 14.8177 9.00051 14.7855 9.03385 14.7522C9.0984 14.6879 9.16294 14.6235 9.22749 14.5592C9.41603 14.3712 9.60472 14.1834 9.79352 13.9957C9.91117 13.8787 10.0287 13.7617 10.1463 13.6446C10.2006 13.5905 10.255 13.5365 10.3094 13.4825C10.6642 13.1312 10.6642 13.1312 10.9985 12.7605C11.0909 12.6538 11.191 12.5553 11.2918 12.4565C11.3137 12.4348 11.3357 12.4131 11.3583 12.3908C11.4053 12.3443 11.4524 12.2978 11.4995 12.2514C11.5742 12.1777 11.6487 12.1039 11.7232 12.0301C11.9347 11.8202 12.1462 11.6105 12.3585 11.4015C12.4888 11.273 12.6187 11.1442 12.7484 11.0151C12.7977 10.9663 12.8471 10.9175 12.8966 10.869C12.9659 10.801 13.0346 10.7326 13.1033 10.6641C13.1236 10.6444 13.144 10.6247 13.1649 10.6044C13.3441 10.4237 13.4263 10.2567 13.4545 10.0028C13.4331 9.5971 13.1105 9.34097 12.8398 9.07626C12.7959 9.03283 12.7521 8.98936 12.7084 8.94585C12.5936 8.83184 12.4783 8.71828 12.3629 8.60484C12.1786 8.42345 11.9949 8.24133 11.8113 8.05927C11.7475 7.99623 11.6836 7.93336 11.6197 7.87053C11.58 7.83129 11.5402 7.79204 11.5004 7.75279C11.4661 7.71904 11.4318 7.68528 11.3965 7.65051C11.319 7.5704 11.2471 7.49077 11.1752 7.40605C10.9439 7.13955 10.688 6.89561 10.4378 6.64713C10.379 6.58866 10.3203 6.53017 10.2616 6.47168C10.1356 6.3462 10.0095 6.22077 9.8834 6.09538C9.68399 5.89706 9.48479 5.69852 9.28563 5.49994C9.21734 5.43185 9.14905 5.36376 9.08076 5.29567C9.04657 5.26158 9.01239 5.2275 8.97717 5.19238C8.5138 4.73042 8.05024 4.26864 7.58628 3.80726C7.27283 3.49555 6.95966 3.18355 6.6468 2.87125C6.48137 2.70613 6.31579 2.54116 6.14987 2.37653C5.99397 2.22184 5.83843 2.06679 5.68317 1.91146C5.62616 1.85456 5.56902 1.79779 5.51173 1.74116C5.4335 1.6638 5.35577 1.58597 5.27815 1.50801C5.25542 1.48576 5.23269 1.46352 5.20928 1.4406C5.0248 1.25359 4.90518 1.05575 4.90472 0.784027C4.91263 0.557753 4.97796 0.378968 5.13513 0.213806C5.32278 0.0504437 5.46511 -0.0117645 5.71283 -0.0167542Z" fill="#C79023"/>
</g>
<defs>
<clipPath id="clip0_501_155">
<rect width="20" height="20" fill="white"/>
</clipPath>
</defs>
</svg>
