<svg width="20" height="20" viewBox="0 0 20 20" fill="none" xmlns="http://www.w3.org/2000/svg">
<g clip-path="url(#clip0_327_2271)">
<path d="M9.50084 -0.00790273C9.53775 -0.0081785 9.57466 -0.00845426 9.61269 -0.00873839C11.1382 -0.0175525 11.1382 -0.0175525 11.7965 0.117219C11.8355 0.124772 11.8744 0.132326 11.9145 0.140108C13.423 0.438182 14.8342 1.0523 16.0543 1.99222C16.0861 2.01644 16.1178 2.04066 16.1505 2.06561C16.8171 2.58607 17.4562 3.1961 17.9577 3.87822C18.0083 3.94653 18.0603 4.01364 18.1126 4.08069C18.4198 4.4797 18.6692 4.90774 18.9059 5.35159C18.9318 5.40006 18.9318 5.40006 18.9583 5.4495C19.4081 6.30495 19.7081 7.25402 19.8825 8.20316C19.8887 8.23464 19.895 8.26612 19.9015 8.29856C20.1124 9.38506 20.1047 10.6741 19.8825 11.7578C19.8705 11.8179 19.8705 11.8179 19.8583 11.8791C19.6164 13.068 19.1217 15.0535 18.0954 15.8374C17.8748 15.9466 17.6199 15.9365 17.3825 15.8985C17.1806 15.8174 16.9934 15.6794 16.8982 15.4778C16.8305 15.227 16.8229 14.9677 16.9238 14.7261C16.9943 14.6059 17.0705 14.4908 17.1481 14.375C17.8642 13.2003 18.3589 11.8214 18.367 10.434C18.3672 10.402 18.3675 10.3701 18.3678 10.3371C18.3777 9.36172 18.3777 9.36172 18.2418 8.39847C18.2341 8.36191 18.2263 8.32536 18.2183 8.28769C17.7298 6.03373 16.3904 4.16246 14.4801 2.8902C14.4081 2.84529 14.4081 2.84529 14.2965 2.81253C14.2941 2.85845 14.2917 2.90438 14.2892 2.95169C14.212 3.62403 13.844 4.31009 13.3247 4.74201C12.9877 4.99108 12.7706 5.08815 12.3434 5.03909C12.1007 4.95254 11.9666 4.7848 11.8356 4.57034C11.7647 4.35756 11.759 4.11868 11.8454 3.90872C11.93 3.7569 12.0553 3.65284 12.1847 3.54007C12.6392 3.14252 12.7311 2.61454 12.7731 2.03128C12.7504 2.027 12.7277 2.02272 12.7043 2.01831C12.4785 1.97459 12.2557 1.92287 12.0327 1.8669C11.6166 1.76301 11.2096 1.67118 10.7809 1.64066C10.7325 1.63713 10.7325 1.63713 10.6832 1.63352C8.54506 1.48705 6.38864 2.09887 4.72622 3.47659C4.70325 3.4956 4.68028 3.5146 4.65662 3.53418C4.51545 3.65168 4.37652 3.77137 4.23912 3.89324C4.18707 3.9386 4.13343 3.98213 4.07955 4.0253C3.82866 4.24034 3.79227 4.4862 3.74965 4.80472C3.7421 4.85268 3.7421 4.85268 3.73439 4.90161C3.72262 4.98667 3.71552 5.07056 3.71059 5.15628C3.70853 5.19002 3.70646 5.22376 3.70433 5.25852C3.66552 6.50402 4.33911 7.59171 5.1559 8.47659C5.33449 8.66262 5.51804 8.84358 5.70278 9.02347C5.71607 8.97432 5.72937 8.92518 5.74306 8.87454C5.90598 8.2916 6.10305 7.71772 6.52309 7.26566C6.545 7.24078 6.5669 7.21591 6.58947 7.19028C6.93055 6.84574 7.57411 6.46295 8.07094 6.44077C8.34592 6.46881 8.52956 6.52941 8.7228 6.73831C8.89191 6.98884 8.88964 7.201 8.86684 7.50003C8.79165 7.7538 8.58873 7.92159 8.36342 8.04981C8.14733 8.16497 7.92749 8.2819 7.69497 8.35941C7.65205 8.44967 7.65205 8.44967 7.61684 8.55472C7.60158 8.58478 7.58633 8.61484 7.57061 8.64581C7.28837 9.20414 7.24202 9.78656 7.4142 10.3858C7.476 10.5725 7.54871 10.7338 7.6559 10.8985C8.011 10.9077 8.34986 10.8834 8.70083 10.8301C8.74589 10.824 8.79096 10.8178 8.83739 10.8115C9.10456 10.7719 9.33149 10.7132 9.56997 10.586C9.5943 10.573 9.61863 10.56 9.6437 10.5466C9.69045 10.5211 9.73703 10.4952 9.78343 10.469C10.1577 10.2581 10.5437 10.107 10.9762 10.0782C11.0134 10.0751 11.0134 10.0751 11.0513 10.0721C11.8363 10.0366 12.5939 10.377 13.17 10.8889C13.57 11.2604 13.8312 11.7087 14.0758 12.192C14.1631 12.3647 14.1631 12.3647 14.2965 12.5C14.3958 12.5179 14.3958 12.5179 14.5079 12.5159C14.5707 12.5172 14.5707 12.5172 14.6349 12.5185C14.6787 12.5188 14.7226 12.5192 14.7677 12.5196C15.5597 12.5261 15.5597 12.5261 15.8395 12.7881C15.8641 12.8102 15.8886 12.8322 15.914 12.855C16.0779 13.0518 16.071 13.2636 16.0665 13.5092C16.0445 13.7327 15.9506 13.8657 15.7858 14.0161C15.5742 14.1642 15.3963 14.1896 15.1409 14.1829C15.1138 14.1822 15.0866 14.1815 15.0586 14.1808C15.0013 14.1792 14.944 14.1774 14.8867 14.1754C14.8005 14.1724 14.7144 14.1705 14.6283 14.1687C13.971 14.1506 13.4342 14.0021 12.9684 13.5157C12.7959 13.3126 12.6731 13.0866 12.5526 12.8505C12.2781 12.3129 12.0215 11.9775 11.445 11.7578C11.1477 11.6776 10.9031 11.7238 10.6366 11.873C10.5867 11.902 10.537 11.931 10.4873 11.9602C9.77655 12.3756 9.04518 12.4499 8.24184 12.5391C8.29806 13.5309 8.29806 13.5309 8.7524 14.3723C8.90671 14.4813 9.07089 14.5656 9.23793 14.6534C10.2248 15.1861 10.9057 15.9935 11.2462 17.0653C11.3651 17.469 11.4572 17.8605 11.484 18.2813C12.4338 18.0445 13.3333 17.762 14.1871 17.2721C14.4721 17.1134 14.7127 17.0535 15.0387 17.1094C15.2585 17.1871 15.3992 17.3305 15.511 17.5325C15.6135 17.7768 15.5974 17.9856 15.5145 18.2329C15.3664 18.5138 15.1613 18.6353 14.8873 18.7793C14.8305 18.8096 14.8305 18.8096 14.7725 18.8405C13.2766 19.6243 11.6808 20.0188 9.99477 20.0122C9.95592 20.0122 9.91707 20.0121 9.87704 20.012C9.3114 20.01 8.75871 19.9963 8.20278 19.8828C8.14336 19.8712 8.14336 19.8712 8.08275 19.8593C6.47765 19.5383 5.03489 18.857 3.74965 17.8516C3.72859 17.8352 3.70753 17.8189 3.68583 17.802C3.05146 17.3034 2.46275 16.71 1.99184 16.0547C1.9581 16.009 1.92433 15.9633 1.89052 15.9177C1.29899 15.112 0.827028 14.2288 0.507466 13.2813C0.491331 13.2335 0.491331 13.2335 0.474869 13.1848C0.348382 12.8031 0.249464 12.4171 0.165669 12.024C0.157905 11.9878 0.150141 11.9517 0.142142 11.9145C0.013521 11.2814 -0.0150069 10.659 -0.0125536 10.0147C-0.0124695 9.97491 -0.0123853 9.93513 -0.0122985 9.89415C-0.010357 9.32289 0.00191589 8.76456 0.116841 8.20316C0.128171 8.14476 0.128171 8.14476 0.139729 8.08519C0.508115 6.2208 1.3663 4.4905 2.69497 3.12503C2.72202 3.09697 2.74907 3.06891 2.77694 3.04C3.15738 2.64673 3.53822 2.27154 3.98403 1.95316C4.00821 1.93568 4.03239 1.9182 4.05731 1.90019C5.62577 0.772492 7.54968 0.00183741 9.50084 -0.00790273ZM2.22622 6.75784C1.99819 7.29215 1.8401 7.83063 1.7184 8.39847C1.71134 8.43036 1.70428 8.46226 1.697 8.49511C1.26652 10.5273 1.78251 12.7722 2.87332 14.5116C3.00177 14.7061 3.13865 14.8936 3.2809 15.0782C3.326 15.1368 3.326 15.1368 3.372 15.1966C4.77272 16.9531 6.78783 18.1061 9.02462 18.3806C9.31039 18.4105 9.59566 18.4086 9.88247 18.3985C9.81977 17.6653 9.56697 16.9566 9.02309 16.4453C8.80791 16.2656 8.57821 16.1361 8.32973 16.0083C7.63538 15.6384 7.15807 15.1106 6.91593 14.352C6.7901 13.9256 6.73271 13.4852 6.67445 13.0455C6.53319 12.0046 6.03627 11.3901 5.22564 10.7531C5.06522 10.6219 4.91546 10.48 4.76458 10.3381C4.64912 10.2295 4.53306 10.1235 4.41127 10.022C3.43234 9.17276 2.67467 7.9791 2.26528 6.75784C2.25239 6.75784 2.2395 6.75784 2.22622 6.75784Z" fill="white"/>
<path d="M10.7721 4.965C10.9552 5.07809 11.1149 5.21591 11.1719 5.42963C11.2083 5.69709 11.2171 5.94132 11.0718 6.1767C10.9152 6.37088 10.7842 6.46796 10.5374 6.50156C10.2593 6.51561 10.0555 6.49591 9.83505 6.31815C9.63601 6.12261 9.59885 5.98287 9.58496 5.70795C9.59325 5.43922 9.65531 5.26987 9.84375 5.07807C10.0966 4.86209 10.4655 4.84243 10.7721 4.965Z" fill="white"/>
</g>
<defs>
<clipPath id="clip0_327_2271">
<rect width="20" height="20" fill="white"/>
</clipPath>
</defs>
</svg>
