<svg width="20" height="20" viewBox="0 0 20 20" fill="none" xmlns="http://www.w3.org/2000/svg">
<g clip-path="url(#clip0_327_2488)">
<path opacity="0.96" fill-rule="evenodd" clip-rule="evenodd" d="M0.527344 -0.0195312C0.683594 -0.0195312 0.839844 -0.0195312 0.996094 -0.0195312C1.10289 0.0275377 1.20706 0.0861312 1.30859 0.15625C4.19324 3.04741 7.08387 5.93152 9.98047 8.80859C12.8771 5.93152 15.7677 3.04741 18.6523 0.15625C18.7539 0.0861312 18.858 0.0275377 18.9648 -0.0195312C19.1211 -0.0195312 19.2773 -0.0195312 19.4336 -0.0195312C19.707 0.0716144 19.8893 0.253906 19.9805 0.527344C19.9805 0.683594 19.9805 0.839844 19.9805 0.996094C19.9334 1.10289 19.8748 1.20706 19.8047 1.30859C16.9135 4.19324 14.0294 7.08387 11.1523 9.98047C14.0294 12.8771 16.9135 15.7677 19.8047 18.6523C19.8748 18.7539 19.9334 18.858 19.9805 18.9648C19.9805 19.1211 19.9805 19.2773 19.9805 19.4336C19.8893 19.707 19.707 19.8893 19.4336 19.9805C19.2773 19.9805 19.1211 19.9805 18.9648 19.9805C18.858 19.9334 18.7539 19.8748 18.6523 19.8047C15.7677 16.9135 12.8771 14.0294 9.98047 11.1523C7.08387 14.0294 4.19324 16.9135 1.30859 19.8047C1.20706 19.8748 1.10289 19.9334 0.996094 19.9805C0.839844 19.9805 0.683594 19.9805 0.527344 19.9805C0.253906 19.8893 0.0716144 19.707 -0.0195312 19.4336C-0.0195312 19.2773 -0.0195312 19.1211 -0.0195312 18.9648C0.0275377 18.858 0.0861312 18.7539 0.15625 18.6523C3.04741 15.7677 5.93152 12.8771 8.80859 9.98047C5.93152 7.08387 3.04741 4.19324 0.15625 1.30859C0.0861312 1.20706 0.0275377 1.10289 -0.0195312 0.996094C-0.0195312 0.839844 -0.0195312 0.683594 -0.0195312 0.527344C0.0716144 0.253906 0.253906 0.0716144 0.527344 -0.0195312Z" fill="#C79023"/>
</g>
<defs>
<clipPath id="clip0_327_2488">
<rect width="20" height="20" fill="white"/>
</clipPath>
</defs>
</svg>
