<svg width="20" height="20" viewBox="0 0 20 20" fill="none" xmlns="http://www.w3.org/2000/svg">
<g clip-path="url(#clip0_327_2352)">
<path opacity="0.98" fill-rule="evenodd" clip-rule="evenodd" d="M19.9805 3.22266C19.9805 5.37109 19.9805 7.51953 19.9805 9.66797C19.6995 10.2007 19.2828 10.3375 18.7305 10.0781C18.5897 9.97234 18.492 9.83563 18.4375 9.66797C18.4361 7.58367 18.4101 5.50035 18.3594 3.41797C18.197 2.7868 17.7998 2.38967 17.168 2.22656C12.3763 2.20052 7.58465 2.20052 2.79297 2.22656C2.16111 2.38967 1.76398 2.7868 1.60156 3.41797C1.55684 5.11625 1.53731 6.81547 1.54297 8.51563C1.53741 10.2287 1.55695 11.941 1.60156 13.6523C1.77734 14.2448 2.16146 14.6289 2.75391 14.8047C7.47949 14.8693 12.2061 14.8823 16.9336 14.8438C17.6236 14.7786 18.0859 14.4205 18.3203 13.7695C18.3629 13.4941 18.415 13.2207 18.4766 12.9492C18.785 12.4995 19.1821 12.4019 19.668 12.6563C19.8129 12.7678 19.9171 12.9045 19.9805 13.0664C19.9805 13.3138 19.9805 13.5612 19.9805 13.8086C19.7219 15.0114 19.0187 15.8382 17.8711 16.2891C17.5777 16.3764 17.2782 16.4285 16.9727 16.4453C15.5665 16.4648 14.1602 16.4714 12.7539 16.4648C12.7539 16.8945 12.7539 17.3242 12.7539 17.7539C13.7585 17.7358 14.7611 17.7554 15.7617 17.8125C16.2857 18.0958 16.4095 18.506 16.1328 19.043C16.027 19.1838 15.8903 19.2814 15.7227 19.3359C11.8945 19.362 8.06641 19.362 4.23828 19.3359C3.65548 19.0331 3.53179 18.5969 3.86719 18.0273C3.96734 17.9404 4.07801 17.8687 4.19922 17.8125C5.1998 17.7554 6.20242 17.7358 7.20703 17.7539C7.20703 17.3242 7.20703 16.8945 7.20703 16.4648C5.8007 16.4714 4.39445 16.4648 2.98828 16.4453C1.36086 16.2709 0.358253 15.392 -0.0195312 13.8086C-0.0195312 10.28 -0.0195312 6.75129 -0.0195312 3.22266C0.321129 1.78179 1.21957 0.915907 2.67578 0.625001C7.54559 0.598958 12.4154 0.598958 17.2852 0.625001C18.7414 0.915907 19.6398 1.78179 19.9805 3.22266ZM8.80859 16.4648C9.58984 16.4648 10.3711 16.4648 11.1523 16.4648C11.1523 16.8945 11.1523 17.3242 11.1523 17.7539C10.3711 17.7539 9.58984 17.7539 8.80859 17.7539C8.80859 17.3242 8.80859 16.8945 8.80859 16.4648Z" fill="#C79023"/>
<path opacity="0.971" fill-rule="evenodd" clip-rule="evenodd" d="M9.00392 4.86328C9.44989 4.8641 9.86657 4.97477 10.2539 5.19531C11.1524 5.7552 12.0508 6.31512 12.9492 6.875C13.8311 7.74621 13.9548 8.71629 13.3203 9.78516C13.1706 9.93488 13.0208 10.0846 12.8711 10.2344C11.9857 10.7812 11.1003 11.3281 10.2149 11.875C9.33142 12.3219 8.49806 12.2437 7.71485 11.6406C7.31356 11.265 7.08571 10.8027 7.03126 10.2539C7.00521 9.09504 7.00521 7.93621 7.03126 6.77734C7.14255 5.91086 7.60481 5.3184 8.41798 5C8.61505 4.93848 8.81036 4.89293 9.00392 4.86328ZM9.1211 6.46484C9.21325 6.49125 9.30438 6.52379 9.39454 6.5625C10.2343 7.09312 11.0807 7.61395 11.9336 8.125C12.2042 8.4107 12.1911 8.68414 11.8945 8.94531C11.0417 9.45637 10.1953 9.97719 9.35548 10.5078C8.99579 10.6177 8.75493 10.494 8.63282 10.1367C8.60677 9.05598 8.60677 7.97527 8.63282 6.89453C8.70669 6.6466 8.86942 6.50336 9.1211 6.46484Z" fill="#C79023"/>
</g>
<defs>
<clipPath id="clip0_327_2352">
<rect width="20" height="20" fill="white"/>
</clipPath>
</defs>
</svg>
