<svg width="20" height="20" viewBox="0 0 20 20" fill="none" xmlns="http://www.w3.org/2000/svg">
<g clip-path="url(#clip0_327_2404)">
<path opacity="0.963" fill-rule="evenodd" clip-rule="evenodd" d="M9.98077 -0.0195312C10.15 -0.0195312 10.3193 -0.0195312 10.4886 -0.0195312C10.9083 0.168466 11.084 0.493988 11.0159 0.957031C10.7189 1.92627 10.4064 2.88981 10.0784 3.84766C9.79428 4.16062 9.44924 4.24527 9.04327 4.10156C8.6996 3.88942 8.56288 3.58343 8.63311 3.18359C8.91956 2.27214 9.20604 1.36068 9.49249 0.449219C9.60065 0.230261 9.76342 0.0740109 9.98077 -0.0195312Z" fill="#C79023"/>
<path opacity="0.962" fill-rule="evenodd" clip-rule="evenodd" d="M4.94103 0.488238C5.31298 0.410371 5.61896 0.514539 5.859 0.800738C6.36427 1.69414 6.85908 2.59258 7.34337 3.49605C7.37415 4.22046 7.02908 4.53949 6.30822 4.45308C6.14189 4.39902 6.00517 4.30136 5.89806 4.16011C5.3863 3.27082 4.8915 2.37238 4.41368 1.4648C4.34556 1.00176 4.52134 0.676234 4.94103 0.488238Z" fill="#C79023"/>
<path opacity="0.961" fill-rule="evenodd" clip-rule="evenodd" d="M13.6135 2.63678C14.2302 2.54734 14.5817 2.80776 14.6682 3.41803C14.6598 3.70163 14.5427 3.92951 14.3166 4.10162C13.6135 4.60943 12.9104 5.11724 12.2073 5.62506C11.4281 5.80908 11.0439 5.5031 11.0549 4.70709C11.1033 4.50236 11.214 4.33959 11.3869 4.21881C12.1262 3.68049 12.8684 3.15315 13.6135 2.63678Z" fill="#C79023"/>
<path opacity="0.962" fill-rule="evenodd" clip-rule="evenodd" d="M1.85596 4.04295C2.06807 4.02971 2.27641 4.04924 2.48096 4.10155C3.33185 4.45538 4.17822 4.81995 5.02002 5.1953C5.35721 5.52108 5.4158 5.89217 5.1958 6.30858C4.82939 6.67889 4.41924 6.73748 3.96533 6.48436C3.1971 6.15885 2.42887 5.8333 1.66064 5.5078C1.28355 5.18143 1.21194 4.79733 1.4458 4.35545C1.56202 4.21686 1.69874 4.11272 1.85596 4.04295Z" fill="#C79023"/>
<path opacity="0.973" fill-rule="evenodd" clip-rule="evenodd" d="M8.8086 19.9805C8.52216 19.9805 8.23567 19.9805 7.94923 19.9805C7.15747 19.7818 6.57806 19.3131 6.21095 18.5742C6.10935 18.3502 6.04427 18.1158 6.01563 17.8711C5.98958 14.2904 5.98958 10.7096 6.01563 7.12891C6.28403 5.84125 7.07829 5.15117 8.39845 5.05859C8.9422 5.08785 9.43048 5.26363 9.86329 5.58594C11.545 6.86398 13.2377 8.12703 14.9414 9.375C15.2915 9.85754 15.2394 10.2872 14.7852 10.6641C14.5433 10.776 14.2959 10.789 14.043 10.7031C12.2782 9.41059 10.5204 8.10848 8.76954 6.79688C8.22153 6.56309 7.83743 6.72582 7.6172 7.28516C7.59114 10.7617 7.59114 14.2383 7.6172 17.7148C7.72997 18.1141 7.9904 18.3485 8.39845 18.418C8.61505 18.3941 8.78431 18.29 8.90626 18.1055C9.79337 16.8195 10.6853 15.537 11.582 14.2578C11.6472 14.2188 11.7122 14.1797 11.7774 14.1406C13.2724 14.0893 14.7698 14.0632 16.2695 14.0625C16.916 13.9215 17.1438 13.5374 16.9531 12.9102C16.5584 12.583 16.4803 12.1924 16.7188 11.7383C17.0029 11.4253 17.3479 11.3407 17.7539 11.4844C18.5584 12.1167 18.8254 12.9305 18.5547 13.9258C18.2599 14.8456 17.6414 15.412 16.6992 15.625C15.3054 15.6341 13.9122 15.6666 12.5195 15.7227C11.6927 16.9075 10.8659 18.0925 10.0391 19.2773C9.69833 19.6386 9.28817 19.873 8.8086 19.9805Z" fill="#C79023"/>
<path opacity="0.962" fill-rule="evenodd" clip-rule="evenodd" d="M4.16046 8.02733C4.88183 7.96104 5.22687 8.28655 5.19562 9.0039C5.15191 9.18901 5.05425 9.33874 4.90265 9.45311C4.02827 9.85737 3.13636 10.2154 2.22687 10.5273C1.64345 10.4386 1.38304 10.1 1.44562 9.51171C1.48933 9.32659 1.58698 9.17686 1.73859 9.06249C2.54688 8.713 3.35417 8.36796 4.16046 8.02733Z" fill="#C79023"/>
</g>
<defs>
<clipPath id="clip0_327_2404">
<rect width="20" height="20" fill="white"/>
</clipPath>
</defs>
</svg>
