<svg width="20" height="20" viewBox="0 0 20 20" fill="none" xmlns="http://www.w3.org/2000/svg">
<g clip-path="url(#clip0_327_2373)">
<path d="M9.53895 0.101562C9.1991 0.191406 8.90614 0.355468 8.66785 0.59375C8.44129 0.816406 8.36707 0.957031 4.27723 9.14062C1.85926 13.9727 0.089728 17.5586 0.058478 17.6875C-0.160272 18.5195 0.285041 19.4609 1.07801 19.8477L1.34754 19.9805L3.73035 19.9922C6.42957 20.0039 6.39051 20.0078 7.0116 19.7031C7.20692 19.6094 7.47645 19.4414 7.60926 19.3281C8.08582 18.9375 8.20692 18.7383 9.34754 16.457L10.41 14.3359L10.785 14.3633C11.5663 14.4141 12.3007 14.2227 12.8944 13.8203C13.3436 13.5117 13.6327 13.4805 13.9764 13.7031C14.7968 14.2383 15.3866 14.4141 16.2108 14.3633L16.5858 14.3398L17.5116 16.1953C18.0194 17.2148 18.4374 18.0937 18.4374 18.1484C18.4374 18.207 18.3905 18.2969 18.3241 18.3633L18.2108 18.4766H14.2655H10.3241L10.1522 18.5664C10.0585 18.6172 9.92957 18.7344 9.86317 18.8242C9.7616 18.9687 9.74598 19.0234 9.74598 19.2578C9.74598 19.4922 9.7616 19.5469 9.86317 19.6914C10.1014 20.0273 9.70692 20.0039 14.453 19.9922L18.6522 19.9805L18.9218 19.8477C19.6054 19.5156 20.0429 18.7539 19.9882 18.0078C19.9764 17.8477 19.9413 17.6445 19.91 17.5586C19.8788 17.4727 18.7733 15.2422 17.4569 12.6016C15.2108 8.10156 15.0468 7.78515 14.8436 7.57812C14.0897 6.79687 12.7929 6.82812 12.0741 7.64062C11.9764 7.7539 11.7772 8.08594 11.5975 8.44531C11.3632 8.91015 11.2694 9.0625 11.2147 9.0625C11.0741 9.0625 10.8358 8.95312 10.5038 8.73828C9.5741 8.13281 8.58973 8.13672 7.69129 8.75781C7.31238 9.01562 7.09754 9.08203 6.59363 9.08203C6.33582 9.08203 6.16004 9.0664 6.1327 9.03906C6.0741 8.98047 9.67957 1.75781 9.81239 1.66406C9.93739 1.57422 10.0975 1.58594 10.2108 1.6875C10.2655 1.73828 10.6718 2.52344 11.1366 3.47656C11.5897 4.41016 11.996 5.22266 12.0389 5.28125C12.1718 5.47266 12.3749 5.56641 12.6561 5.56641C12.9608 5.56641 13.1522 5.46484 13.3124 5.22266C13.4022 5.08984 13.4179 5.02344 13.4139 4.80859C13.4139 4.55469 13.4061 4.53516 12.4921 2.6875C11.621 0.933593 11.5546 0.8125 11.3397 0.597656C10.8671 0.128906 10.16 -0.0664065 9.53895 0.101562ZM13.7069 8.65234C13.785 8.72265 15.8046 12.7617 15.7772 12.7891C15.7186 12.8516 15.2616 12.6719 14.9374 12.4609C13.9804 11.8398 13.0116 11.8437 12.1014 12.4687C11.8397 12.6484 11.6054 12.7422 11.3202 12.793L11.1757 12.8164L11.4413 12.2578C11.5858 11.9492 12.0507 11.0117 12.4725 10.1719C13.0233 9.07031 13.2616 8.63281 13.328 8.60156C13.4335 8.54687 13.621 8.57422 13.7069 8.65234ZM9.39832 9.90234C9.47645 9.93359 9.62489 10.0234 9.72645 10.0977C9.83192 10.1758 10.0546 10.3008 10.2225 10.3789C10.3905 10.4531 10.5311 10.5195 10.5389 10.5273C10.5429 10.5312 9.73817 12.1641 8.74207 14.1562C7.31629 17.0195 6.90223 17.8203 6.76551 17.9727C6.65223 18.0977 6.49598 18.2109 6.29676 18.3086L5.99988 18.457L3.89832 18.4687L1.79285 18.4805L1.67957 18.3633C1.60926 18.2969 1.56238 18.207 1.56238 18.1484C1.56238 18.0312 5.33192 10.4687 5.39051 10.4687C5.41004 10.4687 5.56629 10.5078 5.73035 10.5547C5.98426 10.6289 6.12879 10.6445 6.60145 10.6406C7.3827 10.6406 7.8866 10.5 8.44129 10.1328C8.89051 9.83594 9.11317 9.78125 9.39832 9.90234Z" fill="#C79023"/>
</g>
<defs>
<clipPath id="clip0_327_2373">
<rect width="20" height="20" fill="white"/>
</clipPath>
</defs>
</svg>
