<svg width="20" height="20" viewBox="0 0 20 20" fill="none" xmlns="http://www.w3.org/2000/svg">
<g clip-path="url(#clip0_327_2331)">
<path opacity="0.976" fill-rule="evenodd" clip-rule="evenodd" d="M19.9805 4.19922C19.9805 6.67316 19.9805 9.14715 19.9805 11.6211C19.755 12.1198 19.3775 12.2826 18.8477 12.1094C17.5559 11.2996 16.2538 10.5053 14.9414 9.72656C14.7019 9.67711 14.4805 9.71617 14.2773 9.84375C14.1667 9.95442 14.056 10.0651 13.9453 10.1758C12.3779 12.0427 10.7959 13.8982 9.19922 15.7422C8.76891 15.9707 8.38477 15.9121 8.04688 15.5664C7.90508 15.3175 7.87902 15.0571 7.96875 14.7852C8.20215 14.4671 8.44305 14.1546 8.69141 13.8477C8.21336 13.3761 7.70555 12.9398 7.16797 12.5391C6.87559 12.4405 6.60215 12.4796 6.34766 12.6563C4.93457 13.9066 3.52834 15.1632 2.12891 16.4258C2.34825 16.6274 2.60867 16.7511 2.91016 16.7969C7.62371 16.8229 12.3372 16.8229 17.0508 16.7969C17.9746 16.5724 18.4369 15.98 18.4375 15.0195C18.6829 14.5252 19.067 14.3755 19.5898 14.5703C19.7709 14.6795 19.9011 14.8292 19.9805 15.0195C19.9805 15.2669 19.9805 15.5143 19.9805 15.7617C19.6388 17.2946 18.6883 18.1736 17.1289 18.3984C12.3633 18.4245 7.59766 18.4245 2.83203 18.3984C1.27178 18.1726 0.321255 17.2937 -0.0195312 15.7617C-0.0195312 11.9075 -0.0195312 8.0534 -0.0195312 4.19922C0.321255 2.66722 1.27178 1.78831 2.83203 1.5625C7.59766 1.53646 12.3633 1.53646 17.1289 1.5625C18.6892 1.78831 19.6397 2.66722 19.9805 4.19922ZM2.91016 3.14453C7.62371 3.13802 12.3373 3.14453 17.0508 3.16406C17.7217 3.30105 18.1579 3.69818 18.3594 4.35547C18.3919 6.20457 18.3854 8.05352 18.3398 9.90234C17.4299 9.32442 16.5054 8.77102 15.5664 8.24219C14.5308 7.92328 13.6389 8.15113 12.8906 8.92578C11.8397 10.1555 10.798 11.3925 9.76562 12.6367C9.34613 12.248 8.92297 11.8639 8.49609 11.4844C7.45961 10.71 6.40492 10.6839 5.33203 11.4063C4.08652 12.5333 2.83002 13.6466 1.5625 14.7461C1.52435 11.2817 1.53737 7.8182 1.60156 4.35547C1.80986 3.69769 2.24606 3.29405 2.91016 3.14453ZM5.95703 6.03516C6.81598 5.98918 7.22613 6.39281 7.1875 7.24609C6.97535 7.85676 6.55219 8.09762 5.91797 7.96875C5.34605 7.72992 5.13121 7.30676 5.27344 6.69922C5.4207 6.3891 5.64855 6.16777 5.95703 6.03516Z" fill="white"/>
<path opacity="0.971" fill-rule="evenodd" clip-rule="evenodd" d="M5.80077 4.43362C7.38155 4.34174 8.37764 5.05791 8.78905 6.58205C8.93159 7.93166 8.3912 8.88869 7.16795 9.45315C5.67897 9.88162 4.56569 9.41936 3.82811 8.06643C3.35793 6.69061 3.71601 5.59033 4.90233 4.76565C5.19061 4.61112 5.4901 4.50045 5.80077 4.43362ZM5.95702 6.03518C5.64854 6.1678 5.42069 6.38912 5.27342 6.69924C5.1312 7.30678 5.34604 7.72994 5.91795 7.96877C6.55217 8.09764 6.97534 7.85678 7.18748 7.24612C7.22612 6.39283 6.81596 5.9892 5.95702 6.03518Z" fill="white"/>
</g>
<defs>
<clipPath id="clip0_327_2331">
<rect width="20" height="20" fill="white"/>
</clipPath>
</defs>
</svg>
