<svg width="203" height="52" viewBox="0 0 203 52" fill="none" xmlns="http://www.w3.org/2000/svg">
<path d="M46.3721 10.3525C46.3721 10.3525 51.2311 14.1697 50.8183 21.8077C50.4056 29.4454 42.629 35.8522 34.6748 35.4613L40.8165 19.9975L43.8655 14.6756L46.3721 10.3525Z" fill="#C79023"/>
<path d="M46.2618 10.46C46.9896 11.0329 47.5978 11.794 48.123 12.5407C49.4409 14.4156 50.2649 16.6015 50.5575 18.8551C50.7455 20.3037 50.7545 21.8039 50.4947 23.2449C50.2596 24.5496 49.8106 25.8131 49.1874 26.9886C47.9129 29.3916 45.9426 31.4232 43.6146 32.88C41.2663 34.3494 38.527 35.2501 35.73 35.3206C35.3781 35.3294 35.0262 35.3248 34.675 35.3081C34.7253 35.3724 34.7752 35.4367 34.8255 35.5011C34.971 35.1346 35.1168 34.7678 35.2623 34.4013C35.6261 33.4856 35.9898 32.57 36.3532 31.654C36.8322 30.4478 37.3115 29.2416 37.7905 28.0353C38.2747 26.8157 38.7593 25.5961 39.2436 24.3761C39.6317 23.3986 40.0202 22.4213 40.4083 21.4438C40.5912 20.9831 40.7701 20.5202 40.9575 20.061C40.9812 20.0028 40.9256 20.111 40.975 20.0317C41.0424 19.9241 41.1017 19.8104 41.1648 19.7003C41.4249 19.2466 41.6847 18.7926 41.9448 18.3389C42.5461 17.2891 43.1475 16.2393 43.7489 15.1895C44.0371 14.6867 44.3281 14.1854 44.6188 13.6841C45.208 12.6682 45.7968 11.6525 46.386 10.6365C46.4263 10.5673 46.4666 10.4978 46.5065 10.4286C46.6058 10.2575 46.3361 10.1039 46.2371 10.2746C45.765 11.0884 45.2932 11.9025 44.8211 12.7163C44.443 13.3685 44.0617 14.0189 43.6871 14.6729C43.1744 15.5679 42.6617 16.4628 42.149 17.3577C41.6666 18.1995 41.1573 19.0319 40.6999 19.8872C40.541 20.1842 40.4407 20.5223 40.3171 20.8337C39.9708 21.7054 39.6246 22.5774 39.2783 23.4492C38.8065 24.6374 38.3344 25.8253 37.8626 27.0136C37.3718 28.2497 36.8809 29.4855 36.3898 30.7216C35.9864 31.7369 35.5833 32.7526 35.1799 33.768C34.9707 34.2945 34.7615 34.8214 34.5523 35.348C34.5429 35.3718 34.5332 35.3959 34.5239 35.4196C34.4851 35.5172 34.5826 35.6084 34.6744 35.6127C37.5288 35.7474 40.3795 35.0196 42.8699 33.6689C45.3235 32.3382 47.4504 30.4014 48.9226 28.0637C49.6561 26.8989 50.2253 25.6302 50.5772 24.306C50.9497 22.9037 51.0543 21.4508 50.975 20.0067C50.8398 17.5391 50.1185 15.1071 48.7959 12.9944C48.1798 12.0108 47.4336 11.0241 46.5228 10.277C46.5094 10.2661 46.4959 10.2548 46.4825 10.2441C46.3276 10.1225 46.1053 10.3368 46.2618 10.46Z" fill="white"/>
<path d="M41.9116 15.9074C41.9116 15.9074 33.4812 23.7403 26.6592 22.6118C19.8371 21.4833 20.6264 13.3242 20.6264 13.3242C20.6264 13.3242 5.33499 15.8199 11.7989 29.5086C15.9676 38.3369 36.6894 26.8729 38.714 23.8476C40.7385 20.8223 41.9116 15.9074 41.9116 15.9074Z" fill="#C79023"/>
<path d="M41.8011 15.7997C40.8676 16.6666 39.8434 17.4523 38.8056 18.1948C36.6858 19.7111 34.3793 21.071 31.8789 21.8933C29.451 22.6922 26.6396 22.963 24.3359 21.6564C22.5462 20.6414 21.5255 18.8156 21.0721 16.8946C20.7986 15.7363 20.7333 14.5654 20.778 13.3821C20.7786 13.3629 20.7808 13.3433 20.7827 13.3241C20.793 13.2162 20.6753 13.1625 20.585 13.1772C19.8728 13.2937 19.1684 13.497 18.4846 13.719C16.9671 14.2114 15.4949 14.8862 14.1923 15.797C12.6314 16.8882 11.3366 18.3317 10.6403 20.0944C9.72889 22.4016 9.97774 24.9559 10.733 27.2689C10.9913 28.0592 11.3063 28.8337 11.6644 29.5859C11.8708 30.0195 12.1278 30.4266 12.4375 30.797C13.0302 31.5053 13.8117 32.0301 14.6756 32.3737C16.6549 33.1607 18.932 33.0207 20.9922 32.6664C23.5135 32.2325 25.9574 31.3971 28.3035 30.4104C30.555 29.4633 32.7432 28.3541 34.8196 27.0802C35.6201 26.589 36.406 26.0718 37.1548 25.5077C37.675 25.1156 38.202 24.7034 38.6273 24.2107C38.9632 23.8216 39.214 23.3609 39.4594 22.9148C39.8762 22.1571 40.2343 21.3689 40.5591 20.57C41.0864 19.2723 41.5267 17.939 41.8951 16.59C41.9532 16.3769 42.0107 16.1632 42.0622 15.9482C42.1078 15.7573 41.8068 15.6759 41.7612 15.8671C41.5726 16.6562 41.3362 17.4368 41.0855 18.2088C40.5734 19.7861 39.9718 21.3512 39.1634 22.8087C38.9348 23.2209 38.6754 23.6887 38.3868 24.0173C38.2008 24.2293 37.9937 24.4235 37.7811 24.6095C37.185 25.1315 36.5362 25.5959 35.8771 26.038C34.0115 27.2899 32.0204 28.3712 29.9818 29.3289C27.6831 30.4089 25.2923 31.3373 22.8203 31.9627C20.6915 32.5012 18.3844 32.8762 16.1944 32.4814C15.2867 32.3176 14.4037 32.0075 13.6462 31.4846C12.8747 30.9519 12.3014 30.2143 11.9099 29.3801C10.7783 26.971 9.99366 24.2143 10.5326 21.5573C10.916 19.6678 11.9804 18.0192 13.4526 16.7547C14.6975 15.6857 16.1819 14.8917 17.7228 14.3093C18.6311 13.966 19.5721 13.68 20.5288 13.4964C20.575 13.4876 20.6216 13.4787 20.6681 13.4711C20.6022 13.422 20.5363 13.3732 20.4704 13.3241C20.3724 14.3447 20.4692 15.4082 20.6534 16.4129C21.0059 18.3375 21.8668 20.2404 23.4841 21.4622C25.5836 23.048 28.4006 23.1224 30.8785 22.5019C33.525 21.8394 35.977 20.4965 38.2073 18.9845C39.0778 18.3945 39.9224 17.7673 40.7392 17.1081C41.1561 16.7715 41.5782 16.4324 41.9676 16.065C41.9854 16.0482 42.0041 16.0317 42.0222 16.015C42.1677 15.8799 41.9466 15.6643 41.8011 15.7997Z" fill="white"/>
<path d="M45.6838 18.6982C45.6838 18.6982 46.3979 25.409 42.4553 31.0127C38.5127 36.6163 28.72 36.4135 26.8744 41.3168C25.0288 46.2201 33.5488 48.7246 37.0336 43.0167C37.0336 43.0167 35.4394 52.1228 26.6821 51.8255C17.9248 51.5282 12.8107 37.7862 20.2122 33.2522C27.6138 28.7185 42.2951 25.4172 45.6838 18.6982Z" fill="#C79023"/>
<path d="M45.5276 18.698C45.6094 19.4737 45.5903 20.2677 45.5494 21.0449C45.4523 22.896 45.1204 24.7395 44.5334 26.5031C44.1672 27.6036 43.6982 28.671 43.119 29.6809C42.6088 30.5703 42.0271 31.4177 41.2921 32.1455C40.045 33.3804 38.4879 34.2637 36.8936 35.0007C35.295 35.7398 33.6326 36.3347 32.0118 37.0241C30.6202 37.6162 29.197 38.2827 28.083 39.3118C27.1047 40.2149 26.3844 41.5008 26.4653 42.8475C26.5383 44.0638 27.3064 45.0819 28.3587 45.6933C29.542 46.3805 30.9855 46.5729 32.3341 46.3735C33.9071 46.1409 35.3503 45.3323 36.3853 44.1574C36.6776 43.826 36.9377 43.469 37.1684 43.0939C37.0732 43.0549 36.9783 43.0156 36.883 42.9765C36.7335 43.8275 36.4306 44.6712 36.0871 45.4631C35.3496 47.1642 34.2509 48.7543 32.7431 49.8913C30.7929 51.3619 28.1797 51.9558 25.7509 51.5896C23.4815 51.2475 21.4938 49.9712 20.0098 48.2945C18.4876 46.5745 17.4498 44.4303 17.0173 42.199C16.6136 40.1149 16.7522 37.8464 17.8073 35.9566C18.3278 35.0245 19.0618 34.2155 19.9517 33.6042C20.9768 32.9002 22.1227 32.3376 23.2427 31.7948C25.8583 30.5273 28.5679 29.4531 31.2515 28.3326C33.9674 27.1983 36.6872 26.0394 39.2548 24.606C41.3873 23.4156 43.5258 22.0042 45.0093 20.057C45.3165 19.6536 45.5894 19.2261 45.8183 18.7755C45.9073 18.6002 45.6381 18.4456 45.5488 18.6215C44.4785 20.7312 42.4886 22.2716 40.499 23.5159C38.0311 25.0597 35.3493 26.261 32.6691 27.4048C29.9002 28.5866 27.0925 29.6849 24.3545 30.935C23.1437 31.4878 21.945 32.0711 20.7913 32.7312C19.7925 33.3029 18.8839 33.9497 18.172 34.8528C16.8119 36.5786 16.3594 38.8172 16.5337 40.9556C16.7197 43.2394 17.5643 45.4798 18.8885 47.3672C20.1965 49.2315 22.0237 50.8005 24.2359 51.5384C26.5839 52.3214 29.3478 52.0903 31.551 50.9893C33.4097 50.0602 34.8419 48.4927 35.8199 46.7117C36.4153 45.6274 36.8805 44.4495 37.1456 43.2445C37.1593 43.1823 37.1728 43.1198 37.184 43.057C37.2127 42.8936 36.9951 42.7829 36.8986 42.9396C36.045 44.3276 34.7389 45.4149 33.1393 45.8841C31.831 46.2677 30.3726 46.2424 29.1065 45.7213C28.0161 45.2725 27.0729 44.4148 26.8309 43.2494C26.568 41.9834 27.1784 40.6754 28.057 39.7686C29.0802 38.712 30.4603 38.0348 31.8014 37.4467C33.376 36.756 34.9996 36.1773 36.572 35.4809C38.1513 34.7814 39.6994 33.9622 41.0036 32.8328C42.5688 31.4771 43.6283 29.6413 44.3985 27.7621C45.146 25.9394 45.5916 24.0044 45.7855 22.052C45.8907 20.9919 45.9332 19.9146 45.8529 18.8511C45.8492 18.8002 45.8451 18.7496 45.8398 18.6986C45.8192 18.5047 45.507 18.5026 45.5276 18.698Z" fill="white"/>
<path d="M38.7582 28.921C38.7582 28.921 35.1844 32.9324 27.1187 34.7877C19.335 36.5782 16.8627 42.4526 22.7027 45.6953C22.7027 45.6953 13.5658 48.3941 11.1687 40.6103C9.12609 33.977 14.6895 29.1838 21.9284 28.8222C29.1673 28.4605 38.7582 28.921 38.7582 28.921Z" fill="#C79023"/>
<path d="M38.6478 28.8135C38.1036 29.4233 37.4267 29.9431 36.765 30.4231C34.9488 31.7409 32.9117 32.766 30.7966 33.5417C30.0907 33.8006 29.3741 34.0323 28.65 34.2378C27.8897 34.4537 27.1157 34.6144 26.3538 34.8235C25.0837 35.172 23.8413 35.6639 22.7216 36.3502C21.1045 37.3415 19.5917 38.8572 19.3548 40.7888C19.1218 42.6857 20.3274 44.3032 21.8477 45.3487C22.0981 45.521 22.3578 45.6793 22.6239 45.8278C22.6364 45.7348 22.6489 45.6421 22.661 45.5491C22.1733 45.6927 21.6641 45.7814 21.1614 45.8543C20.0254 46.0183 18.8577 46.0516 17.718 45.9061C16.3339 45.7293 14.97 45.2615 13.8644 44.4136C12.4444 43.3247 11.5898 41.7185 11.1682 40.0281C10.7183 38.2248 10.8217 36.3057 11.6466 34.6177C12.4431 32.988 13.8082 31.6942 15.3903 30.7859C17.1757 29.7608 19.2242 29.2007 21.2797 29.0202C22.44 28.9183 23.6124 28.9013 24.7767 28.8747C26.0004 28.847 27.2247 28.836 28.4486 28.8369C30.629 28.8381 32.8096 28.875 34.989 28.9372C36.1887 28.9714 37.3883 29.0123 38.5872 29.0662C38.6444 29.0687 38.7012 29.0714 38.7584 29.0742C38.9591 29.0839 38.9588 28.779 38.7584 28.7692C37.8857 28.7275 37.0126 28.6964 36.1393 28.6677C34.0542 28.5988 31.9682 28.5537 29.8818 28.5378C27.4179 28.5189 24.9525 28.5369 22.4905 28.6442C20.3146 28.7391 18.1817 29.1074 16.1999 30.0233C14.4939 30.8115 12.9471 31.9885 11.9079 33.5417C10.8807 35.0769 10.4457 36.9161 10.6278 38.738C10.8126 40.5885 11.5176 42.4768 12.8084 43.8678C13.8201 44.9582 15.1758 45.6732 16.6321 46.0177C17.8713 46.3113 19.1662 46.3589 20.4329 46.2443C21.1745 46.1772 21.9188 46.0628 22.6382 45.8723C22.6735 45.8628 22.7091 45.8534 22.7441 45.8433C22.8705 45.8061 22.9005 45.6311 22.7812 45.5646C21.1451 44.6508 19.6005 43.1647 19.6376 41.1949C19.6729 39.3258 21.0842 37.7885 22.5908 36.7969C23.6521 36.0984 24.8373 35.5919 26.0585 35.2263C26.79 35.0074 27.5394 34.8552 28.2769 34.658C29.0188 34.4592 29.7535 34.2338 30.4775 33.9802C32.6282 33.227 34.704 32.2297 36.5699 30.9365C37.3664 30.3844 38.192 29.7806 38.8408 29.0592C38.8498 29.0491 38.8592 29.0397 38.868 29.0296C39 28.8818 38.7799 28.6653 38.6478 28.8135Z" fill="white"/>
<path d="M36.2103 22.57C36.2103 22.57 30.4458 25.4865 23.5004 24.3333C16.555 23.1805 10.2744 18.2937 5.2121 21.1555C2.06382 22.9353 -0.829985 26.6101 0.489837 32.2393C1.80935 37.8686 6.20688 38.0336 6.20688 38.0336C6.20688 38.0336 10.7212 30.641 18.4999 29.4878C26.2787 28.335 32.8072 29.4878 34.8908 28.1993C36.9743 26.9107 36.2103 22.57 36.2103 22.57Z" fill="#C79023"/>
<path d="M36.1317 22.4381C35.3824 22.8165 34.5712 23.0979 33.7709 23.3516C31.8207 23.9699 29.7843 24.3444 27.7348 24.431C26.4424 24.4855 25.1426 24.427 23.8634 24.2367C22.6441 24.055 21.4463 23.755 20.2701 23.3955C18.017 22.7073 15.8464 21.7932 13.6076 21.0641C11.7108 20.4464 9.67378 19.9216 7.66017 20.1866C5.85732 20.4238 4.26023 21.3944 2.97444 22.6186C1.62621 23.9019 0.659525 25.5414 0.249247 27.3392C-0.240027 29.4839 0.00663912 31.8571 0.852175 33.8884C1.44511 35.3129 2.41429 36.5883 3.77783 37.3869C4.47474 37.7952 5.26969 38.0894 6.0812 38.1754C6.12272 38.1797 6.16456 38.1842 6.2064 38.1858C6.26104 38.1879 6.31381 38.155 6.34129 38.1102C7.00229 37.0293 7.85345 36.0355 8.72833 35.1168C10.6192 33.1316 12.8961 31.4332 15.4948 30.4383C17.2343 29.7724 19.0608 29.5251 20.9105 29.3467C22.9316 29.1519 24.9621 29.0821 26.9923 29.0595C28.6012 29.0418 30.2142 29.0696 31.8216 28.9842C32.8167 28.9314 33.9442 28.8787 34.8406 28.4036C35.8982 27.8432 36.2879 26.6135 36.4305 25.5228C36.5529 24.5871 36.5189 23.6269 36.3859 22.6936C36.3781 22.6387 36.37 22.5835 36.3606 22.5289C36.3269 22.3359 36.0259 22.4176 36.0596 22.61C36.1754 23.2708 36.2098 24.0254 36.1839 24.724C36.1427 25.8284 35.941 27.173 35.0152 27.9234C34.678 28.1969 34.2555 28.3387 33.8346 28.4372C33.3032 28.5613 32.7568 28.6171 32.2129 28.6555C30.6807 28.7631 29.1389 28.7372 27.6039 28.7491C25.6397 28.7643 23.6751 28.8122 21.7167 28.9708C19.8146 29.1244 17.8781 29.3111 16.0612 29.9129C13.371 30.8039 10.9895 32.4367 9.00247 34.3982C8.28058 35.1108 7.60772 35.8703 6.9873 36.6688C6.68475 37.0582 6.34566 37.4631 6.10961 37.8967C6.09837 37.9171 6.08432 37.9364 6.07214 37.9562C6.1171 37.9309 6.16207 37.9059 6.20703 37.8806C6.02718 37.8735 5.95005 37.8568 5.76178 37.8202C5.36555 37.7433 4.97557 37.6223 4.60588 37.4628C3.3357 36.914 2.32031 35.9468 1.63495 34.7744C1.10852 33.874 0.777864 32.88 0.567105 31.8671C0.335738 30.7548 0.254243 29.6102 0.37383 28.4796C0.571475 26.6083 1.36424 24.8331 2.63067 23.4162C3.76471 22.1475 5.28874 21.0282 6.98293 20.6199C8.91536 20.1543 10.9399 20.5726 12.8021 21.1312C14.9934 21.7886 17.1028 22.6789 19.2729 23.3976C21.6121 24.1721 24.0076 24.713 26.4871 24.752C28.6324 24.7859 30.7841 24.4956 32.8514 23.9385C33.9748 23.6361 35.0911 23.2622 36.1439 22.7704C36.1926 22.7476 36.2413 22.725 36.2891 22.7006C36.4677 22.6113 36.31 22.3478 36.1317 22.4381Z" fill="white"/>
<path d="M30.1119 8.48181C30.1119 8.48181 34.2806 7.23351 35.4406 11.7361C36.7282 16.7342 29.9889 19.533 25.7029 14.9438C21.3244 10.2552 27.526 -2.6959 37.9947 0.711477C46.317 3.4203 51.3025 12.1846 44.4539 24.0636C37.6053 35.9426 23.2902 30.3793 15.385 34.2724C7.48013 38.1654 10.0942 50.8177 10.0942 50.8177C10.0942 50.8177 0.159755 42.6687 2.5671 35.8067C6.28708 25.2037 19.4438 28.3562 29.376 25.5778C39.3082 22.7995 44.4273 12.7563 39.7544 7.31675C37.3233 4.48688 30.7932 3.22455 30.1119 8.48181Z" fill="#C79023"/>
<path d="M30.1535 8.62911C31.1432 8.33487 32.3457 8.4297 33.2552 8.90475C34.2281 9.41273 34.8373 10.3445 35.1658 11.3501C35.5049 12.3883 35.5701 13.5107 35.1258 14.53C34.3024 16.418 32.1193 17.2873 30.12 17.0879C28.9011 16.9663 27.7389 16.4589 26.7813 15.7207C26.0251 15.1377 25.3766 14.441 24.9788 13.5787C24.3015 12.1106 24.3243 10.3924 24.6718 8.8462C25.0756 7.04998 25.9364 5.34035 27.1335 3.9216C28.3746 2.45071 30.0008 1.27833 31.8732 0.704797C34.0255 0.0455809 36.2873 0.259625 38.3846 1.00605C40.4963 1.75734 42.4506 2.95016 43.9967 4.55033C45.5458 6.15354 46.6314 8.13943 47.1478 10.2845C47.7545 12.8046 47.5687 15.446 46.8993 17.935C46.4893 19.4601 45.903 20.9371 45.197 22.354C44.5338 23.6856 43.7863 24.9879 42.843 26.1514C41.3627 27.9778 39.4587 29.4091 37.2793 30.3524C35.2292 31.24 33.0064 31.6947 30.7889 31.9575C28.5826 32.2191 26.3601 32.2966 24.1429 32.4265C22.0912 32.5466 20.018 32.6981 18.0175 33.1842C16.08 33.6549 14.2466 34.4898 12.8528 35.9165C11.453 37.3489 10.5922 39.1982 10.106 41.1027C9.64953 42.8907 9.49716 44.7488 9.52776 46.5877C9.54868 47.8351 9.65265 49.084 9.84874 50.3171C9.87746 50.4979 9.90713 50.6793 9.94397 50.8589C10.0311 50.8095 10.1179 50.7601 10.205 50.7107C8.99415 49.7164 7.8879 48.5754 6.8622 47.403C4.95881 45.2278 3.18094 42.6906 2.55147 39.8525C2.23643 38.4332 2.29138 36.9964 2.79814 35.6271C3.32613 34.2001 4.11047 32.8603 5.18175 31.755C7.19848 29.6737 10.0077 28.6486 12.8215 28.0705C15.9764 27.4226 19.2105 27.2533 22.4094 26.9216C25.6832 26.5819 29.0188 26.1227 32.0415 24.7814C35.0568 23.4432 37.7305 21.2987 39.5393 18.578C41.0361 16.3263 41.9797 13.5735 41.5557 10.8717C41.364 9.65025 40.8691 8.48153 40.1013 7.49789C39.3391 6.52157 38.2969 5.80229 37.1438 5.32541C34.9797 4.4308 31.9447 4.32073 30.5878 6.55511C30.2303 7.14359 30.0473 7.80829 29.9564 8.48245C29.9302 8.67637 30.2428 8.67454 30.2687 8.48245C30.442 7.19756 31.0683 5.99713 32.3013 5.41444C33.4013 4.89487 34.7143 4.94061 35.8733 5.22692C37.0938 5.52878 38.2769 6.11451 39.1958 6.96186C40.1038 7.79914 40.7398 8.91938 41.0673 10.0905C41.7908 12.6768 41.0389 15.4506 39.7076 17.7231C38.0846 20.4935 35.5458 22.7117 32.6473 24.1582C29.6529 25.6526 26.2989 26.1913 22.9901 26.5545C19.8306 26.9012 16.6424 27.0649 13.5113 27.6278C10.7277 28.1281 7.90975 28.9904 5.72909 30.8238C4.62409 31.7529 3.73516 32.9073 3.08977 34.1821C2.4194 35.5064 1.97852 36.9056 2.04284 38.3945C2.16679 41.2585 3.72735 43.9283 5.44933 46.1669C6.71389 47.8107 8.15517 49.3423 9.72915 50.7086C9.81346 50.7817 9.89808 50.8549 9.98456 50.9257C10.1048 51.0245 10.2771 50.9312 10.2456 50.7775C10.096 50.0521 10.013 49.3102 9.94678 48.5742C9.79316 46.8664 9.78848 45.1388 9.99237 43.4346C10.2297 41.4497 10.7655 39.4516 11.8308 37.7298C12.9399 35.9375 14.6053 34.6398 16.613 33.9199C18.5467 33.2265 20.6218 32.9847 22.6638 32.8292C24.9166 32.6576 27.1772 32.6018 29.4278 32.4021C31.6993 32.2005 33.979 31.8605 36.1378 31.119C38.3515 30.3585 40.3861 29.1621 42.0294 27.5174C42.9632 26.5828 43.7645 25.5242 44.4386 24.3975C45.2991 22.959 46.0341 21.4375 46.6105 19.8693C47.5619 17.2797 48.0621 14.4843 47.7245 11.7358C47.4466 9.47432 46.5986 7.29757 45.1964 5.47146C43.8409 3.70603 42.0337 2.30649 40.0039 1.34572C37.9185 0.359026 35.6079 -0.228837 33.2846 0.0846105C31.2756 0.355371 29.4228 1.2887 27.9453 2.63305C26.5231 3.92739 25.4421 5.57848 24.7864 7.36282C24.1954 8.97061 23.9287 10.7562 24.2847 12.4445C24.6915 14.3736 26.0803 15.8918 27.8754 16.7559C29.8153 17.6898 32.2704 17.6932 34.0308 16.3711C34.8108 15.7854 35.3881 14.9633 35.626 14.0272C35.9095 12.9125 35.705 11.7319 35.2451 10.6897C34.8426 9.77771 34.1688 8.97945 33.2349 8.55471C32.557 8.24645 31.8002 8.13515 31.0567 8.1812C30.7283 8.20162 30.3876 8.24157 30.0713 8.33548C29.8787 8.3922 29.9605 8.68674 30.1535 8.62911Z" fill="white"/>
<path d="M47.5316 14.6928C48.3022 17.8096 48.3943 21.1322 47.531 24.2411C47.1057 25.7723 46.4438 27.2386 45.5346 28.5552C45.0225 29.2971 44.4424 29.9938 43.8547 30.6792C43.3395 31.2799 42.8056 31.8662 42.2345 32.4169C40.9575 33.6488 39.4656 34.7068 37.7052 35.1489C37.5107 35.1977 37.5931 35.4919 37.7883 35.4428C39.3698 35.0459 40.7542 34.1631 41.9516 33.0993C43.2162 31.9763 44.3353 30.6664 45.3538 29.3288C47.3836 26.6626 48.3584 23.4141 48.4474 20.1126C48.4974 18.263 48.2769 16.4091 47.8326 14.6117C47.7855 14.4211 47.4845 14.5019 47.5316 14.6928Z" fill="white"/>
<path d="M41.1035 27.9028C40.7744 28.9831 40.2396 30.0033 39.5252 30.8897C38.7605 31.8383 37.8094 32.5774 36.7697 33.2204C34.594 34.5663 32.221 35.5603 29.9408 36.718C29.3072 37.0397 28.6806 37.3739 28.0677 37.7319C27.5213 38.0508 26.9464 38.3826 26.6211 38.9372C26.5208 39.1076 26.7906 39.2616 26.8905 39.0912C27.1884 38.5835 27.7258 38.2865 28.225 37.995C28.7867 37.6672 29.3603 37.359 29.9401 37.062C31.0901 36.4729 32.2638 35.9295 33.4263 35.3642C34.5762 34.805 35.7168 34.2236 36.8065 33.558C37.8475 32.9222 38.8208 32.202 39.607 31.2733C40.4257 30.3061 41.0383 29.1862 41.4045 27.9836C41.462 27.7955 41.1607 27.715 41.1035 27.9028Z" fill="white"/>
<path d="M36.8088 43.1148C35.7663 44.9257 34.3853 46.5914 32.5986 47.7464C30.7627 48.9334 28.4634 49.5505 26.2727 49.142C25.1902 48.9401 23.9744 48.4855 23.501 47.4305C23.4205 47.2512 23.1513 47.4061 23.2316 47.5845C23.6478 48.512 24.6304 49.0316 25.5852 49.2962C26.6943 49.6036 27.867 49.639 29.002 49.4615C31.2707 49.1066 33.2893 47.8934 34.8489 46.2749C35.7198 45.3711 36.456 44.3491 37.0783 43.2685C37.177 43.0974 36.9075 42.9434 36.8088 43.1148Z" fill="white"/>
<path d="M28.4144 34.3233C26.0576 35.2548 23.5482 36.2787 22.0888 38.4301C21.7228 38.9698 21.4465 39.5662 21.2888 40.1955C21.241 40.3861 21.542 40.4675 21.5898 40.2766C22.1768 37.9334 24.315 36.4479 26.4313 35.4771C27.1092 35.1664 27.803 34.8913 28.4971 34.6172C28.6813 34.5446 28.6008 34.2495 28.4144 34.3233Z" fill="white"/>
<path d="M33.5093 31.6268C30.4675 32.1604 27.4229 32.6846 24.3914 33.2715C21.6868 33.7954 18.9182 34.4411 16.5496 35.8782C15.4171 36.5655 14.3633 37.4951 13.949 38.77C13.8881 38.9575 14.1894 39.0377 14.25 38.8511C14.62 37.7134 15.553 36.8685 16.5537 36.2368C17.6858 35.5221 18.9423 35.0013 20.2212 34.5945C21.512 34.1838 22.8377 33.888 24.1672 33.6255C25.6154 33.3398 27.0692 33.0791 28.5223 32.8178C30.2115 32.5138 31.902 32.2174 33.5924 31.9208C33.7897 31.8863 33.706 31.5924 33.5093 31.6268Z" fill="white"/>
<path d="M22.5995 45.5656C20.2383 45.1629 17.6933 44.7171 15.8939 43.0364C15.4477 42.6196 15.074 42.1403 14.7939 41.6024C14.7027 41.4274 14.4333 41.5817 14.5244 41.7564C15.6272 43.8749 17.984 44.907 20.239 45.4263C20.9921 45.5998 21.7546 45.73 22.5167 45.8599C22.7131 45.8931 22.7974 45.5995 22.5995 45.5656Z" fill="white"/>
<path d="M30.0472 8.32439C29.3447 8.78969 28.8991 9.53672 28.7474 10.3456C28.6609 10.8067 28.6596 11.2759 28.7208 11.74C28.7764 12.1623 28.8566 12.6114 29.1249 12.9593C29.2441 13.1142 29.5155 12.9624 29.3943 12.8054C29.1545 12.4943 29.0815 12.0977 29.0306 11.7196C28.9728 11.2924 28.9687 10.8512 29.0484 10.4264C29.1851 9.69771 29.5679 9.00922 30.2046 8.58723C30.3701 8.47807 30.2143 8.21371 30.0472 8.32439Z" fill="white"/>
<path d="M3.54236 33.8933C3.65133 31.1738 4.60709 28.2174 6.89859 26.5035C8.19999 25.5302 9.81893 25.1033 11.4285 24.9502C13.045 24.7963 14.7129 24.8332 16.3175 25.0811C18.0935 25.3555 19.8255 25.933 21.2855 26.9773C21.4479 27.0935 21.6037 26.8288 21.4432 26.7142C18.7448 24.7838 15.1488 24.392 11.8972 24.6078C10.2283 24.7188 8.52534 25.0692 7.11153 25.983C5.90411 26.7635 4.98396 27.9006 4.36354 29.1699C3.64384 30.6417 3.29538 32.2693 3.23012 33.8936C3.22232 34.0896 3.53455 34.089 3.54236 33.8933Z" fill="white"/>
<path d="M9.91247 50.5094C8.36066 48.1116 7.29219 45.3604 7.19727 42.5037C7.11203 39.9305 7.86077 37.276 9.50532 35.238C10.4099 34.1171 11.5767 33.2442 12.8228 32.5133C14.0615 31.7867 15.3838 31.2052 16.7455 30.7366C19.5162 29.7828 22.4225 29.287 25.3226 28.8824C28.4487 28.4464 31.5979 28.1064 34.6709 27.3743C35.0469 27.2847 35.4209 27.1889 35.7937 27.0874C35.987 27.0347 35.9049 26.7404 35.7107 26.7935C32.6027 27.6405 29.3944 28.0265 26.2056 28.4565C23.2075 28.8605 20.1988 29.3139 17.3118 30.2286C15.924 30.6683 14.567 31.2138 13.2874 31.901C11.9973 32.5941 10.7474 33.4256 9.74793 34.4906C7.94102 36.4171 6.99619 39.014 6.88847 41.6042C6.76982 44.4524 7.66281 47.2746 9.0788 49.7416C9.25803 50.0542 9.44662 50.3612 9.6427 50.664C9.75011 50.8286 10.0205 50.6759 9.91247 50.5094Z" fill="white"/>
<path d="M15.4506 27.2371C14.0012 26.6434 12.3638 26.5584 10.8557 26.9889C10.6634 27.0438 10.7452 27.3383 10.9388 27.2828C12.3988 26.866 13.9656 26.9569 15.3675 27.531C15.5527 27.6066 15.6332 27.3118 15.4506 27.2371Z" fill="white"/>
<path d="M9.70245 27.6467C9.90322 27.6467 9.90384 27.3418 9.70245 27.3418C9.50168 27.3418 9.50137 27.6467 9.70245 27.6467Z" fill="white"/>
<path d="M20.433 13.3728C19.8164 13.5305 19.4267 14.0534 19.0745 14.5351C18.6695 15.0895 18.3095 15.6761 18.0407 16.3055C17.5149 17.5358 17.3825 18.9399 17.9555 20.1781C18.0382 20.3568 18.3073 20.2019 18.2249 20.0241C17.6985 18.8868 17.8415 17.5769 18.3155 16.4478C18.5521 15.8838 18.8722 15.3541 19.2259 14.8532C19.5529 14.39 19.9241 13.8183 20.5158 13.6668C20.7103 13.6174 20.6282 13.3231 20.433 13.3728Z" fill="white"/>
<path d="M19.5381 21.7005C19.5602 21.7005 19.5827 21.7005 19.6049 21.7005C19.6264 21.7014 19.6464 21.6969 19.6652 21.6874C19.6845 21.6813 19.7014 21.6706 19.7154 21.656C19.7307 21.6423 19.7413 21.6258 19.7476 21.6069C19.7573 21.5886 19.7619 21.5691 19.761 21.5481C19.7591 21.5347 19.7573 21.5209 19.7554 21.5075C19.7479 21.4816 19.7345 21.4593 19.7151 21.4401C19.7045 21.4322 19.6942 21.4243 19.6836 21.4164C19.6592 21.4026 19.633 21.3956 19.6049 21.3956C19.5827 21.3956 19.5602 21.3956 19.5381 21.3956C19.5165 21.3947 19.4965 21.3993 19.4778 21.4087C19.4585 21.4148 19.4416 21.4255 19.4275 21.4401C19.4122 21.4539 19.4016 21.4703 19.3954 21.4892C19.3857 21.5075 19.381 21.527 19.382 21.5481C19.3838 21.5615 19.3857 21.5752 19.3876 21.5886C19.3951 21.6145 19.4085 21.6368 19.4279 21.656C19.4385 21.6639 19.4488 21.6719 19.4594 21.6798C19.4837 21.6935 19.51 21.7005 19.5381 21.7005Z" fill="white"/>
<path d="M21.9691 22.7902C21.9691 22.7466 21.9691 22.703 21.9691 22.6594C21.97 22.6384 21.9653 22.6189 21.9557 22.6006C21.9494 22.5817 21.9385 22.5652 21.9235 22.5515C21.9095 22.5365 21.8926 22.5262 21.8732 22.5201C21.8545 22.5106 21.8345 22.506 21.813 22.507C21.7992 22.5088 21.7852 22.5106 21.7714 22.5124C21.7449 22.5198 21.7221 22.5329 21.7024 22.5518C21.6943 22.5621 21.6862 22.5722 21.6781 22.5826C21.664 22.6064 21.6569 22.632 21.6569 22.6594C21.6569 22.703 21.6569 22.7466 21.6569 22.7902C21.6559 22.8113 21.6606 22.8308 21.6703 22.8491C21.6765 22.868 21.6875 22.8844 21.7024 22.8982C21.7165 22.9131 21.7334 22.9235 21.7527 22.9296C21.7714 22.939 21.7914 22.9436 21.813 22.9427C21.8267 22.9408 21.8408 22.939 21.8545 22.9372C21.881 22.9299 21.9038 22.9168 21.9235 22.8978C21.9316 22.8875 21.9397 22.8774 21.9479 22.867C21.9619 22.8433 21.9691 22.8177 21.9691 22.7902Z" fill="white"/>
<path d="M19.8171 13.5901C18.0118 14.274 16.4878 15.5933 15.5676 17.2575C15.3047 17.7332 15.0933 18.2354 14.936 18.7534C14.8785 18.9419 15.1798 19.0223 15.237 18.8345C15.9154 16.602 17.6749 14.7274 19.9002 13.8843C20.0854 13.8139 20.0048 13.519 19.8171 13.5901Z" fill="white"/>
<path d="M15.5908 20.4593C15.613 20.4593 15.6355 20.4593 15.6576 20.4593C15.6792 20.4602 15.6992 20.4557 15.7179 20.4462C15.7372 20.4401 15.7541 20.4294 15.7682 20.4148C15.7835 20.4011 15.7941 20.3846 15.8003 20.3657C15.81 20.3474 15.8147 20.3279 15.8137 20.3069C15.8119 20.2935 15.81 20.2797 15.8081 20.2663C15.8006 20.2404 15.7872 20.2181 15.7678 20.1989C15.7572 20.191 15.7469 20.1831 15.7363 20.1751C15.712 20.1614 15.6857 20.1544 15.6576 20.1544C15.6355 20.1544 15.613 20.1544 15.5908 20.1544C15.5693 20.1535 15.5493 20.1581 15.5305 20.1675C15.5112 20.1736 15.4943 20.1843 15.4803 20.1989C15.465 20.2126 15.4544 20.2291 15.4481 20.248C15.4384 20.2663 15.4338 20.2858 15.4347 20.3069C15.4366 20.3203 15.4384 20.334 15.4403 20.3474C15.4478 20.3733 15.4612 20.3956 15.4806 20.4148C15.4912 20.4227 15.5015 20.4307 15.5121 20.4386C15.5362 20.4523 15.5624 20.4593 15.5908 20.4593Z" fill="white"/>
<path d="M30.0423 14.1867C30.2431 14.1867 30.2437 13.8818 30.0423 13.8818C29.8415 13.8818 29.8412 14.1867 30.0423 14.1867Z" fill="white"/>
<path d="M29.1022 9.55611C28.8437 9.36829 28.7628 9.03197 28.7026 8.73956C28.6398 8.43496 28.6108 8.12486 28.6114 7.81446C28.6126 7.20922 28.7313 6.60763 28.9539 6.04294C29.4073 4.89464 30.319 3.97503 31.4577 3.4573C32.1022 3.16428 32.8082 3.01304 33.5182 3.00999C33.719 3.00908 33.7196 2.70417 33.5182 2.70508C32.1528 2.71087 30.8105 3.24904 29.836 4.18451C28.8499 5.13095 28.3023 6.46828 28.2988 7.81446C28.2979 8.18188 28.3388 8.55143 28.4206 8.91001C28.5018 9.26523 28.6376 9.59667 28.9442 9.81956C29.106 9.93664 29.2618 9.67198 29.1022 9.55611Z" fill="white"/>
<path d="M35.2618 3.21018C35.4625 3.21018 35.4632 2.90527 35.2618 2.90527C35.0607 2.90527 35.0604 3.21018 35.2618 3.21018Z" fill="white"/>
<path d="M14.1784 40.087C14.1597 40.087 14.1413 40.087 14.1225 40.087C14.101 40.0861 14.081 40.0907 14.0623 40.1001C14.0429 40.1062 14.0261 40.1169 14.012 40.1315C13.9967 40.1453 13.9861 40.1617 13.9799 40.1806C13.9702 40.1989 13.9655 40.2184 13.9664 40.2395C13.9683 40.2529 13.9702 40.2666 13.972 40.28C13.9795 40.306 13.993 40.3282 14.0123 40.3474C14.0229 40.3554 14.0332 40.3633 14.0439 40.3712C14.0682 40.3849 14.0944 40.3919 14.1225 40.3919C14.1413 40.3919 14.1597 40.3919 14.1784 40.3919C14.2 40.3929 14.22 40.3883 14.2387 40.3788C14.2581 40.3727 14.2749 40.3621 14.289 40.3474C14.3043 40.3337 14.3149 40.3172 14.3211 40.2983C14.3308 40.28 14.3355 40.2605 14.3346 40.2395C14.3327 40.2261 14.3308 40.2123 14.3289 40.1989C14.3214 40.173 14.308 40.1508 14.2887 40.1315C14.278 40.1236 14.2677 40.1157 14.2571 40.1078C14.2328 40.094 14.2065 40.087 14.1784 40.087Z" fill="white"/>
<path d="M21.3962 41.6163C21.3775 41.6163 21.3591 41.6163 21.3403 41.6163C21.3188 41.6154 21.2988 41.62 21.2801 41.6294C21.2607 41.6355 21.2438 41.6462 21.2298 41.6608C21.2145 41.6746 21.2039 41.691 21.1976 41.7099C21.1879 41.7282 21.1833 41.7477 21.1842 41.7688C21.1861 41.7822 21.1879 41.7959 21.1898 41.8093C21.1973 41.8352 21.2107 41.8575 21.2301 41.8767C21.2407 41.8846 21.251 41.8926 21.2616 41.9005C21.286 41.9142 21.3122 41.9212 21.3403 41.9212C21.3591 41.9212 21.3775 41.9212 21.3962 41.9212C21.4178 41.9222 21.4377 41.9176 21.4565 41.9081C21.4758 41.902 21.4927 41.8914 21.5067 41.8767C21.522 41.863 21.5327 41.8465 21.5389 41.8276C21.5486 41.8093 21.5533 41.7898 21.5523 41.7688C21.5505 41.7554 21.5486 41.7416 21.5467 41.7282C21.5392 41.7023 21.5258 41.6801 21.5064 41.6608C21.4958 41.6529 21.4855 41.645 21.4749 41.6371C21.4508 41.6233 21.4246 41.6166 21.3962 41.6163Z" fill="white"/>
<path d="M26.2088 40.1731C26.4096 40.1731 26.4102 39.8682 26.2088 39.8682C26.008 39.8682 26.0077 40.1731 26.2088 40.1731Z" fill="white"/>
<path d="M23.0633 46.3585C23.0633 46.3402 23.0633 46.3222 23.0633 46.3039C23.0643 46.2829 23.0596 46.2634 23.0499 46.2451C23.0437 46.2262 23.0327 46.2097 23.0177 46.196C23.0037 46.1811 22.9868 46.1707 22.9675 46.1646C22.9487 46.1551 22.9288 46.1506 22.9072 46.1515C22.8935 46.1533 22.8794 46.1551 22.8657 46.157C22.8391 46.1643 22.8164 46.1774 22.7967 46.1963C22.7886 46.2067 22.7804 46.2167 22.7723 46.2271C22.7583 46.2509 22.7511 46.2765 22.7511 46.3039C22.7511 46.3222 22.7511 46.3402 22.7511 46.3585C22.7502 46.3796 22.7548 46.3991 22.7645 46.4174C22.7708 46.4363 22.7817 46.4527 22.7967 46.4665C22.8107 46.4814 22.8276 46.4918 22.847 46.4979C22.8657 46.5073 22.8857 46.5119 22.9072 46.511C22.921 46.5091 22.935 46.5073 22.9487 46.5055C22.9753 46.4982 22.9981 46.4851 23.0177 46.4662C23.0259 46.4558 23.034 46.4457 23.0421 46.4354C23.0562 46.4116 23.0633 46.386 23.0633 46.3585Z" fill="white"/>
<path d="M37.3999 26.4574C37.4186 26.4574 37.437 26.4574 37.4558 26.4574C37.4773 26.4583 37.4973 26.4537 37.516 26.4443C37.5354 26.4382 37.5523 26.4275 37.5663 26.4129C37.5816 26.3991 37.5922 26.3827 37.5985 26.3638C37.6081 26.3455 37.6128 26.326 37.6119 26.3049C37.61 26.2915 37.6081 26.2778 37.6063 26.2644C37.5988 26.2384 37.5854 26.2162 37.566 26.197C37.5554 26.1891 37.5451 26.1811 37.5345 26.1732C37.5101 26.1595 37.4839 26.1525 37.4558 26.1525C37.437 26.1525 37.4186 26.1525 37.3999 26.1525C37.3783 26.1515 37.3584 26.1561 37.3396 26.1656C37.3203 26.1717 37.3034 26.1823 37.2894 26.197C37.2741 26.2107 37.2634 26.2272 37.2572 26.2461C37.2475 26.2644 37.2428 26.2839 37.2438 26.3049C37.2456 26.3183 37.2475 26.3321 37.2494 26.3455C37.2569 26.3714 37.2703 26.3936 37.2897 26.4129C37.3003 26.4208 37.3106 26.4287 37.3212 26.4366C37.3456 26.4504 37.3718 26.4574 37.3999 26.4574Z" fill="white"/>
<path d="M70.88 35.34C70.1867 35.34 69.52 35.2133 68.88 34.96C68.24 34.7067 67.6667 34.3267 67.16 33.82C66.6667 33.3133 66.2733 32.6733 65.98 31.9C65.6867 31.1267 65.54 30.2133 65.54 29.16C65.54 27.9067 65.68 26.6867 65.96 25.5C66.2533 24.3 66.6667 23.16 67.2 22.08C67.7333 21 68.3733 20.0133 69.12 19.12C69.8667 18.2267 70.6867 17.4467 71.58 16.78C72.4867 16.1133 73.46 15.6 74.5 15.24C75.54 14.88 76.62 14.7 77.74 14.7C78.4733 14.7 79.1533 14.8 79.78 15C80.42 15.1867 80.9933 15.4667 81.5 15.84C82.0067 16.2133 82.4467 16.68 82.82 17.24L83.46 15.24C83.5133 15.0667 83.62 14.9333 83.78 14.84C83.9533 14.7467 84.1867 14.7 84.48 14.7C84.76 14.7 84.9667 14.7467 85.1 14.84C85.2333 14.9333 85.2667 15.0867 85.2 15.3L80.28 30.36C80.0933 30.96 79.9667 31.48 79.9 31.92C79.8333 32.36 79.8333 32.72 79.9 33C79.98 33.28 80.1267 33.4933 80.34 33.64C80.5533 33.7733 80.8333 33.84 81.18 33.84C81.4333 33.84 81.6 33.92 81.68 34.08C81.76 34.2267 81.7667 34.4 81.7 34.6C81.6333 34.7867 81.5133 34.9533 81.34 35.1C81.18 35.26 80.9733 35.34 80.72 35.34C80.1733 35.34 79.7 35.2467 79.3 35.06C78.9 34.8733 78.5933 34.6 78.38 34.24C78.18 33.8667 78.0733 33.4067 78.06 32.86C78.06 32.3133 78.16 31.68 78.36 30.96L78.54 30.32C78.0067 31.1067 77.44 31.8133 76.84 32.44C76.2533 33.0533 75.64 33.58 75 34.02C74.3733 34.4467 73.7133 34.7733 73.02 35C72.34 35.2267 71.6267 35.34 70.88 35.34ZM67.38 29.1C67.38 29.9533 67.4933 30.6667 67.72 31.24C67.9467 31.8133 68.2467 32.28 68.62 32.64C69.0067 32.9867 69.42 33.24 69.86 33.4C70.3133 33.56 70.76 33.64 71.2 33.64C71.8667 33.64 72.5267 33.5133 73.18 33.26C73.8467 33.0067 74.4933 32.6267 75.12 32.12C75.76 31.6 76.3867 30.9533 77 30.18C77.6267 29.3933 78.24 28.48 78.84 27.44C79.4533 26.4 80.0467 25.22 80.62 23.9L82.12 19.32C81.7333 18.3333 81.16 17.6 80.4 17.12C79.64 16.64 78.6733 16.4 77.5 16.4C76.5933 16.4 75.7133 16.5667 74.86 16.9C74.02 17.22 73.22 17.68 72.46 18.28C71.7133 18.8667 71.0267 19.56 70.4 20.36C69.7867 21.16 69.2533 22.0333 68.8 22.98C68.3467 23.9267 67.9933 24.92 67.74 25.96C67.5 26.9867 67.38 28.0333 67.38 29.1ZM80.745 35.34C80.5583 35.34 80.425 35.26 80.345 35.1C80.2517 34.9533 80.225 34.7867 80.265 34.6C80.2917 34.4 80.385 34.2267 80.545 34.08C80.705 33.92 80.925 33.84 81.205 33.84C81.5517 33.84 81.905 33.7667 82.265 33.62C82.6117 33.4733 82.9583 33.26 83.305 32.98C83.6517 32.6867 83.9717 32.34 84.265 31.94C84.5583 31.54 84.8183 31.0933 85.045 30.6C85.1117 30.4 85.225 30.3067 85.385 30.32C85.5583 30.32 85.705 30.3867 85.825 30.52C85.9583 30.64 85.9983 30.7933 85.945 30.98C85.705 31.66 85.3983 32.2733 85.025 32.82C84.6517 33.3533 84.2383 33.8067 83.785 34.18C83.3317 34.5533 82.845 34.84 82.325 35.04C81.805 35.24 81.2783 35.34 80.745 35.34ZM87.225 35.34C86.6517 35.34 86.1583 35.2133 85.745 34.96C85.3317 34.6933 85.0117 34.3133 84.785 33.82C84.5717 33.3267 84.465 32.7467 84.465 32.08C84.465 31.4933 84.545 30.86 84.705 30.18C84.8783 29.5 85.1317 28.8333 85.465 28.18C85.8117 27.5267 86.2383 26.9333 86.745 26.4C87.265 25.8533 87.8717 25.42 88.565 25.1C89.2583 24.78 90.045 24.62 90.925 24.62C91.3783 24.62 91.8183 24.6867 92.245 24.82C92.6717 24.9533 93.0783 25.14 93.465 25.38L96.745 15.34C96.8383 15.0733 96.945 14.9 97.065 14.82C97.1983 14.74 97.3917 14.7 97.645 14.7C98.0583 14.7 98.3183 14.7667 98.425 14.9C98.545 15.02 98.5583 15.2133 98.465 15.48L93.025 32.14C92.825 32.78 92.7917 33.2267 92.925 33.48C93.0717 33.72 93.4383 33.84 94.025 33.84C94.185 33.84 94.2983 33.92 94.365 34.08C94.445 34.2267 94.465 34.4 94.425 34.6C94.3983 34.7867 94.3117 34.9533 94.165 35.1C94.0183 35.26 93.8183 35.34 93.565 35.34C93.0983 35.34 92.705 35.28 92.385 35.16C92.0783 35.04 91.8317 34.88 91.645 34.68C91.4717 34.4667 91.345 34.2267 91.265 33.96C91.185 33.6933 91.1517 33.42 91.165 33.14L91.145 32.94C90.6917 33.5533 90.225 34.0333 89.745 34.38C89.265 34.7267 88.805 34.9733 88.365 35.12C87.9383 35.2667 87.5583 35.34 87.225 35.34ZM87.785 33.74C88.2517 33.74 88.7183 33.5933 89.185 33.3C89.6517 32.9933 90.1183 32.5533 90.585 31.98C91.065 31.3933 91.5317 30.7 91.985 29.9L93.025 26.7C92.6383 26.5133 92.2783 26.3867 91.945 26.32C91.6117 26.24 91.2783 26.2 90.945 26.2C90.2783 26.2 89.685 26.3267 89.165 26.58C88.645 26.8333 88.1983 27.1733 87.825 27.6C87.465 28.0267 87.165 28.4933 86.925 29C86.6983 29.5067 86.5317 30.0133 86.425 30.52C86.3183 31.0133 86.265 31.46 86.265 31.86C86.265 32.2733 86.3183 32.62 86.425 32.9C86.545 33.1667 86.7183 33.3733 86.945 33.52C87.185 33.6667 87.465 33.74 87.785 33.74ZM93.5575 35.34C93.3708 35.34 93.2375 35.26 93.1575 35.1C93.0642 34.9533 93.0375 34.7867 93.0775 34.6C93.1042 34.4 93.1975 34.2267 93.3575 34.08C93.5175 33.92 93.7375 33.84 94.0175 33.84C94.4175 33.84 94.8242 33.7533 95.2375 33.58C95.6375 33.4067 96.0442 33.14 96.4575 32.78C96.8708 32.4067 97.2975 31.9467 97.7375 31.4C98.1908 30.8533 98.6508 30.2067 99.1175 29.46C99.2375 29.2867 99.3775 29.2067 99.5375 29.22C99.6975 29.2333 99.8175 29.3067 99.8975 29.44C99.9908 29.56 99.9975 29.7 99.9175 29.86C99.4375 30.7933 98.9442 31.6067 98.4375 32.3C97.9308 32.9933 97.4108 33.5667 96.8775 34.02C96.3575 34.46 95.8242 34.7867 95.2775 35C94.7175 35.2267 94.1442 35.34 93.5575 35.34ZM100.078 35.34C99.5842 35.34 99.1708 35.2533 98.8375 35.08C98.5175 34.9067 98.2775 34.6667 98.1175 34.36C97.9708 34.04 97.8975 33.68 97.8975 33.28C97.8975 32.88 97.9775 32.44 98.1375 31.96L100.298 25.34C100.391 25.0733 100.498 24.9 100.618 24.82C100.751 24.74 100.944 24.7 101.198 24.7C101.611 24.7 101.871 24.7667 101.978 24.9C102.098 25.02 102.111 25.2133 102.018 25.48L99.8575 32.14C99.6308 32.78 99.5775 33.2267 99.6975 33.48C99.8175 33.72 100.098 33.84 100.538 33.84C100.724 33.84 100.858 33.92 100.938 34.08C101.018 34.2267 101.038 34.4 100.998 34.6C100.971 34.7867 100.878 34.9533 100.718 35.1C100.571 35.26 100.358 35.34 100.078 35.34ZM102.438 21.62C102.171 21.62 101.944 21.5333 101.758 21.36C101.571 21.1867 101.478 20.9333 101.478 20.6C101.478 20.24 101.591 19.9 101.818 19.58C102.058 19.26 102.424 19.1 102.918 19.1C103.198 19.1 103.431 19.1867 103.618 19.36C103.804 19.52 103.898 19.7733 103.898 20.12C103.898 20.48 103.778 20.82 103.538 21.14C103.311 21.46 102.944 21.62 102.438 21.62ZM100.101 35.34C99.9547 35.34 99.8614 35.26 99.8214 35.1C99.7814 34.9533 99.7881 34.7867 99.8414 34.6C99.8947 34.4 99.9881 34.2267 100.121 34.08C100.241 33.92 100.381 33.84 100.541 33.84C100.755 33.84 100.995 33.78 101.261 33.66C101.515 33.54 101.788 33.34 102.081 33.06C102.361 32.78 102.661 32.4 102.981 31.92C103.301 31.44 103.628 30.8267 103.961 30.08C104.481 28.92 104.961 27.9867 105.401 27.28C105.841 26.5733 106.255 26.0333 106.641 25.66C107.028 25.2733 107.395 25.0133 107.741 24.88C108.101 24.7467 108.455 24.68 108.801 24.68C108.948 24.68 109.041 24.76 109.081 24.92C109.121 25.0667 109.128 25.24 109.101 25.44C109.075 25.6267 109.015 25.8 108.921 25.96C108.841 26.1067 108.735 26.18 108.601 26.18C108.388 26.18 108.168 26.2533 107.941 26.4C107.728 26.5333 107.495 26.7533 107.241 27.06C106.988 27.3667 106.715 27.78 106.421 28.3C106.128 28.8067 105.801 29.4333 105.441 30.18C104.921 31.2733 104.435 32.16 103.981 32.84C103.541 33.52 103.115 34.0467 102.701 34.42C102.275 34.78 101.855 35.02 101.441 35.14C101.015 35.2733 100.568 35.34 100.101 35.34ZM107.861 35.38C107.221 35.38 106.715 35.2533 106.341 35C105.968 34.76 105.701 34.44 105.541 34.04C105.395 33.64 105.335 33.2 105.361 32.72C105.388 32.2267 105.481 31.7333 105.641 31.24L107.021 27.04C107.115 26.76 107.128 26.5467 107.061 26.4C107.008 26.2533 106.861 26.18 106.621 26.18C106.421 26.18 106.268 26.1067 106.161 25.96C106.068 25.8 106.028 25.6267 106.041 25.44C106.068 25.24 106.141 25.0667 106.261 24.92C106.395 24.76 106.581 24.68 106.821 24.68C107.275 24.68 107.641 24.76 107.921 24.92C108.215 25.0667 108.428 25.28 108.561 25.56C108.695 25.84 108.755 26.16 108.741 26.52C108.741 26.88 108.681 27.2733 108.561 27.7L107.381 31.36C107.275 31.72 107.201 32.0933 107.161 32.48C107.121 32.8533 107.175 33.1667 107.321 33.42C107.481 33.6733 107.808 33.8 108.301 33.8C108.595 33.8 108.901 33.7267 109.221 33.58C109.541 33.4333 109.855 33.22 110.161 32.94C110.481 32.6467 110.781 32.2933 111.061 31.88C111.341 31.4667 111.581 30.9933 111.781 30.46L113.461 25.34C113.541 25.0867 113.641 24.92 113.761 24.84C113.881 24.7467 114.081 24.7 114.361 24.7C114.788 24.7 115.048 24.76 115.141 24.88C115.248 25 115.255 25.1867 115.161 25.44L113.621 30.32C113.488 30.7067 113.368 31.1067 113.261 31.52C113.168 31.92 113.128 32.2933 113.141 32.64C113.155 32.9867 113.248 33.2667 113.421 33.48C113.608 33.68 113.921 33.78 114.361 33.78C114.841 33.78 115.295 33.66 115.721 33.42C116.148 33.1667 116.528 32.8333 116.861 32.42C117.208 32.0067 117.508 31.5467 117.761 31.04C118.015 30.52 118.215 29.9933 118.361 29.46C118.508 28.9133 118.595 28.4 118.621 27.92C118.621 27.7867 118.621 27.6533 118.621 27.52C118.635 27.3867 118.635 27.26 118.621 27.14C118.315 26.9133 118.088 26.6733 117.941 26.42C117.795 26.1667 117.721 25.8867 117.721 25.58C117.721 25.3 117.815 25.0667 118.001 24.88C118.201 24.6933 118.448 24.6 118.741 24.6C118.968 24.6 119.175 24.66 119.361 24.78C119.561 24.9 119.728 25.08 119.861 25.32C120.008 25.56 120.121 25.8733 120.201 26.26C120.281 26.6333 120.321 27.08 120.321 27.6C120.321 28.2 120.228 28.8533 120.041 29.56C119.868 30.2533 119.608 30.9467 119.261 31.64C118.915 32.32 118.488 32.9467 117.981 33.52C117.488 34.08 116.915 34.5333 116.261 34.88C115.608 35.2133 114.888 35.38 114.101 35.38C113.475 35.38 112.968 35.2867 112.581 35.1C112.195 34.9133 111.908 34.66 111.721 34.34C111.535 34.0067 111.421 33.6467 111.381 33.26C111.088 33.7133 110.761 34.1 110.401 34.42C110.041 34.74 109.648 34.98 109.221 35.14C108.795 35.3 108.341 35.38 107.861 35.38ZM121.558 27.28C121.077 27.28 120.657 27.2267 120.297 27.12C119.924 27.0133 119.571 26.8467 119.237 26.62C119.064 26.5133 118.971 26.38 118.957 26.22C118.931 26.06 118.957 25.9067 119.037 25.76C119.117 25.6133 119.224 25.5067 119.357 25.44C119.477 25.3733 119.591 25.38 119.697 25.46C119.924 25.6067 120.211 25.7267 120.557 25.82C120.904 25.9 121.304 25.94 121.758 25.94C122.251 25.94 122.751 25.8933 123.258 25.8C123.778 25.7067 124.258 25.58 124.698 25.42C125.138 25.26 125.478 25.08 125.718 24.88C125.864 24.76 126.011 24.7533 126.158 24.86C126.318 24.9533 126.411 25.0933 126.438 25.28C126.478 25.4667 126.398 25.64 126.198 25.8C125.611 26.28 124.898 26.6467 124.058 26.9C123.231 27.1533 122.398 27.28 121.558 27.28ZM125.097 35.34C124.604 35.34 124.19 35.2533 123.857 35.08C123.537 34.9067 123.297 34.6667 123.137 34.36C122.99 34.04 122.917 33.68 122.917 33.28C122.917 32.88 122.997 32.44 123.157 31.96L125.317 25.34C125.41 25.0733 125.517 24.9 125.637 24.82C125.77 24.74 125.964 24.7 126.217 24.7C126.63 24.7 126.89 24.7667 126.997 24.9C127.117 25.02 127.13 25.2133 127.037 25.48L124.877 32.14C124.65 32.78 124.597 33.2267 124.717 33.48C124.837 33.72 125.117 33.84 125.557 33.84C125.744 33.84 125.877 33.92 125.957 34.08C126.037 34.2267 126.057 34.4 126.017 34.6C125.99 34.7867 125.897 34.9533 125.737 35.1C125.59 35.26 125.377 35.34 125.097 35.34ZM127.457 21.62C127.19 21.62 126.964 21.5333 126.777 21.36C126.59 21.1867 126.497 20.9333 126.497 20.6C126.497 20.24 126.61 19.9 126.837 19.58C127.077 19.26 127.444 19.1 127.937 19.1C128.217 19.1 128.45 19.1867 128.637 19.36C128.824 19.52 128.917 19.7733 128.917 20.12C128.917 20.48 128.797 20.82 128.557 21.14C128.33 21.46 127.964 21.62 127.457 21.62ZM125.081 35.34C124.894 35.34 124.761 35.26 124.681 35.1C124.588 34.9533 124.561 34.7867 124.601 34.6C124.628 34.4 124.721 34.2267 124.881 34.08C125.041 33.92 125.261 33.84 125.541 33.84C125.888 33.84 126.241 33.7667 126.601 33.62C126.948 33.4733 127.294 33.26 127.641 32.98C127.988 32.6867 128.308 32.34 128.601 31.94C128.894 31.54 129.154 31.0933 129.381 30.6C129.448 30.4 129.561 30.3067 129.721 30.32C129.894 30.32 130.041 30.3867 130.161 30.52C130.294 30.64 130.334 30.7933 130.281 30.98C130.041 31.66 129.734 32.2733 129.361 32.82C128.988 33.3533 128.574 33.8067 128.121 34.18C127.668 34.5533 127.181 34.84 126.661 35.04C126.141 35.24 125.614 35.34 125.081 35.34ZM131.561 35.34C130.988 35.34 130.494 35.2133 130.081 34.96C129.668 34.6933 129.348 34.3133 129.121 33.82C128.908 33.3267 128.801 32.7467 128.801 32.08C128.801 31.4933 128.881 30.86 129.041 30.18C129.214 29.5 129.468 28.8333 129.801 28.18C130.148 27.5267 130.574 26.9333 131.081 26.4C131.601 25.8533 132.208 25.42 132.901 25.1C133.594 24.78 134.381 24.62 135.261 24.62C135.714 24.62 136.154 24.6867 136.581 24.82C137.008 24.9533 137.414 25.14 137.801 25.38L141.081 15.34C141.174 15.0733 141.281 14.9 141.401 14.82C141.534 14.74 141.728 14.7 141.981 14.7C142.394 14.7 142.654 14.7667 142.761 14.9C142.881 15.02 142.894 15.2133 142.801 15.48L137.361 32.14C137.161 32.78 137.128 33.2267 137.261 33.48C137.408 33.72 137.774 33.84 138.361 33.84C138.521 33.84 138.634 33.92 138.701 34.08C138.781 34.2267 138.801 34.4 138.761 34.6C138.734 34.7867 138.648 34.9533 138.501 35.1C138.354 35.26 138.154 35.34 137.901 35.34C137.434 35.34 137.041 35.28 136.721 35.16C136.414 35.04 136.168 34.88 135.981 34.68C135.808 34.4667 135.681 34.2267 135.601 33.96C135.521 33.6933 135.488 33.42 135.501 33.14L135.481 32.94C135.028 33.5533 134.561 34.0333 134.081 34.38C133.601 34.7267 133.141 34.9733 132.701 35.12C132.274 35.2667 131.894 35.34 131.561 35.34ZM132.121 33.74C132.588 33.74 133.054 33.5933 133.521 33.3C133.988 32.9933 134.454 32.5533 134.921 31.98C135.401 31.3933 135.868 30.7 136.321 29.9L137.361 26.7C136.974 26.5133 136.614 26.3867 136.281 26.32C135.948 26.24 135.614 26.2 135.281 26.2C134.614 26.2 134.021 26.3267 133.501 26.58C132.981 26.8333 132.534 27.1733 132.161 27.6C131.801 28.0267 131.501 28.4933 131.261 29C131.034 29.5067 130.868 30.0133 130.761 30.52C130.654 31.0133 130.601 31.46 130.601 31.86C130.601 32.2733 130.654 32.62 130.761 32.9C130.881 33.1667 131.054 33.3733 131.281 33.52C131.521 33.6667 131.801 33.74 132.121 33.74ZM137.893 35.34C137.707 35.34 137.573 35.26 137.493 35.1C137.4 34.9533 137.373 34.7867 137.413 34.6C137.44 34.4 137.533 34.2267 137.693 34.08C137.853 33.92 138.073 33.84 138.353 33.84C138.753 33.84 139.16 33.7533 139.573 33.58C139.973 33.4067 140.38 33.14 140.793 32.78C141.207 32.4067 141.633 31.9467 142.073 31.4C142.527 30.8533 142.987 30.2067 143.453 29.46C143.573 29.2867 143.713 29.2067 143.873 29.22C144.033 29.2333 144.153 29.3067 144.233 29.44C144.327 29.56 144.333 29.7 144.253 29.86C143.773 30.7933 143.28 31.6067 142.773 32.3C142.267 32.9933 141.747 33.5667 141.213 34.02C140.693 34.46 140.16 34.7867 139.613 35C139.053 35.2267 138.48 35.34 137.893 35.34ZM144.413 35.34C143.92 35.34 143.507 35.2533 143.173 35.08C142.853 34.9067 142.613 34.6667 142.453 34.36C142.307 34.04 142.233 33.68 142.233 33.28C142.233 32.88 142.313 32.44 142.473 31.96L144.633 25.34C144.727 25.0733 144.833 24.9 144.953 24.82C145.087 24.74 145.28 24.7 145.533 24.7C145.947 24.7 146.207 24.7667 146.313 24.9C146.433 25.02 146.447 25.2133 146.353 25.48L144.193 32.14C143.967 32.78 143.913 33.2267 144.033 33.48C144.153 33.72 144.433 33.84 144.873 33.84C145.06 33.84 145.193 33.92 145.273 34.08C145.353 34.2267 145.373 34.4 145.333 34.6C145.307 34.7867 145.213 34.9533 145.053 35.1C144.907 35.26 144.693 35.34 144.413 35.34ZM146.773 21.62C146.507 21.62 146.28 21.5333 146.093 21.36C145.907 21.1867 145.813 20.9333 145.813 20.6C145.813 20.24 145.927 19.9 146.153 19.58C146.393 19.26 146.76 19.1 147.253 19.1C147.533 19.1 147.767 19.1867 147.953 19.36C148.14 19.52 148.233 19.7733 148.233 20.12C148.233 20.48 148.113 20.82 147.873 21.14C147.647 21.46 147.28 21.62 146.773 21.62ZM144.397 35.34C144.211 35.34 144.077 35.26 143.997 35.1C143.904 34.9533 143.877 34.7867 143.917 34.6C143.944 34.4 144.037 34.2267 144.197 34.08C144.357 33.92 144.577 33.84 144.857 33.84C145.204 33.84 145.557 33.7667 145.917 33.62C146.264 33.4733 146.611 33.26 146.957 32.98C147.304 32.6867 147.624 32.34 147.917 31.94C148.211 31.54 148.471 31.0933 148.697 30.6C148.764 30.4 148.877 30.3067 149.037 30.32C149.211 30.32 149.357 30.3867 149.477 30.52C149.611 30.64 149.651 30.7933 149.597 30.98C149.357 31.66 149.051 32.2733 148.677 32.82C148.304 33.3533 147.891 33.8067 147.437 34.18C146.984 34.5533 146.497 34.84 145.977 35.04C145.457 35.24 144.931 35.34 144.397 35.34ZM151.137 35.34C150.564 35.34 150.071 35.2133 149.657 34.96C149.244 34.6933 148.924 34.3133 148.697 33.82C148.484 33.3267 148.377 32.7467 148.377 32.08C148.377 31.4933 148.457 30.86 148.617 30.18C148.791 29.5 149.044 28.8333 149.377 28.18C149.724 27.5267 150.151 26.9333 150.657 26.4C151.177 25.8533 151.784 25.42 152.477 25.1C153.171 24.78 153.957 24.62 154.837 24.62C155.277 24.62 155.711 24.6867 156.137 24.82C156.564 24.9533 156.964 25.1333 157.337 25.36L157.357 25.28C157.451 25.04 157.557 24.8867 157.677 24.82C157.811 24.74 157.997 24.7 158.237 24.7C158.664 24.7 158.931 24.7667 159.037 24.9C159.144 25.02 159.157 25.2133 159.077 25.48L156.697 32.7C156.644 32.8733 156.604 33.0467 156.577 33.22C156.551 33.3933 156.571 33.54 156.637 33.66C156.704 33.7667 156.837 33.82 157.037 33.82C157.211 33.82 157.377 33.7733 157.537 33.68C157.697 33.5867 157.844 33.4667 157.977 33.32C158.124 33.16 158.251 33.0067 158.357 32.86C158.437 32.74 158.544 32.66 158.677 32.62C158.824 32.58 158.997 32.6267 159.197 32.76C159.411 32.8933 159.524 33.0333 159.537 33.18C159.551 33.3133 159.517 33.4533 159.437 33.6C159.317 33.8267 159.131 34.08 158.877 34.36C158.637 34.6267 158.344 34.8533 157.997 35.04C157.651 35.2267 157.257 35.32 156.817 35.32C156.404 35.32 156.071 35.26 155.817 35.14C155.564 35.02 155.371 34.86 155.237 34.66C155.117 34.46 155.037 34.2333 154.997 33.98C154.957 33.7267 154.951 33.4667 154.977 33.2C154.977 33.16 154.977 33.1267 154.977 33.1C154.977 33.06 154.984 33.0267 154.997 33C154.531 33.5867 154.064 34.0533 153.597 34.4C153.131 34.7467 152.684 34.9867 152.257 35.12C151.844 35.2667 151.471 35.34 151.137 35.34ZM150.177 31.86C150.177 32.2733 150.231 32.62 150.337 32.9C150.457 33.1667 150.631 33.3733 150.857 33.52C151.097 33.6667 151.377 33.74 151.697 33.74C152.151 33.74 152.611 33.5933 153.077 33.3C153.544 32.9933 154.011 32.5533 154.477 31.98C154.944 31.4067 155.397 30.7267 155.837 29.94L156.897 26.7C156.537 26.5 156.191 26.3667 155.857 26.3C155.524 26.2333 155.191 26.2 154.857 26.2C154.191 26.2 153.597 26.3267 153.077 26.58C152.557 26.8333 152.111 27.1733 151.737 27.6C151.377 28.0267 151.077 28.4933 150.837 29C150.611 29.5067 150.444 30.0133 150.337 30.52C150.231 31.0133 150.177 31.46 150.177 31.86ZM173.849 35.34C173.155 35.34 172.489 35.2133 171.849 34.96C171.209 34.7067 170.635 34.3267 170.129 33.82C169.635 33.3133 169.242 32.6733 168.949 31.9C168.655 31.1267 168.509 30.2133 168.509 29.16C168.509 27.9067 168.649 26.6867 168.929 25.5C169.222 24.3 169.635 23.16 170.169 22.08C170.702 21 171.342 20.0133 172.089 19.12C172.835 18.2267 173.655 17.4467 174.549 16.78C175.455 16.1133 176.429 15.6 177.469 15.24C178.509 14.88 179.589 14.7 180.709 14.7C181.442 14.7 182.122 14.8 182.749 15C183.389 15.1867 183.962 15.4667 184.469 15.84C184.975 16.2133 185.415 16.68 185.789 17.24L186.429 15.24C186.482 15.0667 186.589 14.9333 186.749 14.84C186.922 14.7467 187.155 14.7 187.449 14.7C187.729 14.7 187.935 14.7467 188.069 14.84C188.202 14.9333 188.235 15.0867 188.169 15.3L182.969 31.2C182.849 31.6 182.762 31.9533 182.709 32.26C182.655 32.5667 182.642 32.8267 182.669 33.04C182.695 33.24 182.762 33.3933 182.869 33.5C182.975 33.6067 183.122 33.66 183.309 33.66C183.522 33.66 183.722 33.6067 183.909 33.5C184.109 33.38 184.315 33.2 184.529 32.96C184.742 32.72 184.969 32.4067 185.209 32.02C185.369 31.8067 185.522 31.6667 185.669 31.6C185.829 31.5333 186.029 31.56 186.269 31.68C186.482 31.7867 186.615 31.9267 186.669 32.1C186.722 32.26 186.695 32.4533 186.589 32.68C186.362 33.08 186.115 33.4467 185.849 33.78C185.582 34.1133 185.295 34.4 184.989 34.64C184.695 34.8667 184.389 35.04 184.069 35.16C183.749 35.28 183.429 35.34 183.109 35.34C182.482 35.34 181.982 35.1867 181.609 34.88C181.235 34.5733 181.009 34.1333 180.929 33.56C180.849 32.9733 180.922 32.2733 181.149 31.46L181.489 30.36C180.955 31.1333 180.395 31.8333 179.809 32.46C179.222 33.0733 178.609 33.6 177.969 34.04C177.329 34.4667 176.669 34.7867 175.989 35C175.309 35.2267 174.595 35.34 173.849 35.34ZM170.349 29.1C170.349 29.9533 170.462 30.6667 170.689 31.24C170.915 31.8133 171.215 32.28 171.589 32.64C171.975 32.9867 172.389 33.24 172.829 33.4C173.282 33.56 173.729 33.64 174.169 33.64C174.835 33.64 175.495 33.5133 176.149 33.26C176.802 33.0067 177.449 32.6267 178.089 32.12C178.729 31.6 179.355 30.96 179.969 30.2C180.582 29.4267 181.189 28.52 181.789 27.48C182.402 26.44 182.995 25.2667 183.569 23.96L185.089 19.32C184.702 18.3333 184.129 17.6 183.369 17.12C182.609 16.64 181.642 16.4 180.469 16.4C179.562 16.4 178.682 16.5667 177.829 16.9C176.989 17.22 176.189 17.68 175.429 18.28C174.682 18.8667 173.995 19.56 173.369 20.36C172.755 21.16 172.222 22.0333 171.769 22.98C171.315 23.9267 170.962 24.92 170.709 25.96C170.469 26.9867 170.349 28.0333 170.349 29.1ZM192.127 35.38C191.554 35.38 191.014 35.2733 190.507 35.06C190 34.8467 189.554 34.5533 189.167 34.18C188.78 33.8067 188.46 33.3667 188.207 32.86C188.127 32.6867 188.114 32.52 188.167 32.36C188.234 32.1867 188.38 32.0333 188.607 31.9C188.807 31.78 188.98 31.74 189.127 31.78C189.274 31.82 189.42 31.9333 189.567 32.12C189.954 32.6 190.354 32.98 190.767 33.26C191.194 33.54 191.68 33.68 192.227 33.68C192.734 33.68 193.18 33.5667 193.567 33.34C193.954 33.1 194.3 32.72 194.607 32.2C194.927 31.6667 195.227 30.9667 195.507 30.1L199.747 17C199.56 17.0933 199.354 17.1733 199.127 17.24C198.9 17.2933 198.64 17.32 198.347 17.32C198.094 17.32 197.847 17.2933 197.607 17.24C197.367 17.1867 197.14 17.1267 196.927 17.06C196.714 16.98 196.5 16.9133 196.287 16.86C196.087 16.8067 195.894 16.78 195.707 16.78C195.48 16.78 195.274 16.82 195.087 16.9C194.914 16.9667 194.747 17.0867 194.587 17.26C194.44 17.42 194.28 17.6467 194.107 17.94C194 18.1667 193.874 18.32 193.727 18.4C193.594 18.4667 193.394 18.4733 193.127 18.42C192.834 18.38 192.647 18.2867 192.567 18.14C192.5 17.9933 192.5 17.8267 192.567 17.64C192.767 17.1067 193.02 16.6533 193.327 16.28C193.634 15.8933 193.994 15.6 194.407 15.4C194.82 15.2 195.287 15.1 195.807 15.1C196.14 15.1 196.44 15.1267 196.707 15.18C196.987 15.2333 197.24 15.3 197.467 15.38C197.707 15.46 197.94 15.5267 198.167 15.58C198.394 15.6333 198.62 15.66 198.847 15.66C199.247 15.66 199.574 15.5933 199.827 15.46C200.094 15.3267 200.327 15.1733 200.527 15C200.647 14.9067 200.767 14.8333 200.887 14.78C201.007 14.7267 201.154 14.7 201.327 14.7C201.634 14.7 201.854 14.7467 201.987 14.84C202.134 14.9333 202.174 15.0867 202.107 15.3L197.207 30.34C196.82 31.5533 196.38 32.5333 195.887 33.28C195.394 34.0133 194.84 34.5467 194.227 34.88C193.614 35.2133 192.914 35.38 192.127 35.38Z" fill="#C79023"/>
</svg>
