<svg width="160" height="52" viewBox="0 0 160 52" fill="none" xmlns="http://www.w3.org/2000/svg">
<path d="M46.3731 10.3525C46.3731 10.3525 51.2321 14.1697 50.8193 21.8077C50.4065 29.4454 42.63 35.8521 34.6758 35.4612L40.8175 19.9974L43.8664 14.6755L46.3731 10.3525Z" fill="#C79023"/>
<path d="M46.2622 10.4601C46.9901 11.033 47.5983 11.7941 48.1235 12.5408C49.4414 14.4157 50.2654 16.6016 50.558 18.8552C50.7459 20.3038 50.755 21.804 50.4952 23.245C50.2601 24.5497 49.8111 25.8133 49.1879 26.9887C47.9133 29.3917 45.9431 31.4233 43.6151 32.8802C41.2668 34.3495 38.5275 35.2502 35.7305 35.3207C35.3786 35.3295 35.0267 35.3249 34.6755 35.3082C34.7257 35.3725 34.7757 35.4368 34.826 35.5012C34.9715 35.1347 35.1173 34.7679 35.2628 34.4014C35.6265 33.4857 35.9903 32.5701 36.3537 31.6541C36.8327 30.4479 37.312 29.2417 37.791 28.0355C38.2752 26.8158 38.7598 25.5962 39.2441 24.3762C39.6322 23.3987 40.0206 22.4214 40.4087 21.4439C40.5917 20.9832 40.7706 20.5203 40.958 20.0611C40.9817 20.0029 40.9261 20.1111 40.9755 20.0319C41.0429 19.9242 41.1022 19.8105 41.1653 19.7004C41.4254 19.2467 41.6852 18.7927 41.9453 18.339C42.5466 17.2892 43.148 16.2394 43.7494 15.1896C44.0376 14.6868 44.3286 14.1855 44.6193 13.6842C45.2084 12.6683 45.7973 11.6526 46.3865 10.6367C46.4268 10.5674 46.4671 10.4979 46.507 10.4287C46.6063 10.2577 46.3366 10.104 46.2376 10.2747C45.7655 11.0885 45.2937 11.9026 44.8216 12.7165C44.4435 13.3687 44.0622 14.019 43.6875 14.6731C43.1748 15.568 42.6622 16.4629 42.1495 17.3578C41.6671 18.1997 41.1578 19.0321 40.7004 19.8873C40.5414 20.1843 40.4412 20.5225 40.3176 20.8338C39.9713 21.7055 39.625 22.5776 39.2788 23.4493C38.807 24.6375 38.3349 25.8255 37.8631 27.0137C37.3723 28.2498 36.8814 29.4856 36.3903 30.7217C35.9869 31.7371 35.5838 32.7527 35.1804 33.7681C34.9712 34.2947 34.762 34.8215 34.5528 35.3481C34.5434 35.3719 34.5337 35.396 34.5243 35.4198C34.4856 35.5173 34.5831 35.6085 34.6748 35.6128C37.5293 35.7475 40.38 35.0197 42.8704 33.669C45.324 32.3383 47.4509 30.4016 48.9231 28.0638C49.6566 26.8991 50.2258 25.6303 50.5777 24.3061C50.9501 22.9038 51.0548 21.4509 50.9754 20.0069C50.8402 17.5392 50.119 15.1073 48.7963 12.9945C48.1803 12.0109 47.4341 11.0242 46.5233 10.2772C46.5098 10.2662 46.4964 10.2549 46.483 10.2442C46.3281 10.1226 46.1058 10.3369 46.2622 10.4601Z" fill="white"/>
<path d="M41.9111 15.9074C41.9111 15.9074 33.4807 23.7402 26.6587 22.6117C19.8366 21.4833 20.626 13.3242 20.626 13.3242C20.626 13.3242 5.33451 15.8199 11.7984 29.5085C15.9671 38.3369 36.6889 26.8728 38.7135 23.8475C40.738 20.8222 41.9111 15.9074 41.9111 15.9074Z" fill="#C79023"/>
<path d="M41.8007 15.7997C40.8671 16.6666 39.8429 17.4523 38.8051 18.1948C36.6853 19.7111 34.3788 21.071 31.8784 21.8933C29.4505 22.6922 26.6391 22.963 24.3354 21.6564C22.5457 20.6414 21.525 18.8156 21.0716 16.8946C20.7981 15.7363 20.7328 14.5654 20.7775 13.3821C20.7781 13.3629 20.7803 13.3433 20.7822 13.3241C20.7925 13.2162 20.6748 13.1625 20.5845 13.1772C19.8723 13.2937 19.1679 13.497 18.4841 13.719C16.9667 14.2114 15.4945 14.8862 14.1918 15.797C12.6309 16.8882 11.3361 18.3317 10.6398 20.0944C9.7284 22.4016 9.97725 24.9559 10.7326 27.2689C10.9908 28.0592 11.3058 28.8337 11.664 29.5859C11.8703 30.0195 12.1273 30.4266 12.437 30.797C13.0297 31.5053 13.8112 32.0301 14.6752 32.3737C16.6544 33.1607 18.9316 33.0207 20.9917 32.6664C23.513 32.2325 25.9569 31.3971 28.303 30.4104C30.5545 29.4633 32.7427 28.3541 34.8191 27.0802C35.6196 26.589 36.4055 26.0718 37.1543 25.5077C37.6745 25.1156 38.2015 24.7034 38.6268 24.2107C38.9628 23.8216 39.2135 23.3609 39.4589 22.9148C39.8757 22.1571 40.2339 21.3689 40.5586 20.57C41.086 19.2723 41.5262 17.939 41.8947 16.59C41.9527 16.3769 42.0102 16.1632 42.0617 15.9482C42.1073 15.7573 41.8063 15.6759 41.7607 15.8671C41.5721 16.6562 41.3357 17.4368 41.085 18.2088C40.5729 19.7861 39.9713 21.3512 39.1629 22.8087C38.9343 23.2209 38.6749 23.6887 38.3864 24.0173C38.2003 24.2293 37.9933 24.4235 37.7806 24.6095C37.1846 25.1315 36.5357 25.5959 35.8766 26.038C34.011 27.2899 32.0199 28.3712 29.9813 29.3289C27.6826 30.4089 25.2918 31.3373 22.8198 31.9627C20.691 32.5012 18.3839 32.8762 16.1939 32.4814C15.2862 32.3176 14.4032 32.0075 13.6457 31.4846C12.8742 30.9519 12.3009 30.2143 11.9094 29.3801C10.7778 26.971 9.99318 24.2143 10.5321 21.5573C10.9155 19.6678 11.9799 18.0192 13.4521 16.7547C14.697 15.6857 16.1814 14.8917 17.7223 14.3093C18.6306 13.966 19.5716 13.68 20.5283 13.4964C20.5745 13.4876 20.6211 13.4787 20.6676 13.4711C20.6017 13.422 20.5358 13.3732 20.4699 13.3241C20.3719 14.3447 20.4687 15.4082 20.6529 16.4129C21.0054 18.3375 21.8663 20.2404 23.4836 21.4622C25.5831 23.048 28.4001 23.1224 30.878 22.5019C33.5245 21.8394 35.9765 20.4965 38.2068 18.9845C39.0773 18.3945 39.9219 17.7673 40.7387 17.1081C41.1556 16.7715 41.5777 16.4324 41.9671 16.065C41.9849 16.0482 42.0036 16.0317 42.0217 16.015C42.1672 15.8799 41.9462 15.6643 41.8007 15.7997Z" fill="white"/>
<path d="M45.6833 18.6976C45.6833 18.6976 46.3974 25.4083 42.4548 31.012C38.5122 36.6156 28.7196 36.4129 26.8739 41.3161C25.0283 46.2194 33.5483 48.7239 37.0332 43.016C37.0332 43.016 35.4389 52.1221 26.6816 51.8249C17.9243 51.5276 12.8102 37.7856 20.2117 33.2516C27.6133 28.7178 42.2946 25.4166 45.6833 18.6976Z" fill="#C79023"/>
<path d="M45.5276 18.6975C45.6094 19.4732 45.5903 20.2672 45.5494 21.0444C45.4523 22.8956 45.1204 24.739 44.5334 26.5026C44.1672 27.6031 43.6982 28.6706 43.119 29.6804C42.6088 30.5698 42.0271 31.4172 41.2921 32.145C40.045 33.3799 38.4879 34.2632 36.8936 35.0002C35.295 35.7393 33.6326 36.3342 32.0118 37.0236C30.6202 37.6157 29.197 38.2822 28.083 39.3113C27.1047 40.2145 26.3844 41.5003 26.4653 42.8471C26.5383 44.0633 27.3064 45.0814 28.3587 45.6928C29.542 46.38 30.9855 46.5725 32.3341 46.373C33.9071 46.1404 35.3503 45.3318 36.3853 44.157C36.6776 43.8255 36.9377 43.4685 37.1684 43.0934C37.0732 43.0544 36.9783 43.0151 36.883 42.976C36.7335 43.827 36.4306 44.6707 36.0871 45.4626C35.3496 47.1637 34.2509 48.7538 32.7431 49.8908C30.7929 51.3614 28.1797 51.9553 25.7509 51.5891C23.4815 51.247 21.4938 49.9707 20.0098 48.294C18.4876 46.574 17.4498 44.4298 17.0173 42.1985C16.6136 40.1144 16.7522 37.8459 17.8073 35.9561C18.3278 35.024 19.0618 34.215 19.9517 33.6037C20.9768 32.8997 22.1227 32.3371 23.2427 31.7944C25.8583 30.5268 28.5679 29.4527 31.2515 28.3321C33.9674 27.1978 36.6872 26.0389 39.2548 24.6055C41.3873 23.4151 43.5258 22.0037 45.0093 20.0565C45.3165 19.6531 45.5894 19.2257 45.8183 18.775C45.9073 18.5997 45.6381 18.4451 45.5488 18.621C44.4785 20.7307 42.4886 22.2711 40.499 23.5154C38.0311 25.0592 35.3493 26.2605 32.6691 27.4043C29.9002 28.5861 27.0925 29.6844 24.3545 30.9345C23.1437 31.4873 21.945 32.0706 20.7913 32.7307C19.7925 33.3024 18.8839 33.9492 18.172 34.8523C16.8119 36.5781 16.3594 38.8167 16.5337 40.9551C16.7197 43.2389 17.5643 45.4793 18.8885 47.3667C20.1965 49.231 22.0237 50.8 24.2359 51.5379C26.5839 52.3209 29.3478 52.0898 31.551 50.9888C33.4097 50.0597 34.8419 48.4922 35.8199 46.7112C36.4153 45.6269 36.8805 44.4491 37.1456 43.2441C37.1594 43.1819 37.1728 43.1193 37.184 43.0565C37.2127 42.8931 36.9951 42.7824 36.8986 42.9391C36.045 44.3271 34.7389 45.4144 33.1393 45.8837C31.831 46.2672 30.3726 46.2419 29.1065 45.7208C28.0161 45.272 27.0729 44.4143 26.8309 43.2489C26.568 41.9829 27.1784 40.6749 28.057 39.7681C29.0802 38.7116 30.4603 38.0343 31.8014 37.4462C33.376 36.7556 34.9996 36.1768 36.572 35.4804C38.1513 34.781 39.6994 33.9617 41.0036 32.8323C42.5688 31.4766 43.6282 29.6408 44.3985 27.7616C45.146 25.9389 45.5916 24.0039 45.7855 22.0516C45.8907 20.9914 45.9332 19.9141 45.8529 18.8506C45.8492 18.7997 45.8451 18.7491 45.8398 18.6982C45.8192 18.5042 45.507 18.5021 45.5276 18.6975Z" fill="white"/>
<path d="M38.7577 28.9218C38.7577 28.9218 35.1839 32.9332 27.1182 34.7886C19.3345 36.579 16.8622 42.4534 22.7023 45.6962C22.7023 45.6962 13.5653 48.3949 11.1683 40.6112C9.12561 33.9778 14.689 29.1847 21.9279 28.823C29.1668 28.4614 38.7577 28.9218 38.7577 28.9218Z" fill="#C79023"/>
<path d="M38.6473 28.8139C38.1031 29.4237 37.4262 29.9436 36.7646 30.4235C34.9483 31.7413 32.9112 32.7664 30.7962 33.5421C30.0902 33.801 29.3736 34.0327 28.6495 34.2382C27.8892 34.4541 27.1152 34.6148 26.3534 34.824C25.0832 35.1725 23.8408 35.6643 22.7211 36.3507C21.104 37.3419 19.5913 38.8576 19.3543 40.7892C19.1213 42.6861 20.3269 44.3036 21.8472 45.3492C22.0976 45.5214 22.3574 45.6797 22.6234 45.8282C22.6359 45.7352 22.6484 45.6425 22.6605 45.5495C22.1728 45.6931 21.6636 45.7818 21.1609 45.8547C20.025 46.0188 18.8572 46.052 17.7175 45.9065C16.3334 45.7297 14.9695 45.262 13.8639 44.414C12.4439 43.3252 11.5893 41.7189 11.1678 40.0285C10.7178 38.2252 10.8212 36.3061 11.6461 34.6182C12.4426 32.9884 13.8077 31.6947 15.3898 30.7863C17.1752 29.7612 19.2238 29.2011 21.2792 29.0206C22.4395 28.9188 23.6119 28.9017 24.7763 28.8752C25.9999 28.8474 27.2242 28.8364 28.4481 28.8374C30.6285 28.8386 32.8091 28.8755 34.9886 28.9377C36.1882 28.9718 37.3878 29.0127 38.5868 29.0666C38.6439 29.0691 38.7007 29.0718 38.7579 29.0746C38.9586 29.0843 38.9583 28.7794 38.7579 28.7697C37.8852 28.7279 37.0122 28.6968 36.1388 28.6681C34.0537 28.5992 31.9677 28.5541 29.8813 28.5382C27.4175 28.5193 24.952 28.5373 22.4901 28.6447C20.3141 28.7395 18.1812 29.1078 16.1994 30.0238C14.4934 30.812 12.9466 31.9889 11.9074 33.5421C10.8802 35.0774 10.4452 36.9166 10.6273 38.7384C10.8121 40.5889 11.5171 42.4772 12.8079 43.8682C13.8196 44.9586 15.1753 45.6736 16.6316 46.0181C17.8708 46.3118 19.1657 46.3593 20.4324 46.2447C21.174 46.1776 21.9184 46.0633 22.6377 45.8727C22.673 45.8633 22.7086 45.8538 22.7436 45.8437C22.8701 45.8065 22.9 45.6315 22.7807 45.565C21.1446 44.6512 19.6 43.1651 19.6372 41.1954C19.6724 39.3263 21.0838 37.7889 22.5903 36.7973C23.6516 36.0988 24.8368 35.5923 26.058 35.2268C26.7895 35.0078 27.5389 34.8557 28.2764 34.6584C29.0183 34.4596 29.753 34.2343 30.4771 33.9806C32.6277 33.2275 34.7035 32.2301 36.5694 30.937C37.3659 30.3848 38.1915 29.7811 38.8403 29.0596C38.8494 29.0496 38.8587 29.0401 38.8675 29.0301C38.9995 28.8822 38.7794 28.6657 38.6473 28.8139Z" fill="white"/>
<path d="M36.2108 22.5702C36.2108 22.5702 30.4463 25.4867 23.5009 24.3335C16.5555 23.1806 10.2749 18.2938 5.21259 21.1557C2.06431 22.9355 -0.829497 26.6103 0.490326 32.2395C1.80984 37.8688 6.20737 38.0337 6.20737 38.0337C6.20737 38.0337 10.7217 30.6412 18.5004 29.488C26.2792 28.3352 32.8077 29.488 34.8913 28.1995C36.9748 26.9109 36.2108 22.5702 36.2108 22.5702Z" fill="#C79023"/>
<path d="M36.1317 22.4385C35.3824 22.8169 34.5712 23.0983 33.7709 23.352C31.8207 23.9704 29.7843 24.3448 27.7348 24.4314C26.4424 24.486 25.1426 24.4274 23.8634 24.2372C22.6441 24.0554 21.4463 23.7554 20.2701 23.3959C18.017 22.7077 15.8464 21.7936 13.6076 21.0646C11.7108 20.4468 9.67378 19.9221 7.66017 20.187C5.85732 20.4243 4.26023 21.3948 2.97444 22.619C1.62621 23.9024 0.659525 25.5419 0.249247 27.3396C-0.240027 29.4844 0.00663912 31.8575 0.852175 33.8888C1.44511 35.3133 2.41429 36.5888 3.77783 37.3873C4.47474 37.7956 5.26969 38.0898 6.0812 38.1758C6.12272 38.1801 6.16456 38.1847 6.2064 38.1862C6.26104 38.1883 6.31381 38.1554 6.34129 38.1106C7.00229 37.0297 7.85345 36.036 8.72833 35.1173C10.6192 33.132 12.8961 31.4337 15.4948 30.4387C17.2343 29.7728 19.0608 29.5255 20.9105 29.3472C22.9316 29.1523 24.9621 29.0825 26.9923 29.0599C28.6012 29.0422 30.2142 29.07 31.8216 28.9846C32.8167 28.9319 33.9442 28.8791 34.8406 28.4041C35.8982 27.8436 36.2879 26.6139 36.4305 25.5233C36.5529 24.5875 36.5189 23.6273 36.3859 22.694C36.3781 22.6391 36.37 22.5839 36.3606 22.5294C36.3269 22.3364 36.0259 22.4181 36.0596 22.6105C36.1754 23.2712 36.2098 24.0259 36.1839 24.7244C36.1427 25.8288 35.941 27.1734 35.0152 27.9238C34.678 28.1973 34.2555 28.3391 33.8346 28.4376C33.3032 28.5617 32.7568 28.6175 32.2129 28.6559C30.6807 28.7636 29.1389 28.7376 27.6039 28.7495C25.6397 28.7648 23.6751 28.8126 21.7167 28.9712C19.8146 29.1249 17.8781 29.3115 16.0612 29.9134C13.371 30.8043 10.9895 32.4371 9.00247 34.3986C8.28058 35.1112 7.60772 35.8707 6.9873 36.6693C6.68475 37.0586 6.34566 37.4636 6.10961 37.8971C6.09837 37.9176 6.08432 37.9368 6.07214 37.9566C6.1171 37.9313 6.16207 37.9063 6.20703 37.881C6.02718 37.874 5.95005 37.8572 5.76178 37.8206C5.36555 37.7438 4.97557 37.6227 4.60588 37.4633C3.3357 36.9144 2.32031 35.9472 1.63495 34.7749C1.10852 33.8745 0.777864 32.8805 0.567105 31.8675C0.335738 30.7552 0.254243 29.6106 0.37383 28.48C0.571475 26.6088 1.36424 24.8336 2.63067 23.4166C3.76471 22.1479 5.28874 21.0286 6.98293 20.6203C8.91536 20.1547 10.9399 20.5731 12.8021 21.1316C14.9933 21.789 17.1028 22.6794 19.2729 23.398C21.6121 24.1725 24.0076 24.7134 26.4871 24.7525C28.6324 24.7863 30.7841 24.496 32.8514 23.939C33.9748 23.6365 35.0911 23.2627 36.1439 22.7708C36.1926 22.748 36.2413 22.7254 36.2891 22.701C36.4677 22.6117 36.31 22.3482 36.1317 22.4385Z" fill="white"/>
<path d="M30.1124 8.48212C30.1124 8.48212 34.2811 7.23381 35.441 11.7364C36.7287 16.7345 29.9894 19.5333 25.7033 14.9441C21.3249 10.2555 27.5265 -2.69559 37.9951 0.711782C46.3175 3.42061 51.303 12.185 44.4544 24.064C37.6058 35.943 23.2907 30.3796 15.3855 34.2727C7.48062 38.1658 10.0947 50.818 10.0947 50.818C10.0947 50.818 0.160243 42.669 2.56758 35.807C6.28756 25.204 19.4443 28.3565 29.3765 25.5781C39.3087 22.7998 44.4278 12.7567 39.7549 7.31705C37.3238 4.48718 30.7937 3.22485 30.1124 8.48212Z" fill="#C79023"/>
<path d="M30.1539 8.62911C31.1437 8.33487 32.3461 8.4297 33.2557 8.90475C34.2286 9.41273 34.8378 10.3445 35.1663 11.3501C35.5053 12.3883 35.5706 13.5107 35.1263 14.53C34.3029 16.418 32.1198 17.2873 30.1205 17.0879C28.9016 16.9663 27.7394 16.4589 26.7818 15.7207C26.0256 15.1377 25.377 14.441 24.9792 13.5787C24.302 12.1106 24.3248 10.3924 24.6723 8.8462C25.076 7.04998 25.9369 5.34035 27.134 3.9216C28.3751 2.45071 30.0013 1.27833 31.8737 0.704797C34.026 0.0455809 36.2878 0.259625 38.3851 1.00605C40.4968 1.75734 42.451 2.95016 43.9972 4.55033C45.5462 6.15354 46.6319 8.13943 47.1483 10.2845C47.755 12.8046 47.5692 15.446 46.8998 17.935C46.4898 19.4601 45.9034 20.9371 45.1975 22.354C44.5343 23.6856 43.7868 24.9879 42.8435 26.1514C41.3632 27.9778 39.4592 29.4091 37.2798 30.3524C35.2296 31.24 33.0068 31.6947 30.7893 31.9575C28.5831 32.2191 26.3606 32.2966 24.1434 32.4265C22.0917 32.5466 20.0184 32.6981 18.0179 33.1842C16.0805 33.6549 14.2471 34.4898 12.8533 35.9165C11.4535 37.3489 10.5927 39.1982 10.1065 41.1027C9.65002 42.8907 9.49765 44.7488 9.52825 46.5877C9.54917 47.8351 9.65314 49.084 9.84923 50.3171C9.87795 50.4979 9.90762 50.6793 9.94446 50.8589C10.0316 50.8095 10.1184 50.7601 10.2055 50.7107C8.99464 49.7164 7.88839 48.5754 6.86269 47.403C4.9593 45.2278 3.18143 42.6906 2.55196 39.8525C2.23691 38.4332 2.29187 36.9964 2.79863 35.6271C3.32662 34.2001 4.11095 32.8603 5.18224 31.755C7.19897 29.6737 10.0082 28.6486 12.822 28.0705C15.9769 27.4226 19.211 27.2533 22.4099 26.9216C25.6837 26.5819 29.0193 26.1227 32.042 24.7814C35.0573 23.4432 37.731 21.2987 39.5398 18.578C41.0366 16.3263 41.9802 13.5735 41.5562 10.8717C41.3645 9.65025 40.8696 8.48153 40.1018 7.49789C39.3396 6.52157 38.2974 5.80229 37.1443 5.32541C34.9802 4.4308 31.9452 4.32073 30.5883 6.55511C30.2307 7.14359 30.0478 7.80829 29.9569 8.48245C29.9307 8.67637 30.2432 8.67454 30.2692 8.48245C30.4424 7.19756 31.0688 5.99713 32.3018 5.41444C33.4018 4.89487 34.7148 4.94061 35.8738 5.22692C37.0943 5.52878 38.2774 6.11451 39.1963 6.96186C40.1043 7.79914 40.7403 8.91939 41.0678 10.0905C41.7913 12.6768 41.0394 15.4506 39.7081 17.7231C38.0851 20.4935 35.5463 22.7117 32.6478 24.1582C29.6534 25.6526 26.2994 26.1913 22.9906 26.5545C19.8311 26.9012 16.6429 27.0649 13.5118 27.6278C10.7282 28.1281 7.91024 28.9904 5.72958 30.8238C4.62458 31.7529 3.73565 32.9073 3.09026 34.1821C2.41988 35.5064 1.979 36.9056 2.04332 38.3945C2.16728 41.2585 3.72784 43.9283 5.44982 46.1669C6.71438 47.8107 8.15566 49.3423 9.72964 50.7086C9.81394 50.7817 9.89856 50.8549 9.98505 50.9257C10.1053 51.0245 10.2776 50.9312 10.2461 50.7775C10.0965 50.0521 10.0135 49.3102 9.94727 48.5742C9.79365 46.8664 9.78897 45.1388 9.99286 43.4346C10.2302 41.4497 10.766 39.4516 11.8313 37.7298C12.9404 35.9375 14.6058 34.6398 16.6135 33.9199C18.5472 33.2265 20.6223 32.9847 22.6643 32.8292C24.9171 32.6576 27.1777 32.6018 29.4283 32.4021C31.6998 32.2005 33.9795 31.8605 36.1383 31.119C38.352 30.3585 40.3865 29.1621 42.0298 27.5174C42.9637 26.5828 43.7649 25.5242 44.4391 24.3975C45.2996 22.959 46.0346 21.4375 46.611 19.8693C47.5623 17.2797 48.0626 14.4843 47.725 11.7358C47.4471 9.47432 46.5991 7.29757 45.1968 5.47146C43.8414 3.70603 42.0342 2.30649 40.0044 1.34572C37.9189 0.359026 35.6084 -0.228837 33.285 0.0846105C31.2761 0.355371 29.4233 1.2887 27.9458 2.63305C26.5236 3.92739 25.4426 5.57848 24.7869 7.36282C24.1959 8.97061 23.9292 10.7562 24.2852 12.4445C24.692 14.3736 26.0808 15.8918 27.8759 16.7559C29.8158 17.6898 32.2709 17.6932 34.0313 16.3711C34.8113 15.7854 35.3886 14.9633 35.6265 14.0272C35.91 12.9125 35.7055 11.7319 35.2456 10.6897C34.8431 9.77771 34.1693 8.97945 33.2354 8.55471C32.5575 8.24645 31.8007 8.13515 31.0572 8.18119C30.7288 8.20162 30.3881 8.24157 30.0718 8.33548C29.8792 8.3922 29.961 8.68674 30.1539 8.62911Z" fill="white"/>
<path d="M47.5321 14.6932C48.3027 17.8099 48.3948 21.1326 47.5315 24.2414C47.1062 25.7727 46.4443 27.239 45.535 28.5556C45.023 29.2974 44.4428 29.9942 43.8552 30.6796C43.34 31.2803 42.8061 31.8666 42.235 32.4173C40.958 33.6491 39.4661 34.7072 37.7057 35.1493C37.5112 35.1981 37.5936 35.4923 37.7888 35.4432C39.3703 35.0462 40.7547 34.1635 41.9521 33.0997C43.2167 31.9767 44.3358 30.6668 45.3543 29.3292C47.3841 26.663 48.3589 23.4145 48.4479 20.1129C48.4979 18.2633 48.2774 16.4095 47.8331 14.612C47.786 14.4215 47.485 14.5023 47.5321 14.6932Z" fill="white"/>
<path d="M41.103 27.9028C40.7739 28.9831 40.2391 30.0033 39.5247 30.8897C38.76 31.8383 37.8089 32.5774 36.7692 33.2204C34.5935 34.5663 32.2205 35.5603 29.9403 36.718C29.3068 37.0397 28.6801 37.3739 28.0672 37.7319C27.5208 38.0508 26.9459 38.3826 26.6206 38.9372C26.5204 39.1076 26.7901 39.2616 26.89 39.0912C27.1879 38.5835 27.7253 38.2865 28.2245 37.995C28.7863 37.6672 29.3598 37.359 29.9397 37.062C31.0896 36.4729 32.2633 35.9295 33.4258 35.3642C34.5757 34.805 35.7163 34.2236 36.806 33.558C37.847 32.9222 38.8203 32.202 39.6065 31.2733C40.4252 30.3061 41.0378 29.1862 41.404 27.9836C41.4615 27.7955 41.1602 27.715 41.103 27.9028Z" fill="white"/>
<path d="M36.8088 43.1144C35.7663 44.9253 34.3853 46.591 32.5986 47.746C30.7627 48.933 28.4634 49.5502 26.2727 49.1416C25.1902 48.9397 23.9744 48.4851 23.501 47.4301C23.4205 47.2508 23.1513 47.4057 23.2316 47.5841C23.6478 48.5116 24.6304 49.0312 25.5852 49.2959C26.6943 49.6032 27.867 49.6386 29.002 49.4611C31.2707 49.1062 33.2893 47.893 34.8489 46.2745C35.7198 45.3708 36.456 44.3487 37.0783 43.2681C37.177 43.097 36.9075 42.9431 36.8088 43.1144Z" fill="white"/>
<path d="M28.4148 34.323C26.0581 35.2545 23.5486 36.2784 22.0892 38.4298C21.7233 38.9695 21.447 39.5659 21.2893 40.1952C21.2415 40.3858 21.5425 40.4672 21.5903 40.2763C22.1773 37.9331 24.3155 36.4476 26.4318 35.4768C27.1097 35.166 27.8035 34.891 28.4976 34.6169C28.6818 34.5443 28.6012 34.2492 28.4148 34.323Z" fill="white"/>
<path d="M33.5098 31.6266C30.468 32.1602 27.4234 32.6844 24.3919 33.2713C21.6873 33.7952 18.9187 34.441 16.5501 35.878C15.4176 36.5653 14.3638 37.4949 13.9495 38.7698C13.8886 38.9573 14.1899 39.0375 14.2505 38.8509C14.6205 37.7133 15.5534 36.8684 16.5542 36.2366C17.6863 35.5219 18.9428 35.0011 20.2217 34.5943C21.5125 34.1836 22.8382 33.8879 24.1677 33.6253C25.6159 33.3396 27.0696 33.0789 28.5228 32.8176C30.212 32.5136 31.9024 32.2173 33.5929 31.9206C33.7902 31.8861 33.7065 31.5922 33.5098 31.6266Z" fill="white"/>
<path d="M22.5995 45.5653C20.2383 45.1626 17.6933 44.7168 15.8939 43.0361C15.4477 42.6193 15.074 42.14 14.7939 41.6021C14.7027 41.4271 14.4333 41.5814 14.5244 41.7561C15.6272 43.8746 17.984 44.9067 20.239 45.426C20.9921 45.5995 21.7546 45.7297 22.5167 45.8596C22.7131 45.8928 22.7974 45.5992 22.5995 45.5653Z" fill="white"/>
<path d="M30.0467 8.32421C29.3442 8.7895 28.8986 9.53653 28.7469 10.3455C28.6604 10.8065 28.6591 11.2757 28.7203 11.7398C28.7759 12.1621 28.8562 12.6113 29.1244 12.9592C29.2436 13.114 29.515 12.9622 29.3938 12.8052C29.154 12.4942 29.081 12.0975 29.0301 11.7194C28.9723 11.2922 28.9683 10.851 29.0479 10.4263C29.1846 9.69753 29.5674 9.00904 30.2041 8.58704C30.3696 8.47789 30.2138 8.21353 30.0467 8.32421Z" fill="white"/>
<path d="M3.54285 33.8937C3.65182 31.1742 4.60758 28.2178 6.89908 26.5039C8.20048 25.5306 9.81942 25.1037 11.429 24.9507C13.0454 24.7967 14.7134 24.8336 16.318 25.0815C18.094 25.3559 19.826 25.9334 21.286 26.9777C21.4483 27.0939 21.6041 26.8292 21.4437 26.7146C18.7453 24.7842 15.1493 24.3924 11.8977 24.6083C10.2288 24.7192 8.52582 25.0696 7.11202 25.9834C5.9046 26.764 4.98444 27.901 4.36403 29.1703C3.64433 30.6421 3.29587 32.2697 3.23061 33.894C3.22281 34.0901 3.53504 34.0894 3.54285 33.8937Z" fill="white"/>
<path d="M9.91247 50.5092C8.36066 48.1114 7.29219 45.3601 7.19727 42.5034C7.11203 39.9303 7.86077 37.2757 9.50532 35.2377C10.4099 34.1169 11.5767 33.2439 12.8228 32.5131C14.0615 31.7865 15.3838 31.205 16.7454 30.7363C19.5162 29.7826 22.4225 29.2868 25.3226 28.8822C28.4487 28.4462 31.5979 28.1062 34.6709 27.3741C35.0469 27.2845 35.4209 27.1887 35.7937 27.0872C35.987 27.0344 35.9049 26.7402 35.7107 26.7932C32.6027 27.6403 29.3944 28.0263 26.2056 28.4562C23.2075 28.8602 20.1988 29.3136 17.3118 30.2284C15.924 30.668 14.567 31.2135 13.2874 31.9008C11.9973 32.5938 10.7474 33.4253 9.74793 34.4904C7.94102 36.4168 6.99619 39.0137 6.88847 41.604C6.76982 44.4521 7.66281 47.2744 9.0788 49.7414C9.25803 50.0539 9.44662 50.361 9.6427 50.6638C9.75011 50.8284 10.0205 50.6756 9.91247 50.5092Z" fill="white"/>
<path d="M15.4506 27.2375C14.0012 26.6438 12.3638 26.5588 10.8557 26.9893C10.6634 27.0442 10.7452 27.3387 10.9388 27.2832C12.3988 26.8664 13.9656 26.9573 15.3675 27.5314C15.5527 27.6071 15.6332 27.3122 15.4506 27.2375Z" fill="white"/>
<path d="M9.70245 27.6466C9.90322 27.6466 9.90384 27.3417 9.70245 27.3417C9.50168 27.3417 9.50137 27.6466 9.70245 27.6466Z" fill="white"/>
<path d="M20.433 13.3726C19.8164 13.5302 19.4267 14.0531 19.0745 14.5349C18.6695 15.0892 18.3095 15.6759 18.0407 16.3052C17.5149 17.5355 17.3825 18.9396 17.9555 20.1779C18.0382 20.3565 18.3073 20.2017 18.2249 20.0239C17.6985 18.8866 17.8415 17.5767 18.3155 16.4476C18.5521 15.8835 18.8722 15.3539 19.2259 14.8529C19.5529 14.3898 19.9241 13.8181 20.5158 13.6665C20.7103 13.6171 20.6282 13.3229 20.433 13.3726Z" fill="white"/>
<path d="M19.5381 21.7009C19.5602 21.7009 19.5827 21.7009 19.6049 21.7009C19.6264 21.7018 19.6464 21.6972 19.6652 21.6878C19.6845 21.6817 19.7014 21.671 19.7154 21.6564C19.7307 21.6427 19.7413 21.6262 19.7476 21.6073C19.7573 21.589 19.7619 21.5695 19.761 21.5484C19.7591 21.535 19.7573 21.5213 19.7554 21.5079C19.7479 21.482 19.7345 21.4597 19.7151 21.4405C19.7045 21.4326 19.6942 21.4246 19.6836 21.4167C19.6592 21.403 19.633 21.396 19.6049 21.396C19.5827 21.396 19.5602 21.396 19.5381 21.396C19.5165 21.3951 19.4965 21.3996 19.4778 21.4091C19.4585 21.4152 19.4416 21.4259 19.4275 21.4405C19.4122 21.4542 19.4016 21.4707 19.3954 21.4896C19.3857 21.5079 19.381 21.5274 19.382 21.5484C19.3838 21.5619 19.3857 21.5756 19.3876 21.589C19.3951 21.6149 19.4085 21.6372 19.4279 21.6564C19.4385 21.6643 19.4488 21.6722 19.4594 21.6802C19.4837 21.6939 19.51 21.7009 19.5381 21.7009Z" fill="white"/>
<path d="M21.9686 22.79C21.9686 22.7464 21.9686 22.7028 21.9686 22.6592C21.9695 22.6382 21.9649 22.6187 21.9552 22.6004C21.9489 22.5815 21.938 22.565 21.923 22.5513C21.909 22.5363 21.8921 22.526 21.8727 22.5199C21.854 22.5104 21.834 22.5059 21.8125 22.5068C21.7987 22.5086 21.7847 22.5104 21.771 22.5123C21.7444 22.5196 21.7216 22.5327 21.702 22.5516C21.6938 22.562 21.6857 22.572 21.6776 22.5824C21.6636 22.6062 21.6564 22.6318 21.6564 22.6592C21.6564 22.7028 21.6564 22.7464 21.6564 22.79C21.6554 22.8111 21.6601 22.8306 21.6698 22.8489C21.676 22.8678 21.687 22.8842 21.702 22.898C21.716 22.9129 21.7329 22.9233 21.7522 22.9294C21.771 22.9388 21.7909 22.9434 21.8125 22.9425C21.8262 22.9407 21.8403 22.9388 21.854 22.937C21.8806 22.9297 21.9033 22.9166 21.923 22.8977C21.9311 22.8873 21.9393 22.8772 21.9474 22.8669C21.9614 22.8431 21.9686 22.8175 21.9686 22.79Z" fill="white"/>
<path d="M19.8171 13.5903C18.0118 14.2742 16.4878 15.5936 15.5676 17.2578C15.3047 17.7334 15.0933 18.2356 14.936 18.7537C14.8785 18.9421 15.1798 19.0226 15.237 18.8348C15.9154 16.6022 17.6749 14.7276 19.9002 13.8845C20.0854 13.8141 20.0048 13.5193 19.8171 13.5903Z" fill="white"/>
<path d="M15.5908 20.4596C15.613 20.4596 15.6355 20.4596 15.6576 20.4596C15.6792 20.4605 15.6992 20.456 15.7179 20.4465C15.7372 20.4404 15.7541 20.4297 15.7682 20.4151C15.7835 20.4014 15.7941 20.3849 15.8003 20.366C15.81 20.3477 15.8147 20.3282 15.8137 20.3072C15.8119 20.2938 15.81 20.28 15.8081 20.2666C15.8006 20.2407 15.7872 20.2184 15.7678 20.1992C15.7572 20.1913 15.7469 20.1834 15.7363 20.1754C15.712 20.1617 15.6857 20.1547 15.6576 20.1547C15.6355 20.1547 15.613 20.1547 15.5908 20.1547C15.5693 20.1538 15.5493 20.1584 15.5305 20.1678C15.5112 20.1739 15.4943 20.1846 15.4803 20.1992C15.465 20.213 15.4544 20.2294 15.4481 20.2483C15.4384 20.2666 15.4338 20.2861 15.4347 20.3072C15.4366 20.3206 15.4384 20.3343 15.4403 20.3477C15.4478 20.3736 15.4612 20.3959 15.4806 20.4151C15.4912 20.423 15.5015 20.431 15.5121 20.4389C15.5362 20.4526 15.5624 20.4596 15.5908 20.4596Z" fill="white"/>
<path d="M30.0423 14.187C30.2431 14.187 30.2437 13.8821 30.0423 13.8821C29.8415 13.8821 29.8412 14.187 30.0423 14.187Z" fill="white"/>
<path d="M29.1022 9.55575C28.8437 9.36792 28.7628 9.0316 28.7026 8.73919C28.6398 8.43459 28.6108 8.1245 28.6114 7.8141C28.6126 7.20885 28.7313 6.60726 28.9539 6.04257C29.4073 4.89428 30.319 3.97467 31.4577 3.45693C32.1022 3.16391 32.8082 3.01267 33.5182 3.00962C33.719 3.00871 33.7196 2.7038 33.5182 2.70471C32.1528 2.71051 30.8105 3.24868 29.836 4.18414C28.8499 5.13058 28.3023 6.46792 28.2988 7.8141C28.2979 8.18151 28.3388 8.55107 28.4206 8.90964C28.5018 9.26486 28.6376 9.5963 28.9442 9.81919C29.106 9.93627 29.2618 9.67161 29.1022 9.55575Z" fill="white"/>
<path d="M35.2613 3.21024C35.462 3.21024 35.4627 2.90533 35.2613 2.90533C35.0602 2.90533 35.0599 3.21024 35.2613 3.21024Z" fill="white"/>
<path d="M14.1779 40.0867C14.1592 40.0867 14.1408 40.0867 14.1221 40.0867C14.1005 40.0857 14.0805 40.0903 14.0618 40.0998C14.0424 40.1059 14.0256 40.1165 14.0115 40.1312C13.9962 40.1449 13.9856 40.1614 13.9794 40.1803C13.9697 40.1986 13.965 40.2181 13.9659 40.2391C13.9678 40.2525 13.9697 40.2663 13.9716 40.2797C13.979 40.3056 13.9925 40.3278 14.0118 40.3471C14.0224 40.355 14.0328 40.3629 14.0434 40.3708C14.0677 40.3846 14.094 40.3916 14.1221 40.3916C14.1408 40.3916 14.1592 40.3916 14.1779 40.3916C14.1995 40.3925 14.2195 40.3879 14.2382 40.3785C14.2576 40.3724 14.2744 40.3617 14.2885 40.3471C14.3038 40.3333 14.3144 40.3169 14.3206 40.298C14.3303 40.2797 14.335 40.2602 14.3341 40.2391C14.3322 40.2257 14.3303 40.212 14.3284 40.1986C14.3209 40.1726 14.3075 40.1504 14.2882 40.1312C14.2775 40.1233 14.2672 40.1153 14.2566 40.1074C14.2323 40.0937 14.206 40.0867 14.1779 40.0867Z" fill="white"/>
<path d="M21.3967 41.6164C21.378 41.6164 21.3595 41.6164 21.3408 41.6164C21.3193 41.6155 21.2993 41.6201 21.2805 41.6296C21.2612 41.6357 21.2443 41.6463 21.2303 41.661C21.215 41.6747 21.2044 41.6912 21.1981 41.7101C21.1884 41.7284 21.1838 41.7479 21.1847 41.7689C21.1866 41.7823 21.1884 41.796 21.1903 41.8095C21.1978 41.8354 21.2112 41.8576 21.2306 41.8768C21.2412 41.8848 21.2515 41.8927 21.2621 41.9006C21.2865 41.9143 21.3127 41.9214 21.3408 41.9214C21.3595 41.9214 21.378 41.9214 21.3967 41.9214C21.4182 41.9223 21.4382 41.9177 21.457 41.9082C21.4763 41.9021 21.4932 41.8915 21.5072 41.8768C21.5225 41.8631 21.5331 41.8467 21.5394 41.8277C21.5491 41.8095 21.5538 41.7899 21.5528 41.7689C21.5509 41.7555 21.5491 41.7418 21.5472 41.7284C21.5397 41.7024 21.5263 41.6802 21.5069 41.661C21.4963 41.653 21.486 41.6451 21.4754 41.6372C21.4513 41.6235 21.4251 41.6168 21.3967 41.6164Z" fill="white"/>
<path d="M26.2083 40.173C26.4091 40.173 26.4097 39.8681 26.2083 39.8681C26.0075 39.8681 26.0072 40.173 26.2083 40.173Z" fill="white"/>
<path d="M23.0633 46.359C23.0633 46.3407 23.0633 46.3227 23.0633 46.3044C23.0643 46.2834 23.0596 46.2639 23.0499 46.2456C23.0437 46.2267 23.0327 46.2102 23.0177 46.1965C23.0037 46.1815 22.9868 46.1712 22.9675 46.1651C22.9487 46.1556 22.9288 46.1511 22.9072 46.152C22.8935 46.1538 22.8794 46.1556 22.8657 46.1575C22.8391 46.1648 22.8164 46.1779 22.7967 46.1968C22.7886 46.2072 22.7804 46.2172 22.7723 46.2276C22.7583 46.2514 22.7511 46.277 22.7511 46.3044C22.7511 46.3227 22.7511 46.3407 22.7511 46.359C22.7502 46.38 22.7548 46.3996 22.7645 46.4179C22.7708 46.4368 22.7817 46.4532 22.7967 46.4669C22.8107 46.4819 22.8276 46.4922 22.847 46.4983C22.8657 46.5078 22.8857 46.5124 22.9072 46.5115C22.921 46.5096 22.935 46.5078 22.9487 46.506C22.9753 46.4987 22.9981 46.4855 23.0177 46.4666C23.0259 46.4563 23.034 46.4462 23.0421 46.4358C23.0562 46.4121 23.0633 46.3865 23.0633 46.359Z" fill="white"/>
<path d="M37.3994 26.4576C37.4181 26.4576 37.4366 26.4576 37.4553 26.4576C37.4768 26.4585 37.4968 26.4539 37.5155 26.4444C37.5349 26.4383 37.5518 26.4277 37.5658 26.413C37.5811 26.3993 37.5917 26.3829 37.598 26.3639C37.6077 26.3457 37.6123 26.3261 37.6114 26.3051C37.6095 26.2917 37.6077 26.278 37.6058 26.2645C37.5983 26.2386 37.5849 26.2164 37.5655 26.1972C37.5549 26.1892 37.5446 26.1813 37.534 26.1734C37.5096 26.1597 37.4834 26.1526 37.4553 26.1526C37.4366 26.1526 37.4181 26.1526 37.3994 26.1526C37.3779 26.1517 37.3579 26.1563 37.3391 26.1658C37.3198 26.1719 37.3029 26.1825 37.2889 26.1972C37.2736 26.2109 37.263 26.2273 37.2567 26.2463C37.247 26.2645 37.2423 26.2841 37.2433 26.3051C37.2452 26.3185 37.247 26.3322 37.2489 26.3457C37.2564 26.3716 37.2698 26.3938 37.2892 26.413C37.2998 26.421 37.3101 26.4289 37.3207 26.4368C37.3451 26.4505 37.3713 26.4576 37.3994 26.4576Z" fill="white"/>
<path d="M70.88 35.34C70.1867 35.34 69.52 35.2133 68.88 34.96C68.24 34.7067 67.6667 34.3267 67.16 33.82C66.6667 33.3133 66.2733 32.6733 65.98 31.9C65.6867 31.1267 65.54 30.2133 65.54 29.16C65.54 27.9067 65.68 26.6867 65.96 25.5C66.2533 24.3 66.6667 23.16 67.2 22.08C67.7333 21 68.3733 20.0133 69.12 19.12C69.8667 18.2267 70.6867 17.4467 71.58 16.78C72.4867 16.1133 73.46 15.6 74.5 15.24C75.54 14.88 76.62 14.7 77.74 14.7C78.4733 14.7 79.1533 14.8 79.78 15C80.42 15.1867 80.9933 15.4667 81.5 15.84C82.0067 16.2133 82.4467 16.68 82.82 17.24L83.46 15.24C83.5133 15.0667 83.62 14.9333 83.78 14.84C83.9533 14.7467 84.1867 14.7 84.48 14.7C84.76 14.7 84.9667 14.7467 85.1 14.84C85.2333 14.9333 85.2667 15.0867 85.2 15.3L80.28 30.36C80.0933 30.96 79.9667 31.48 79.9 31.92C79.8333 32.36 79.8333 32.72 79.9 33C79.98 33.28 80.1267 33.4933 80.34 33.64C80.5533 33.7733 80.8333 33.84 81.18 33.84C81.4333 33.84 81.6 33.92 81.68 34.08C81.76 34.2267 81.7667 34.4 81.7 34.6C81.6333 34.7867 81.5133 34.9533 81.34 35.1C81.18 35.26 80.9733 35.34 80.72 35.34C80.1733 35.34 79.7 35.2467 79.3 35.06C78.9 34.8733 78.5933 34.6 78.38 34.24C78.18 33.8667 78.0733 33.4067 78.06 32.86C78.06 32.3133 78.16 31.68 78.36 30.96L78.54 30.32C78.0067 31.1067 77.44 31.8133 76.84 32.44C76.2533 33.0533 75.64 33.58 75 34.02C74.3733 34.4467 73.7133 34.7733 73.02 35C72.34 35.2267 71.6267 35.34 70.88 35.34ZM67.38 29.1C67.38 29.9533 67.4933 30.6667 67.72 31.24C67.9467 31.8133 68.2467 32.28 68.62 32.64C69.0067 32.9867 69.42 33.24 69.86 33.4C70.3133 33.56 70.76 33.64 71.2 33.64C71.8667 33.64 72.5267 33.5133 73.18 33.26C73.8467 33.0067 74.4933 32.6267 75.12 32.12C75.76 31.6 76.3867 30.9533 77 30.18C77.6267 29.3933 78.24 28.48 78.84 27.44C79.4533 26.4 80.0467 25.22 80.62 23.9L82.12 19.32C81.7333 18.3333 81.16 17.6 80.4 17.12C79.64 16.64 78.6733 16.4 77.5 16.4C76.5933 16.4 75.7133 16.5667 74.86 16.9C74.02 17.22 73.22 17.68 72.46 18.28C71.7133 18.8667 71.0267 19.56 70.4 20.36C69.7867 21.16 69.2533 22.0333 68.8 22.98C68.3467 23.9267 67.9933 24.92 67.74 25.96C67.5 26.9867 67.38 28.0333 67.38 29.1ZM80.745 35.34C80.5583 35.34 80.425 35.26 80.345 35.1C80.2517 34.9533 80.225 34.7867 80.265 34.6C80.2917 34.4 80.385 34.2267 80.545 34.08C80.705 33.92 80.925 33.84 81.205 33.84C81.5517 33.84 81.905 33.7667 82.265 33.62C82.6117 33.4733 82.9583 33.26 83.305 32.98C83.6517 32.6867 83.9717 32.34 84.265 31.94C84.5583 31.54 84.8183 31.0933 85.045 30.6C85.1117 30.4 85.225 30.3067 85.385 30.32C85.5583 30.32 85.705 30.3867 85.825 30.52C85.9583 30.64 85.9983 30.7933 85.945 30.98C85.705 31.66 85.3983 32.2733 85.025 32.82C84.6517 33.3533 84.2383 33.8067 83.785 34.18C83.3317 34.5533 82.845 34.84 82.325 35.04C81.805 35.24 81.2783 35.34 80.745 35.34ZM87.225 35.34C86.6517 35.34 86.1583 35.2133 85.745 34.96C85.3317 34.6933 85.0117 34.3133 84.785 33.82C84.5717 33.3267 84.465 32.7467 84.465 32.08C84.465 31.4933 84.545 30.86 84.705 30.18C84.8783 29.5 85.1317 28.8333 85.465 28.18C85.8117 27.5267 86.2383 26.9333 86.745 26.4C87.265 25.8533 87.8717 25.42 88.565 25.1C89.2583 24.78 90.045 24.62 90.925 24.62C91.3783 24.62 91.8183 24.6867 92.245 24.82C92.6717 24.9533 93.0783 25.14 93.465 25.38L96.745 15.34C96.8383 15.0733 96.945 14.9 97.065 14.82C97.1983 14.74 97.3917 14.7 97.645 14.7C98.0583 14.7 98.3183 14.7667 98.425 14.9C98.545 15.02 98.5583 15.2133 98.465 15.48L93.025 32.14C92.825 32.78 92.7917 33.2267 92.925 33.48C93.0717 33.72 93.4383 33.84 94.025 33.84C94.185 33.84 94.2983 33.92 94.365 34.08C94.445 34.2267 94.465 34.4 94.425 34.6C94.3983 34.7867 94.3117 34.9533 94.165 35.1C94.0183 35.26 93.8183 35.34 93.565 35.34C93.0983 35.34 92.705 35.28 92.385 35.16C92.0783 35.04 91.8317 34.88 91.645 34.68C91.4717 34.4667 91.345 34.2267 91.265 33.96C91.185 33.6933 91.1517 33.42 91.165 33.14L91.145 32.94C90.6917 33.5533 90.225 34.0333 89.745 34.38C89.265 34.7267 88.805 34.9733 88.365 35.12C87.9383 35.2667 87.5583 35.34 87.225 35.34ZM87.785 33.74C88.2517 33.74 88.7183 33.5933 89.185 33.3C89.6517 32.9933 90.1183 32.5533 90.585 31.98C91.065 31.3933 91.5317 30.7 91.985 29.9L93.025 26.7C92.6383 26.5133 92.2783 26.3867 91.945 26.32C91.6117 26.24 91.2783 26.2 90.945 26.2C90.2783 26.2 89.685 26.3267 89.165 26.58C88.645 26.8333 88.1983 27.1733 87.825 27.6C87.465 28.0267 87.165 28.4933 86.925 29C86.6983 29.5067 86.5317 30.0133 86.425 30.52C86.3183 31.0133 86.265 31.46 86.265 31.86C86.265 32.2733 86.3183 32.62 86.425 32.9C86.545 33.1667 86.7183 33.3733 86.945 33.52C87.185 33.6667 87.465 33.74 87.785 33.74ZM93.5575 35.34C93.3708 35.34 93.2375 35.26 93.1575 35.1C93.0642 34.9533 93.0375 34.7867 93.0775 34.6C93.1042 34.4 93.1975 34.2267 93.3575 34.08C93.5175 33.92 93.7375 33.84 94.0175 33.84C94.4175 33.84 94.8242 33.7533 95.2375 33.58C95.6375 33.4067 96.0442 33.14 96.4575 32.78C96.8708 32.4067 97.2975 31.9467 97.7375 31.4C98.1908 30.8533 98.6508 30.2067 99.1175 29.46C99.2375 29.2867 99.3775 29.2067 99.5375 29.22C99.6975 29.2333 99.8175 29.3067 99.8975 29.44C99.9908 29.56 99.9975 29.7 99.9175 29.86C99.4375 30.7933 98.9442 31.6067 98.4375 32.3C97.9308 32.9933 97.4108 33.5667 96.8775 34.02C96.3575 34.46 95.8242 34.7867 95.2775 35C94.7175 35.2267 94.1442 35.34 93.5575 35.34ZM100.078 35.34C99.5842 35.34 99.1708 35.2533 98.8375 35.08C98.5175 34.9067 98.2775 34.6667 98.1175 34.36C97.9708 34.04 97.8975 33.68 97.8975 33.28C97.8975 32.88 97.9775 32.44 98.1375 31.96L100.298 25.34C100.391 25.0733 100.498 24.9 100.618 24.82C100.751 24.74 100.944 24.7 101.198 24.7C101.611 24.7 101.871 24.7667 101.978 24.9C102.098 25.02 102.111 25.2133 102.018 25.48L99.8575 32.14C99.6308 32.78 99.5775 33.2267 99.6975 33.48C99.8175 33.72 100.098 33.84 100.538 33.84C100.724 33.84 100.858 33.92 100.938 34.08C101.018 34.2267 101.038 34.4 100.998 34.6C100.971 34.7867 100.878 34.9533 100.718 35.1C100.571 35.26 100.358 35.34 100.078 35.34ZM102.438 21.62C102.171 21.62 101.944 21.5333 101.758 21.36C101.571 21.1867 101.478 20.9333 101.478 20.6C101.478 20.24 101.591 19.9 101.818 19.58C102.058 19.26 102.424 19.1 102.918 19.1C103.198 19.1 103.431 19.1867 103.618 19.36C103.804 19.52 103.898 19.7733 103.898 20.12C103.898 20.48 103.778 20.82 103.538 21.14C103.311 21.46 102.944 21.62 102.438 21.62ZM100.101 35.34C99.9547 35.34 99.8614 35.26 99.8214 35.1C99.7814 34.9533 99.7881 34.7867 99.8414 34.6C99.8947 34.4 99.9881 34.2267 100.121 34.08C100.241 33.92 100.381 33.84 100.541 33.84C100.755 33.84 100.995 33.78 101.261 33.66C101.515 33.54 101.788 33.34 102.081 33.06C102.361 32.78 102.661 32.4 102.981 31.92C103.301 31.44 103.628 30.8267 103.961 30.08C104.481 28.92 104.961 27.9867 105.401 27.28C105.841 26.5733 106.255 26.0333 106.641 25.66C107.028 25.2733 107.395 25.0133 107.741 24.88C108.101 24.7467 108.455 24.68 108.801 24.68C108.948 24.68 109.041 24.76 109.081 24.92C109.121 25.0667 109.128 25.24 109.101 25.44C109.075 25.6267 109.015 25.8 108.921 25.96C108.841 26.1067 108.735 26.18 108.601 26.18C108.388 26.18 108.168 26.2533 107.941 26.4C107.728 26.5333 107.495 26.7533 107.241 27.06C106.988 27.3667 106.715 27.78 106.421 28.3C106.128 28.8067 105.801 29.4333 105.441 30.18C104.921 31.2733 104.435 32.16 103.981 32.84C103.541 33.52 103.115 34.0467 102.701 34.42C102.275 34.78 101.855 35.02 101.441 35.14C101.015 35.2733 100.568 35.34 100.101 35.34ZM107.861 35.38C107.221 35.38 106.715 35.2533 106.341 35C105.968 34.76 105.701 34.44 105.541 34.04C105.395 33.64 105.335 33.2 105.361 32.72C105.388 32.2267 105.481 31.7333 105.641 31.24L107.021 27.04C107.115 26.76 107.128 26.5467 107.061 26.4C107.008 26.2533 106.861 26.18 106.621 26.18C106.421 26.18 106.268 26.1067 106.161 25.96C106.068 25.8 106.028 25.6267 106.041 25.44C106.068 25.24 106.141 25.0667 106.261 24.92C106.395 24.76 106.581 24.68 106.821 24.68C107.275 24.68 107.641 24.76 107.921 24.92C108.215 25.0667 108.428 25.28 108.561 25.56C108.695 25.84 108.755 26.16 108.741 26.52C108.741 26.88 108.681 27.2733 108.561 27.7L107.381 31.36C107.275 31.72 107.201 32.0933 107.161 32.48C107.121 32.8533 107.175 33.1667 107.321 33.42C107.481 33.6733 107.808 33.8 108.301 33.8C108.595 33.8 108.901 33.7267 109.221 33.58C109.541 33.4333 109.855 33.22 110.161 32.94C110.481 32.6467 110.781 32.2933 111.061 31.88C111.341 31.4667 111.581 30.9933 111.781 30.46L113.461 25.34C113.541 25.0867 113.641 24.92 113.761 24.84C113.881 24.7467 114.081 24.7 114.361 24.7C114.788 24.7 115.048 24.76 115.141 24.88C115.248 25 115.255 25.1867 115.161 25.44L113.621 30.32C113.488 30.7067 113.368 31.1067 113.261 31.52C113.168 31.92 113.128 32.2933 113.141 32.64C113.155 32.9867 113.248 33.2667 113.421 33.48C113.608 33.68 113.921 33.78 114.361 33.78C114.841 33.78 115.295 33.66 115.721 33.42C116.148 33.1667 116.528 32.8333 116.861 32.42C117.208 32.0067 117.508 31.5467 117.761 31.04C118.015 30.52 118.215 29.9933 118.361 29.46C118.508 28.9133 118.595 28.4 118.621 27.92C118.621 27.7867 118.621 27.6533 118.621 27.52C118.635 27.3867 118.635 27.26 118.621 27.14C118.315 26.9133 118.088 26.6733 117.941 26.42C117.795 26.1667 117.721 25.8867 117.721 25.58C117.721 25.3 117.815 25.0667 118.001 24.88C118.201 24.6933 118.448 24.6 118.741 24.6C118.968 24.6 119.175 24.66 119.361 24.78C119.561 24.9 119.728 25.08 119.861 25.32C120.008 25.56 120.121 25.8733 120.201 26.26C120.281 26.6333 120.321 27.08 120.321 27.6C120.321 28.2 120.228 28.8533 120.041 29.56C119.868 30.2533 119.608 30.9467 119.261 31.64C118.915 32.32 118.488 32.9467 117.981 33.52C117.488 34.08 116.915 34.5333 116.261 34.88C115.608 35.2133 114.888 35.38 114.101 35.38C113.475 35.38 112.968 35.2867 112.581 35.1C112.195 34.9133 111.908 34.66 111.721 34.34C111.535 34.0067 111.421 33.6467 111.381 33.26C111.088 33.7133 110.761 34.1 110.401 34.42C110.041 34.74 109.648 34.98 109.221 35.14C108.795 35.3 108.341 35.38 107.861 35.38ZM121.558 27.28C121.077 27.28 120.657 27.2267 120.297 27.12C119.924 27.0133 119.571 26.8467 119.237 26.62C119.064 26.5133 118.971 26.38 118.957 26.22C118.931 26.06 118.957 25.9067 119.037 25.76C119.117 25.6133 119.224 25.5067 119.357 25.44C119.477 25.3733 119.591 25.38 119.697 25.46C119.924 25.6067 120.211 25.7267 120.557 25.82C120.904 25.9 121.304 25.94 121.758 25.94C122.251 25.94 122.751 25.8933 123.258 25.8C123.778 25.7067 124.258 25.58 124.698 25.42C125.138 25.26 125.478 25.08 125.718 24.88C125.864 24.76 126.011 24.7533 126.158 24.86C126.318 24.9533 126.411 25.0933 126.438 25.28C126.478 25.4667 126.398 25.64 126.198 25.8C125.611 26.28 124.898 26.6467 124.058 26.9C123.231 27.1533 122.398 27.28 121.558 27.28ZM125.097 35.34C124.604 35.34 124.19 35.2533 123.857 35.08C123.537 34.9067 123.297 34.6667 123.137 34.36C122.99 34.04 122.917 33.68 122.917 33.28C122.917 32.88 122.997 32.44 123.157 31.96L125.317 25.34C125.41 25.0733 125.517 24.9 125.637 24.82C125.77 24.74 125.964 24.7 126.217 24.7C126.63 24.7 126.89 24.7667 126.997 24.9C127.117 25.02 127.13 25.2133 127.037 25.48L124.877 32.14C124.65 32.78 124.597 33.2267 124.717 33.48C124.837 33.72 125.117 33.84 125.557 33.84C125.744 33.84 125.877 33.92 125.957 34.08C126.037 34.2267 126.057 34.4 126.017 34.6C125.99 34.7867 125.897 34.9533 125.737 35.1C125.59 35.26 125.377 35.34 125.097 35.34ZM127.457 21.62C127.19 21.62 126.964 21.5333 126.777 21.36C126.59 21.1867 126.497 20.9333 126.497 20.6C126.497 20.24 126.61 19.9 126.837 19.58C127.077 19.26 127.444 19.1 127.937 19.1C128.217 19.1 128.45 19.1867 128.637 19.36C128.824 19.52 128.917 19.7733 128.917 20.12C128.917 20.48 128.797 20.82 128.557 21.14C128.33 21.46 127.964 21.62 127.457 21.62ZM125.081 35.34C124.894 35.34 124.761 35.26 124.681 35.1C124.588 34.9533 124.561 34.7867 124.601 34.6C124.628 34.4 124.721 34.2267 124.881 34.08C125.041 33.92 125.261 33.84 125.541 33.84C125.888 33.84 126.241 33.7667 126.601 33.62C126.948 33.4733 127.294 33.26 127.641 32.98C127.988 32.6867 128.308 32.34 128.601 31.94C128.894 31.54 129.154 31.0933 129.381 30.6C129.448 30.4 129.561 30.3067 129.721 30.32C129.894 30.32 130.041 30.3867 130.161 30.52C130.294 30.64 130.334 30.7933 130.281 30.98C130.041 31.66 129.734 32.2733 129.361 32.82C128.988 33.3533 128.574 33.8067 128.121 34.18C127.668 34.5533 127.181 34.84 126.661 35.04C126.141 35.24 125.614 35.34 125.081 35.34ZM131.561 35.34C130.988 35.34 130.494 35.2133 130.081 34.96C129.668 34.6933 129.348 34.3133 129.121 33.82C128.908 33.3267 128.801 32.7467 128.801 32.08C128.801 31.4933 128.881 30.86 129.041 30.18C129.214 29.5 129.468 28.8333 129.801 28.18C130.148 27.5267 130.574 26.9333 131.081 26.4C131.601 25.8533 132.208 25.42 132.901 25.1C133.594 24.78 134.381 24.62 135.261 24.62C135.714 24.62 136.154 24.6867 136.581 24.82C137.008 24.9533 137.414 25.14 137.801 25.38L141.081 15.34C141.174 15.0733 141.281 14.9 141.401 14.82C141.534 14.74 141.728 14.7 141.981 14.7C142.394 14.7 142.654 14.7667 142.761 14.9C142.881 15.02 142.894 15.2133 142.801 15.48L137.361 32.14C137.161 32.78 137.128 33.2267 137.261 33.48C137.408 33.72 137.774 33.84 138.361 33.84C138.521 33.84 138.634 33.92 138.701 34.08C138.781 34.2267 138.801 34.4 138.761 34.6C138.734 34.7867 138.648 34.9533 138.501 35.1C138.354 35.26 138.154 35.34 137.901 35.34C137.434 35.34 137.041 35.28 136.721 35.16C136.414 35.04 136.168 34.88 135.981 34.68C135.808 34.4667 135.681 34.2267 135.601 33.96C135.521 33.6933 135.488 33.42 135.501 33.14L135.481 32.94C135.028 33.5533 134.561 34.0333 134.081 34.38C133.601 34.7267 133.141 34.9733 132.701 35.12C132.274 35.2667 131.894 35.34 131.561 35.34ZM132.121 33.74C132.588 33.74 133.054 33.5933 133.521 33.3C133.988 32.9933 134.454 32.5533 134.921 31.98C135.401 31.3933 135.868 30.7 136.321 29.9L137.361 26.7C136.974 26.5133 136.614 26.3867 136.281 26.32C135.948 26.24 135.614 26.2 135.281 26.2C134.614 26.2 134.021 26.3267 133.501 26.58C132.981 26.8333 132.534 27.1733 132.161 27.6C131.801 28.0267 131.501 28.4933 131.261 29C131.034 29.5067 130.868 30.0133 130.761 30.52C130.654 31.0133 130.601 31.46 130.601 31.86C130.601 32.2733 130.654 32.62 130.761 32.9C130.881 33.1667 131.054 33.3733 131.281 33.52C131.521 33.6667 131.801 33.74 132.121 33.74ZM137.893 35.34C137.707 35.34 137.573 35.26 137.493 35.1C137.4 34.9533 137.373 34.7867 137.413 34.6C137.44 34.4 137.533 34.2267 137.693 34.08C137.853 33.92 138.073 33.84 138.353 33.84C138.753 33.84 139.16 33.7533 139.573 33.58C139.973 33.4067 140.38 33.14 140.793 32.78C141.207 32.4067 141.633 31.9467 142.073 31.4C142.527 30.8533 142.987 30.2067 143.453 29.46C143.573 29.2867 143.713 29.2067 143.873 29.22C144.033 29.2333 144.153 29.3067 144.233 29.44C144.327 29.56 144.333 29.7 144.253 29.86C143.773 30.7933 143.28 31.6067 142.773 32.3C142.267 32.9933 141.747 33.5667 141.213 34.02C140.693 34.46 140.16 34.7867 139.613 35C139.053 35.2267 138.48 35.34 137.893 35.34ZM144.413 35.34C143.92 35.34 143.507 35.2533 143.173 35.08C142.853 34.9067 142.613 34.6667 142.453 34.36C142.307 34.04 142.233 33.68 142.233 33.28C142.233 32.88 142.313 32.44 142.473 31.96L144.633 25.34C144.727 25.0733 144.833 24.9 144.953 24.82C145.087 24.74 145.28 24.7 145.533 24.7C145.947 24.7 146.207 24.7667 146.313 24.9C146.433 25.02 146.447 25.2133 146.353 25.48L144.193 32.14C143.967 32.78 143.913 33.2267 144.033 33.48C144.153 33.72 144.433 33.84 144.873 33.84C145.06 33.84 145.193 33.92 145.273 34.08C145.353 34.2267 145.373 34.4 145.333 34.6C145.307 34.7867 145.213 34.9533 145.053 35.1C144.907 35.26 144.693 35.34 144.413 35.34ZM146.773 21.62C146.507 21.62 146.28 21.5333 146.093 21.36C145.907 21.1867 145.813 20.9333 145.813 20.6C145.813 20.24 145.927 19.9 146.153 19.58C146.393 19.26 146.76 19.1 147.253 19.1C147.533 19.1 147.767 19.1867 147.953 19.36C148.14 19.52 148.233 19.7733 148.233 20.12C148.233 20.48 148.113 20.82 147.873 21.14C147.647 21.46 147.28 21.62 146.773 21.62ZM144.397 35.34C144.211 35.34 144.077 35.26 143.997 35.1C143.904 34.9533 143.877 34.7867 143.917 34.6C143.944 34.4 144.037 34.2267 144.197 34.08C144.357 33.92 144.577 33.84 144.857 33.84C145.204 33.84 145.557 33.7667 145.917 33.62C146.264 33.4733 146.611 33.26 146.957 32.98C147.304 32.6867 147.624 32.34 147.917 31.94C148.211 31.54 148.471 31.0933 148.697 30.6C148.764 30.4 148.877 30.3067 149.037 30.32C149.211 30.32 149.357 30.3867 149.477 30.52C149.611 30.64 149.651 30.7933 149.597 30.98C149.357 31.66 149.051 32.2733 148.677 32.82C148.304 33.3533 147.891 33.8067 147.437 34.18C146.984 34.5533 146.497 34.84 145.977 35.04C145.457 35.24 144.931 35.34 144.397 35.34ZM151.137 35.34C150.564 35.34 150.071 35.2133 149.657 34.96C149.244 34.6933 148.924 34.3133 148.697 33.82C148.484 33.3267 148.377 32.7467 148.377 32.08C148.377 31.4933 148.457 30.86 148.617 30.18C148.791 29.5 149.044 28.8333 149.377 28.18C149.724 27.5267 150.151 26.9333 150.657 26.4C151.177 25.8533 151.784 25.42 152.477 25.1C153.171 24.78 153.957 24.62 154.837 24.62C155.277 24.62 155.711 24.6867 156.137 24.82C156.564 24.9533 156.964 25.1333 157.337 25.36L157.357 25.28C157.451 25.04 157.557 24.8867 157.677 24.82C157.811 24.74 157.997 24.7 158.237 24.7C158.664 24.7 158.931 24.7667 159.037 24.9C159.144 25.02 159.157 25.2133 159.077 25.48L156.697 32.7C156.644 32.8733 156.604 33.0467 156.577 33.22C156.551 33.3933 156.571 33.54 156.637 33.66C156.704 33.7667 156.837 33.82 157.037 33.82C157.211 33.82 157.377 33.7733 157.537 33.68C157.697 33.5867 157.844 33.4667 157.977 33.32C158.124 33.16 158.251 33.0067 158.357 32.86C158.437 32.74 158.544 32.66 158.677 32.62C158.824 32.58 158.997 32.6267 159.197 32.76C159.411 32.8933 159.524 33.0333 159.537 33.18C159.551 33.3133 159.517 33.4533 159.437 33.6C159.317 33.8267 159.131 34.08 158.877 34.36C158.637 34.6267 158.344 34.8533 157.997 35.04C157.651 35.2267 157.257 35.32 156.817 35.32C156.404 35.32 156.071 35.26 155.817 35.14C155.564 35.02 155.371 34.86 155.237 34.66C155.117 34.46 155.037 34.2333 154.997 33.98C154.957 33.7267 154.951 33.4667 154.977 33.2C154.977 33.16 154.977 33.1267 154.977 33.1C154.977 33.06 154.984 33.0267 154.997 33C154.531 33.5867 154.064 34.0533 153.597 34.4C153.131 34.7467 152.684 34.9867 152.257 35.12C151.844 35.2667 151.471 35.34 151.137 35.34ZM150.177 31.86C150.177 32.2733 150.231 32.62 150.337 32.9C150.457 33.1667 150.631 33.3733 150.857 33.52C151.097 33.6667 151.377 33.74 151.697 33.74C152.151 33.74 152.611 33.5933 153.077 33.3C153.544 32.9933 154.011 32.5533 154.477 31.98C154.944 31.4067 155.397 30.7267 155.837 29.94L156.897 26.7C156.537 26.5 156.191 26.3667 155.857 26.3C155.524 26.2333 155.191 26.2 154.857 26.2C154.191 26.2 153.597 26.3267 153.077 26.58C152.557 26.8333 152.111 27.1733 151.737 27.6C151.377 28.0267 151.077 28.4933 150.837 29C150.611 29.5067 150.444 30.0133 150.337 30.52C150.231 31.0133 150.177 31.46 150.177 31.86Z" fill="#C79023"/>
</svg>
