<svg width="20" height="20" viewBox="0 0 20 20" fill="none" xmlns="http://www.w3.org/2000/svg">
<g clip-path="url(#clip0_327_1653)">
<path d="M9.98746 -0.012177C10.044 -0.0120897 10.044 -0.0120897 10.1018 -0.0120006C10.661 -0.0104503 11.2074 0.00820407 11.7575 0.117218C11.7874 0.122863 11.8174 0.128509 11.8483 0.134326C12.0543 0.173805 12.2574 0.221587 12.4606 0.273468C12.4913 0.281046 12.5219 0.288624 12.5535 0.296432C13.9005 0.634051 15.1736 1.27086 16.2497 2.14847C16.2876 2.17848 16.3256 2.20849 16.3647 2.23941C16.6526 2.47351 16.9167 2.72933 17.1798 2.99075C17.2316 3.04199 17.2316 3.04199 17.2844 3.09425C17.5033 3.3142 17.7022 3.54236 17.8903 3.78909C17.9117 3.81701 17.9331 3.84493 17.9552 3.87369C18.3623 4.41097 18.7016 4.97905 19.0085 5.57864C19.0214 5.60363 19.0343 5.62861 19.0476 5.65435C19.1873 5.93506 19.199 6.15263 19.1012 6.44534C18.9873 6.65364 18.8576 6.78798 18.6398 6.8848C18.3672 6.94895 18.1764 6.92958 17.9294 6.7969C17.6736 6.62797 17.5717 6.39167 17.4362 6.12308C17.2138 5.69634 16.9737 5.30232 16.6794 4.9219C16.6494 4.88298 16.6194 4.84406 16.5886 4.80395C16.1031 4.19472 15.5519 3.66124 14.9215 3.20315C14.9 3.18746 14.8785 3.17176 14.8564 3.15559C14.1745 2.66445 13.4122 2.29731 12.6169 2.03128C12.5844 2.02032 12.5519 2.00935 12.5184 1.99805C10.4116 1.30261 8.10419 1.5671 6.14034 2.55205C5.74755 2.75319 5.38695 2.97186 5.03873 3.24222C4.99337 3.27612 4.94795 3.30995 4.90247 3.34369C4.69587 3.49808 4.49794 3.65435 4.3202 3.84219C4.25073 3.91318 4.17705 3.97644 4.10123 4.04056C3.94151 4.17882 3.8064 4.32999 3.67155 4.49222C3.64556 4.52258 3.61958 4.55294 3.59281 4.58423C3.49958 4.69506 3.40906 4.80773 3.31998 4.9219C3.30261 4.94407 3.28524 4.96623 3.26734 4.98906C2.49469 5.98958 2.01831 7.16983 1.75748 8.39847C1.75048 8.43019 1.74347 8.46191 1.73625 8.4946C1.3065 10.5226 1.81996 12.7604 2.9041 14.4989C3.0098 14.6584 3.12452 14.8098 3.24186 14.961C3.27576 15.0063 3.30959 15.0517 3.34333 15.0972C3.49773 15.3038 3.65399 15.5018 3.84183 15.6795C3.91282 15.749 3.97608 15.8226 4.0402 15.8985C4.17846 16.0582 4.32963 16.1933 4.49186 16.3282C4.52222 16.3541 4.55258 16.3801 4.58387 16.4069C4.6947 16.5001 4.80737 16.5906 4.92155 16.6797C4.94371 16.6971 4.96587 16.7145 4.9887 16.7324C6.37309 17.8015 8.10965 18.3582 9.8483 18.3765C9.89927 18.3774 9.95023 18.3782 10.0027 18.3791C10.3988 18.3782 10.784 18.3131 11.0934 18.0469C11.4284 17.632 11.4473 17.1923 11.4059 16.6797C11.3465 16.3349 11.1642 16.0574 10.9833 15.765C10.5066 14.9896 10.4043 14.001 10.6051 13.1177C10.821 12.2902 11.3594 11.5734 12.0874 11.1331C12.8993 10.6628 13.9804 10.5442 14.8865 10.782C15.2103 10.8786 15.5161 11.0259 15.82 11.1719C15.9126 11.2161 16.0054 11.26 16.0983 11.3037C16.1355 11.3218 16.1726 11.3398 16.2109 11.3584C16.6326 11.5312 17.2151 11.5812 17.6486 11.4209C17.7351 11.3788 17.7351 11.3788 17.8122 11.3282C17.8375 11.312 17.8629 11.2959 17.8891 11.2793C18.1643 11.0741 18.279 10.7531 18.359 10.4297C18.3742 10.3202 18.3835 10.2103 18.3932 10.1001C18.448 9.58427 18.448 9.58427 18.6603 9.39288C18.9099 9.20483 19.1459 9.19152 19.4528 9.21878C19.6735 9.27865 19.8011 9.39411 19.9251 9.5827C20.1435 9.98675 20.0105 10.657 19.8979 11.0808C19.7707 11.5029 19.5534 11.8998 19.2575 12.2266C19.2348 12.2528 19.2122 12.2791 19.1888 12.3061C18.7583 12.7735 18.0929 13.0879 17.4579 13.1337C16.61 13.1628 15.9544 13.0594 15.195 12.6953C15.1161 12.6576 15.0372 12.6199 14.9582 12.5825C14.8872 12.5487 14.8165 12.5142 14.7458 12.4797C14.2978 12.2902 13.6933 12.2488 13.2297 12.4097C13.1338 12.4514 13.1338 12.4514 13.0465 12.5C13.003 12.5233 13.003 12.5233 12.9585 12.547C12.5885 12.7623 12.3391 13.0921 12.2105 13.498C12.0449 14.1778 12.2892 14.7152 12.6137 15.2936C13.0526 16.0809 13.2084 17.0295 12.988 17.9175C12.7431 18.7308 12.2817 19.3165 11.5353 19.7217C10.5487 20.1748 9.28712 20.0769 8.24186 19.8828C8.20637 19.8766 8.17087 19.8703 8.1343 19.8638C6.23304 19.5193 4.47467 18.6035 3.08561 17.2657C3.05985 17.241 3.0341 17.2163 3.00756 17.1908C2.63692 16.8336 2.29552 16.4704 1.99186 16.0547C1.95834 16.0098 1.92482 15.9648 1.8913 15.9198C1.65546 15.5999 1.4452 15.2678 1.24967 14.9219C1.23396 14.8943 1.21825 14.8667 1.20206 14.8382C0.693606 13.9351 0.352462 12.9527 0.143714 11.9385C0.135079 11.8969 0.135079 11.8969 0.126271 11.8544C0.0096144 11.2434 -0.0149703 10.6326 -0.0125364 10.0122C-0.0124652 9.97445 -0.012394 9.93666 -0.0123206 9.89773C-0.0105461 9.33785 0.00933235 8.79309 0.116858 8.24222C0.12629 8.18966 0.12629 8.18966 0.135913 8.13604C0.480053 6.23417 1.39581 4.47542 2.73405 3.08597C2.75874 3.06021 2.78343 3.03446 2.80887 3.00792C3.16608 2.63728 3.52925 2.29588 3.94498 1.99222C3.98995 1.9587 4.03491 1.92518 4.07987 1.89166C4.39978 1.65582 4.73191 1.44555 5.0778 1.25003C5.10542 1.23432 5.13305 1.21861 5.16151 1.20242C6.06462 0.693965 7.047 0.352821 8.06119 0.144073C8.10283 0.135439 8.10283 0.135439 8.1453 0.12663C8.75634 0.00997051 9.36711 -0.0145522 9.98746 -0.012177Z" fill="#171717"/>
<path d="M6.43278 13.0567C6.48982 13.0911 6.54614 13.1267 6.60123 13.1641C6.65441 13.1967 6.65441 13.1967 6.70866 13.23C6.98689 13.516 7.08231 13.8197 7.08528 14.2083C7.08068 14.4575 7.01525 14.6368 6.87467 14.8438C6.85292 14.8793 6.83117 14.9147 6.80875 14.9512C6.52279 15.2295 6.21907 15.3249 5.83047 15.3279C5.58129 15.3232 5.40196 15.2578 5.19498 15.1172C5.15954 15.0955 5.12409 15.0737 5.08756 15.0513C4.80933 14.7654 4.71391 14.4616 4.71094 14.073C4.71554 13.8239 4.78097 13.6445 4.92155 13.4376C4.9433 13.4021 4.96505 13.3667 4.98746 13.3301C5.36204 12.9657 5.95047 12.8192 6.43278 13.0567Z" fill="#171717"/>
<path d="M4.83121 9.18951C4.88825 9.22389 4.94458 9.25951 4.99967 9.29693C5.05285 9.32956 5.05285 9.32956 5.10709 9.36285C5.38533 9.64881 5.48074 9.95253 5.48372 10.3411C5.47911 10.5903 5.41369 10.7696 5.27311 10.9766C5.25136 11.0121 5.2296 11.0475 5.20719 11.084C4.92123 11.3623 4.61751 11.4577 4.2289 11.4607C3.97973 11.4561 3.8004 11.3906 3.59342 11.2501C3.55797 11.2283 3.52252 11.2066 3.486 11.1841C3.20777 10.8982 3.11235 10.5945 3.10938 10.2059C3.11398 9.95668 3.1794 9.77735 3.31998 9.57037C3.34174 9.53492 3.36349 9.49947 3.3859 9.46295C3.76048 9.0985 4.34891 8.952 4.83121 9.18951Z" fill="#171717"/>
<path d="M6.31559 5.08795C6.37263 5.12232 6.42896 5.15795 6.48405 5.19537C6.53722 5.228 6.53722 5.228 6.59147 5.26129C6.8697 5.54725 6.96512 5.85097 6.96809 6.23958C6.96349 6.48875 6.89807 6.66808 6.75748 6.87506C6.73573 6.91051 6.71398 6.94596 6.69157 6.98248C6.40561 7.26071 6.10188 7.35613 5.71328 7.3591C5.46411 7.3545 5.28478 7.28908 5.0778 7.14849C5.04235 7.12674 5.0069 7.10499 4.97038 7.08258C4.69214 6.79662 4.59672 6.49289 4.59375 6.10429C4.59835 5.85512 4.66378 5.67579 4.80436 5.46881C4.82611 5.43336 4.84787 5.39791 4.87028 5.36138C5.24485 4.99694 5.83329 4.85044 6.31559 5.08795Z" fill="#171717"/>
<path d="M14.4797 4.81451C14.5367 4.84889 14.593 4.88451 14.6481 4.92193C14.7013 4.95456 14.7013 4.95456 14.7555 4.98785C15.0338 5.27381 15.1292 5.57753 15.1322 5.96614C15.1276 6.21531 15.0621 6.39464 14.9215 6.60162C14.8998 6.63707 14.878 6.67252 14.8556 6.70904C14.5697 6.98727 14.2659 7.08269 13.8773 7.08567C13.6282 7.08106 13.4488 7.01564 13.2419 6.87506C13.2064 6.8533 13.171 6.83155 13.1344 6.80914C12.8562 6.52318 12.7608 6.21946 12.7578 5.83085C12.7624 5.58168 12.8278 5.40235 12.9684 5.19537C12.9902 5.15992 13.0119 5.12447 13.0343 5.08795C13.4089 4.7235 13.9973 4.577 14.4797 4.81451Z" fill="#171717"/>
<path d="M10.4562 3.21295C10.5133 3.24732 10.5696 3.28295 10.6247 3.32037C10.6778 3.353 10.6778 3.353 10.7321 3.38629C11.0103 3.67225 11.1057 3.97597 11.1087 4.36458C11.1041 4.61375 11.0387 4.79308 10.8981 5.00006C10.8764 5.03551 10.8546 5.07096 10.8322 5.10748C10.5462 5.38571 10.2425 5.48113 9.8539 5.4841C9.60473 5.4795 9.4254 5.41408 9.21842 5.27349C9.18297 5.25174 9.14752 5.22999 9.111 5.20758C8.83277 4.92162 8.73735 4.61789 8.73438 4.22929C8.73898 3.98012 8.8044 3.80079 8.94498 3.59381C8.96674 3.55836 8.98849 3.52291 9.0109 3.48638C9.38548 3.12194 9.97391 2.97544 10.4562 3.21295Z" fill="#171717"/>
</g>
<defs>
<clipPath id="clip0_327_1653">
<rect width="20" height="20" fill="white"/>
</clipPath>
</defs>
</svg>
