<svg width="20" height="20" viewBox="0 0 20 20" fill="none" xmlns="http://www.w3.org/2000/svg">
<g clip-path="url(#clip0_327_1732)">
<path opacity="0.987" fill-rule="evenodd" clip-rule="evenodd" d="M2.44141 -0.0195312C5.77473 -0.0195312 9.10809 -0.0195312 12.4414 -0.0195312C12.9125 0.327219 12.9971 0.756906 12.6953 1.26953C12.5911 1.3736 12.4673 1.44522 12.3242 1.48438C9.16156 1.53591 5.9975 1.56195 2.83203 1.5625C2.06646 1.77161 1.6563 2.27291 1.60156 3.06641C1.57552 7.64973 1.57552 12.2331 1.60156 16.8164C1.69922 17.7474 2.21354 18.2617 3.14453 18.3594C7.72785 18.3854 12.3112 18.3854 16.8945 18.3594C17.688 18.3046 18.1893 17.8945 18.3984 17.1289C18.3991 14.7056 18.4252 12.2838 18.4766 9.86328C18.6012 9.50441 18.8552 9.32215 19.2383 9.31641C19.5733 9.31371 19.8207 9.45695 19.9805 9.74609C19.9805 12.3372 19.9805 14.9284 19.9805 17.5195C19.5896 18.8412 18.7172 19.642 17.3633 19.9219C12.4675 19.9479 7.5716 19.9479 2.67578 19.9219C1.52403 19.7268 0.71023 19.0952 0.234375 18.0273C0.138709 17.7879 0.0736047 17.5405 0.0390625 17.2852C0.0130208 12.3893 0.0130208 7.49348 0.0390625 2.59766C0.318932 1.2437 1.11971 0.3713 2.44141 -0.0195312Z" fill="#171717"/>
<path opacity="0.968" fill-rule="evenodd" clip-rule="evenodd" d="M15.2931 -0.0195312C15.5274 -0.0195312 15.7618 -0.0195312 15.9962 -0.0195312C17.1906 1.11622 18.369 2.27507 19.5313 3.45703C19.7243 3.73873 19.874 4.0382 19.9806 4.35547C19.9806 4.74609 19.9806 5.13672 19.9806 5.52734C19.874 5.84461 19.7243 6.14406 19.5313 6.42578C18.4311 7.52605 17.3308 8.62629 16.2306 9.72656C15.8283 10.018 15.4312 10.0115 15.0392 9.70703C14.7708 9.33801 14.7708 8.97344 15.0392 8.61328C16.0993 7.54965 17.1671 6.49496 18.2423 5.44922C18.4767 5.11066 18.4767 4.77215 18.2423 4.43359C17.1464 3.33773 16.0527 2.24398 14.961 1.15234C14.7443 0.668863 14.855 0.278239 15.2931 -0.0195312Z" fill="#171717"/>
<path opacity="0.971" fill-rule="evenodd" clip-rule="evenodd" d="M14.9028 4.12108C15.2676 4.1146 15.6322 4.12108 15.9966 4.14061C16.4984 4.35581 16.6612 4.7269 16.4848 5.2539C16.3414 5.52686 16.1135 5.67659 15.8012 5.70311C12.6321 5.78015 10.1387 7.10179 8.32077 9.66796C7.18515 11.4366 6.66429 13.3767 6.75827 15.4883C6.58065 15.945 6.24862 16.1208 5.76218 16.0156C5.48222 15.944 5.30643 15.7682 5.23483 15.4883C5.04968 11.4776 6.56659 8.29405 9.78561 5.93749C11.3399 4.90077 13.0457 4.2953 14.9028 4.12108Z" fill="#171717"/>
</g>
<defs>
<clipPath id="clip0_327_1732">
<rect width="20" height="20" fill="white"/>
</clipPath>
</defs>
</svg>
