<svg width="20" height="20" viewBox="0 0 20 20" fill="none" xmlns="http://www.w3.org/2000/svg">
<g clip-path="url(#clip0_327_2274)">
<path d="M11.7965 0.117153C11.8346 0.124914 11.8727 0.132675 11.9119 0.140671C13.3541 0.442357 14.7072 1.0027 15.8981 1.87497C15.9317 1.89934 15.9317 1.89934 15.9659 1.92421C16.2807 2.15418 16.5709 2.4058 16.8522 2.67548C16.8932 2.71473 16.9344 2.75376 16.9758 2.79259C17.0353 2.84841 17.0942 2.9048 17.153 2.96139C17.2039 3.01011 17.2039 3.01011 17.2558 3.05981C17.4286 3.26544 17.4836 3.46854 17.474 3.73089C17.4372 3.99742 17.3003 4.16445 17.0967 4.33087C16.8971 4.46465 16.6347 4.43666 16.4059 4.41403C16.1667 4.33623 16.0014 4.1325 15.8306 3.95676C15.6451 3.76638 15.4432 3.60135 15.234 3.43747C15.175 3.38981 15.175 3.38981 15.1147 3.34118C14.8066 3.09504 14.4833 2.8892 14.1403 2.69528C14.117 2.68189 14.0938 2.6685 14.0698 2.65471C12.1768 1.56919 9.85403 1.34567 7.76088 1.90426C6.73906 2.19251 5.76072 2.66873 4.92152 3.32028C4.8821 3.35074 4.84267 3.38121 4.80205 3.41259C3.06371 4.8008 1.92776 6.80874 1.66072 9.02294C1.57184 9.83952 1.59711 10.6642 1.60121 11.4843C1.64929 11.4718 1.69737 11.4593 1.7469 11.4464C1.85931 11.4183 1.96673 11.3959 2.08263 11.3884C2.1107 11.386 2.13877 11.3836 2.16769 11.3811C2.22503 11.3767 2.28241 11.3727 2.33981 11.3692C2.49061 11.3555 2.56356 11.3388 2.68733 11.2452C2.78254 11.1204 2.84685 10.9932 2.90736 10.8496C3.15843 10.2869 3.49145 9.87455 4.06215 9.60934C4.33675 9.50746 4.58851 9.4735 4.88017 9.47247C4.91954 9.47208 4.9589 9.47169 4.99946 9.47129C5.08208 9.4707 5.1647 9.47042 5.24733 9.47044C5.37302 9.47018 5.49859 9.46805 5.62427 9.46583C5.70501 9.46549 5.78576 9.46525 5.8665 9.46514C5.90362 9.4643 5.94074 9.46346 5.97898 9.46259C6.24824 9.46533 6.44669 9.53369 6.64027 9.72653C6.79756 9.95202 6.81912 10.1196 6.81689 10.3908C6.81734 10.449 6.81734 10.449 6.8178 10.5083C6.8186 10.6378 6.81829 10.7673 6.81798 10.8968C6.81832 10.9898 6.81873 11.0828 6.81919 11.1757C6.82013 11.4019 6.82033 11.6281 6.82014 11.8543C6.82 12.0382 6.82014 12.2221 6.82047 12.406C6.82052 12.4322 6.82057 12.4584 6.82062 12.4854C6.82071 12.5386 6.8208 12.5919 6.8209 12.6451C6.82175 13.1441 6.82158 13.6431 6.8211 14.1421C6.8207 14.5981 6.82158 15.0542 6.82307 15.5103C6.82458 15.979 6.82522 16.4477 6.82493 16.9165C6.82478 17.1795 6.82497 17.4424 6.82608 17.7054C6.82706 17.9528 6.82691 18.2001 6.82589 18.4474C6.82571 18.5381 6.82592 18.6288 6.82657 18.7195C6.82738 18.8435 6.82675 18.9674 6.82576 19.0914C6.82634 19.1271 6.82691 19.1628 6.82751 19.1996C6.82302 19.4671 6.7367 19.6417 6.56215 19.8437C6.35921 20.0174 6.15438 20.023 5.89534 20.0207C5.85791 20.0209 5.82049 20.021 5.78193 20.0212C5.70294 20.0213 5.62395 20.021 5.54496 20.0203C5.42562 20.0195 5.30637 20.0203 5.18703 20.0213C4.48259 20.0224 3.95053 19.9004 3.41029 19.4165C3.14796 19.1405 2.99888 18.7791 2.86464 18.4272C2.85448 18.4007 2.84431 18.3741 2.83384 18.3467C2.80642 18.2733 2.78032 18.1994 2.75432 18.1254C2.68351 17.9851 2.64459 17.9493 2.49965 17.8906C2.3816 17.8648 2.26304 17.8494 2.1432 17.8344C1.47332 17.7382 0.911392 17.4815 0.468399 16.9531C0.182598 16.5515 -0.00971539 16.1058 -0.0105342 15.6088C-0.0107584 15.5677 -0.0107586 15.5678 -0.0109872 15.5258C-0.0113871 15.435 -0.0112359 15.3441 -0.0110802 15.2533C-0.0112502 15.1877 -0.0114522 15.1221 -0.0116846 15.0566C-0.0122065 14.879 -0.0122306 14.7014 -0.0121316 14.5238C-0.0120897 14.3749 -0.0122811 14.2259 -0.0124678 14.077C-0.012901 13.7247 -0.0129188 13.3725 -0.0126824 13.0202C-0.0124475 12.6591 -0.0129242 12.2979 -0.0137589 11.9367C-0.014452 11.6251 -0.0146815 11.3135 -0.0145552 11.0019C-0.014485 10.8165 -0.0145804 10.6311 -0.0151298 10.4457C-0.0171766 9.69093 -0.0191432 8.94858 0.116836 8.20309C0.130397 8.12735 0.130397 8.12735 0.144233 8.05009C0.166346 7.93334 0.191701 7.81814 0.219375 7.7026C0.229317 7.6608 0.239259 7.61901 0.249502 7.57594C0.662746 5.90404 1.49275 4.36048 2.69496 3.12497C2.72201 3.09691 2.74907 3.06885 2.77694 3.03994C3.15737 2.64667 3.53821 2.27147 3.98402 1.95309C4.00821 1.93561 4.03239 1.91813 4.0573 1.90012C5.30085 1.00603 6.69455 0.394719 8.20277 0.117153C8.23405 0.110871 8.26533 0.10459 8.29755 0.0981176C9.39114 -0.115793 10.706 -0.111249 11.7965 0.117153ZM4.60902 11.1328C4.47531 11.276 4.39812 11.4336 4.32094 11.6113C4.05668 12.1954 3.71289 12.611 3.10039 12.8529C2.90906 12.9109 2.72032 12.9363 2.52215 12.9553C2.12319 12.989 2.12319 12.989 1.79652 13.2031C1.56158 13.4916 1.55603 13.7788 1.55559 14.1378C1.55546 14.1749 1.55533 14.212 1.55519 14.2502C1.555 14.3284 1.5549 14.4066 1.55491 14.4848C1.55482 14.6038 1.55411 14.7228 1.55337 14.8417C1.55326 14.918 1.55318 14.9942 1.55315 15.0705C1.55287 15.1057 1.55259 15.141 1.5523 15.1773C1.55341 15.4897 1.5877 15.7683 1.79652 16.0156C2.02024 16.1971 2.22794 16.2434 2.50941 16.2695C3.13014 16.3436 3.58111 16.5686 3.99028 17.0483C4.1567 17.2801 4.25693 17.5472 4.35481 17.8135C4.36468 17.8398 4.37454 17.866 4.3847 17.8931C4.41227 17.9673 4.43866 18.0419 4.46498 18.1166C4.55229 18.2829 4.66579 18.3586 4.83852 18.4277C4.96949 18.4431 5.10215 18.4375 5.23402 18.4375C5.23402 16.0011 5.23402 13.5648 5.23402 11.0547C4.90539 11.0477 4.90539 11.0477 4.60902 11.1328Z" fill="white"/>
<path d="M19.0403 6.09617C19.7224 6.61196 19.833 7.84164 19.9479 8.62796C20.0321 9.27203 20.0226 9.91978 20.0207 10.5682C20.0203 10.7542 20.0207 10.9402 20.0209 11.1261C20.0212 11.4375 20.0209 11.7488 20.0201 12.0601C20.0192 12.4186 20.0195 12.7772 20.0204 13.1357C20.0211 13.446 20.0212 13.7563 20.0208 14.0665C20.0205 14.2508 20.0205 14.4351 20.021 14.6194C20.0215 14.7922 20.0212 14.965 20.0203 15.1378C20.0201 15.2008 20.0201 15.2637 20.0205 15.3267C20.024 16.0287 19.8404 16.6207 19.3489 17.1374C18.8558 17.6183 18.3037 17.7946 17.636 17.8648C17.4875 17.8929 17.4167 17.9065 17.3044 18.0078C17.2343 18.1407 17.1829 18.2795 17.1311 18.4204C16.897 19.0455 16.5933 19.5411 15.9763 19.8437C15.5597 20.0255 15.1458 20.0266 14.6985 20.0246C14.5795 20.0244 14.4606 20.0262 14.3416 20.0282C14.265 20.0284 14.1883 20.0284 14.1117 20.0284C14.0766 20.0291 14.0416 20.0298 14.0055 20.0305C13.7428 20.0267 13.5482 19.9521 13.3591 19.7656C13.2018 19.5402 13.1803 19.3725 13.1825 19.1013C13.1822 19.0625 13.1819 19.0238 13.1816 18.9839C13.1808 18.8544 13.1811 18.7249 13.1814 18.5954C13.1811 18.5024 13.1807 18.4094 13.1802 18.3164C13.1793 18.0902 13.1791 17.8641 13.1792 17.6379C13.1794 17.454 13.1792 17.2701 13.1789 17.0862C13.1789 17.06 13.1788 17.0337 13.1788 17.0067C13.1787 16.9535 13.1786 16.9003 13.1785 16.847C13.1776 16.348 13.1778 15.8491 13.1783 15.3501C13.1787 14.894 13.1778 14.438 13.1763 13.9819C13.1748 13.5131 13.1742 13.0444 13.1744 12.5757C13.1746 12.3127 13.1744 12.0497 13.1733 11.7867C13.1723 11.5394 13.1725 11.2921 13.1735 11.0447C13.1737 10.954 13.1735 10.8634 13.1728 10.7727C13.172 10.6487 13.1726 10.5248 13.1736 10.4008C13.173 10.3651 13.1725 10.3293 13.1719 10.2925C13.1764 10.025 13.2628 9.85059 13.4372 9.64842C13.6441 9.46987 13.8581 9.46918 14.1225 9.47142C14.1618 9.47127 14.201 9.47112 14.2414 9.47097C14.3243 9.47086 14.4071 9.47115 14.4899 9.4718C14.6154 9.47263 14.7407 9.47181 14.8661 9.47081C15.576 9.4698 16.1 9.58577 16.633 10.0903C16.9107 10.3838 17.0623 10.7212 17.2071 11.0936C17.2691 11.2184 17.3052 11.2565 17.4216 11.3281C17.5172 11.3539 17.5172 11.3539 17.6207 11.3638C17.6585 11.3685 17.6962 11.3733 17.7351 11.3782C17.7938 11.3848 17.7938 11.3848 17.8537 11.3916C17.9315 11.401 18.0093 11.4104 18.087 11.42C18.1386 11.4259 18.1386 11.4259 18.1913 11.432C18.281 11.4453 18.281 11.4453 18.3982 11.4844C18.4055 10.0177 18.4119 8.59042 17.9148 7.18748C17.8275 6.93642 17.8158 6.74936 17.9148 6.49657C18.1311 6.05154 18.5896 5.95687 19.0403 6.09617ZM14.7654 11.0547C14.7654 13.491 14.7654 15.9273 14.7654 18.4375C15.019 18.4463 15.019 18.4463 15.2439 18.3935C15.2804 18.3813 15.2804 18.3813 15.3177 18.3688C15.5263 18.2295 15.5973 17.9693 15.6784 17.7441C15.8963 17.1664 16.1836 16.7196 16.7575 16.4453C17.0315 16.3356 17.2985 16.2815 17.5901 16.2524C17.8758 16.2225 18.0774 16.1692 18.2633 15.9416C18.4471 15.6716 18.4434 15.3978 18.4438 15.0809C18.4439 15.0438 18.4441 15.0067 18.4442 14.9685C18.4444 14.8903 18.4445 14.8121 18.4445 14.7339C18.4446 14.6149 18.4453 14.4959 18.446 14.377C18.4461 14.3007 18.4462 14.2245 18.4462 14.1482C18.4467 14.0954 18.4467 14.0954 18.4471 14.0414C18.446 13.729 18.4117 13.4504 18.2029 13.2031C17.9743 13.0156 17.7588 12.9746 17.4704 12.9492C16.8368 12.8772 16.3886 12.6567 15.9702 12.1686C15.8414 11.9929 15.7538 11.7991 15.6638 11.6015C15.63 11.5289 15.5959 11.4565 15.5613 11.3843C15.5471 11.3536 15.5329 11.3229 15.5182 11.2913C15.4447 11.1725 15.3596 11.1086 15.2268 11.0669C15.0739 11.0499 14.9192 11.0547 14.7654 11.0547Z" fill="white"/>
</g>
<defs>
<clipPath id="clip0_327_2274">
<rect width="20" height="20" fill="white"/>
</clipPath>
</defs>
</svg>
