<svg width="20" height="20" viewBox="0 0 20 20" fill="none" xmlns="http://www.w3.org/2000/svg">
<g clip-path="url(#clip0_327_2303)">
<path opacity="0.982" fill-rule="evenodd" clip-rule="evenodd" d="M4.27734 -0.0195312C7.37629 -0.0195312 10.4753 -0.0195312 13.5742 -0.0195312C13.6336 0.0160088 13.6986 0.0485609 13.7695 0.078125C15.1953 1.50391 16.6211 2.92969 18.0469 4.35547C18.0805 4.41746 18.1066 4.48258 18.125 4.55078C18.1894 7.41418 18.2024 10.2788 18.1641 13.1445C18.0525 13.7831 17.6814 14.024 17.0508 13.8672C16.877 13.7846 16.7403 13.6609 16.6406 13.4961C16.5824 10.8682 16.5629 8.23797 16.582 5.60547C16.0205 5.61988 15.4607 5.60035 14.9023 5.54688C13.5418 5.20191 12.754 4.33602 12.5391 2.94922C12.5195 2.48065 12.513 2.0119 12.5195 1.54297C9.92836 1.53646 7.33719 1.54297 4.74609 1.5625C3.93231 1.64714 3.48308 2.09636 3.39844 2.91016C3.35995 7.72875 3.37297 12.5464 3.4375 17.3633C3.63842 18.0014 4.07461 18.3464 4.74609 18.3984C8.23566 18.4245 11.7253 18.4245 15.2148 18.3984C16.1445 18.2673 16.6067 17.727 16.6016 16.7773C16.8746 16.2418 17.2848 16.105 17.832 16.3672C18.0565 16.5391 18.1737 16.767 18.1836 17.0508C18.0493 18.63 17.2159 19.6066 15.6836 19.9805C11.8815 19.9805 8.07941 19.9805 4.27734 19.9805C2.7596 19.6148 1.93278 18.6512 1.79688 17.0898C1.77083 12.3503 1.77083 7.61066 1.79688 2.87109C1.93278 1.30973 2.7596 0.346185 4.27734 -0.0195312ZM14.1211 2.71484C14.5559 3.13012 14.9856 3.5533 15.4102 3.98438C14.6541 3.89888 14.2244 3.4757 14.1211 2.71484Z" fill="white"/>
<path opacity="0.967" fill-rule="evenodd" clip-rule="evenodd" d="M6.42578 4.00391C7.68887 3.99739 8.95187 4.00391 10.2148 4.02344C10.6836 4.21211 10.8594 4.55719 10.7422 5.0586C10.6333 5.36274 10.4184 5.53852 10.0977 5.58594C8.91277 5.612 7.72785 5.612 6.54297 5.58594C6.10863 5.49653 5.87426 5.22962 5.83984 4.78516C5.86672 4.39083 6.06203 4.13044 6.42578 4.00391Z" fill="white"/>
<path opacity="0.969" fill-rule="evenodd" clip-rule="evenodd" d="M6.50391 7.44141C8.82164 7.43489 11.1394 7.44141 13.457 7.46094C13.9986 7.62598 14.2004 7.98403 14.0625 8.53516C13.9741 8.79286 13.7983 8.95563 13.5352 9.02344C11.1654 9.0495 8.79559 9.0495 6.42578 9.02344C6.0698 8.88817 5.87449 8.62778 5.83984 8.24219C5.88613 7.8252 6.1075 7.55829 6.50391 7.44141Z" fill="white"/>
<path opacity="0.969" fill-rule="evenodd" clip-rule="evenodd" d="M6.42577 10.918C8.79561 10.9115 11.1654 10.918 13.5351 10.9375C13.8911 11.0728 14.0864 11.3332 14.1211 11.7188C14.0823 12.1351 13.861 12.3955 13.457 12.5C11.1393 12.5261 8.82159 12.5261 6.50389 12.5C5.96233 12.335 5.76053 11.9769 5.89843 11.4258C5.99382 11.1675 6.1696 10.9982 6.42577 10.918Z" fill="white"/>
<path opacity="0.967" fill-rule="evenodd" clip-rule="evenodd" d="M9.86328 14.3555C11.0482 14.349 12.2331 14.3555 13.418 14.375C13.9066 14.4863 14.1345 14.7923 14.1016 15.293C14.0504 15.6305 13.8616 15.8453 13.5352 15.9375C12.2721 15.9636 11.0091 15.9636 9.74609 15.9375C9.27734 15.7488 9.10156 15.4038 9.21875 14.9023C9.33422 14.5977 9.54906 14.4154 9.86328 14.3555Z" fill="white"/>
</g>
<defs>
<clipPath id="clip0_327_2303">
<rect width="20" height="20" fill="white"/>
</clipPath>
</defs>
</svg>
