<svg width="20" height="20" viewBox="0 0 20 20" fill="none" xmlns="http://www.w3.org/2000/svg">
<g clip-path="url(#clip0_327_1651)">
<path d="M9.11239 -0.015744C9.15644 -0.0160121 9.20049 -0.0162802 9.24588 -0.0165564C9.39144 -0.0172709 9.53698 -0.0171199 9.68254 -0.0168979C9.78415 -0.0170762 9.88575 -0.0172835 9.98736 -0.0175184C10.2005 -0.0179101 10.4136 -0.0177817 10.6268 -0.0173843C10.8718 -0.0169377 11.1167 -0.0174826 11.3617 -0.0185326C11.5986 -0.0195096 11.8355 -0.0195991 12.0725 -0.0193484C12.1726 -0.0193424 12.2728 -0.0195761 12.3729 -0.0200629C13.0345 -0.0228236 13.6216 -0.00130362 14.2188 0.312539C14.2543 0.330415 14.2898 0.348291 14.3264 0.366708C15.0287 0.744852 15.5577 1.38195 15.7928 2.14787C15.9583 2.7336 15.9511 3.29397 15.9072 3.8967C15.9039 3.9433 15.9007 3.98991 15.8973 4.03793C15.8885 4.16461 15.8795 4.29128 15.8704 4.41794C15.8608 4.55363 15.8514 4.68933 15.842 4.82504C15.814 5.22852 15.7855 5.63198 15.757 6.03543C15.7312 6.40128 15.7056 6.76714 15.6802 7.13302C15.6744 7.21709 15.6685 7.30115 15.6626 7.38521C15.6195 8.00143 15.5812 8.61748 15.5539 9.23462C15.5514 9.28961 15.549 9.3446 15.5465 9.3996C15.5349 9.65788 15.5242 9.91616 15.5149 10.1745C15.5111 10.2663 15.5072 10.3581 15.5033 10.4498C15.5021 10.491 15.5009 10.5321 15.4997 10.5744C15.4868 10.8578 15.4347 11.0725 15.2416 11.2914C15.2191 11.3092 15.1966 11.3269 15.1734 11.3453C15.1508 11.3637 15.1282 11.3822 15.1049 11.4013C14.9059 11.5347 14.6426 11.504 14.4141 11.4844C14.1775 11.412 14.018 11.2255 13.9015 11.0143C13.8498 10.8395 13.8566 10.6701 13.8586 10.4888C13.8588 10.4475 13.8591 10.4062 13.8594 10.3636C13.8648 9.87531 13.8931 9.38842 13.9233 8.90116C13.9284 8.81952 13.9333 8.73788 13.9382 8.65623C13.9858 7.8596 14.0395 7.06341 14.0948 6.26728C14.0979 6.22282 14.1009 6.17836 14.1041 6.13255C14.1352 5.68565 14.1665 5.23876 14.1984 4.79192C14.2104 4.62356 14.2223 4.4552 14.2341 4.28683C14.2424 4.17033 14.2508 4.05384 14.2593 3.93734C14.2643 3.86615 14.2693 3.79496 14.2743 3.72378C14.2766 3.69246 14.279 3.66114 14.2813 3.62887C14.3192 3.08356 14.3082 2.59084 13.9564 2.14069C13.3147 1.45041 12.203 1.53363 11.3282 1.49964C11.2485 1.4969 11.1687 1.49426 11.0889 1.49174C11.0493 1.49047 11.0097 1.4892 10.9688 1.48788C10.0729 1.46283 9.2324 1.44154 8.53603 2.07082C8.07943 2.50535 7.3755 3.24047 7.33939 3.91045C7.3396 3.93909 7.3398 3.96773 7.34001 3.99723C7.34014 4.02845 7.34026 4.05967 7.34039 4.09184C7.34072 4.12406 7.34105 4.15629 7.34139 4.18949C7.34156 4.22232 7.34174 4.25515 7.34192 4.28898C7.34238 4.36975 7.34308 4.45052 7.34383 4.53129C7.3714 4.5412 7.39897 4.5511 7.42737 4.56131C7.62019 4.6443 7.78735 4.76833 7.96038 4.88615C8.02697 4.93138 8.09394 4.97602 8.16094 5.02064C8.71191 5.39426 8.71191 5.39426 8.78914 5.70316C8.81923 5.97027 8.79477 6.18652 8.63289 6.40629C8.43995 6.60756 8.29007 6.68562 8.00789 6.69682C7.71885 6.69394 7.54102 6.60352 7.30477 6.44535C7.26156 6.41725 7.21836 6.38916 7.17384 6.36021C7.06041 6.28556 6.94791 6.20979 6.83602 6.13285C5.83008 7.44944 5.06644 8.95975 4.49227 10.5079C4.51662 10.508 4.54097 10.5081 4.56606 10.5083C4.82019 10.5099 5.07429 10.5126 5.3284 10.516C5.42315 10.5171 5.51791 10.5179 5.61267 10.5184C5.74912 10.5193 5.88552 10.5211 6.02196 10.5231C6.06412 10.5232 6.10629 10.5232 6.14973 10.5233C6.4329 10.5287 6.60906 10.57 6.82457 10.7628C7.01061 11.0001 7.06212 11.1874 7.03133 11.4844C6.98521 11.715 6.88513 11.8446 6.70403 11.991C6.6407 12.0313 6.6407 12.0313 6.56258 12.0313C6.5368 12.2504 6.51102 12.4696 6.48445 12.6954C6.5546 12.6964 6.62474 12.6974 6.69701 12.6984C6.78973 12.7006 6.88245 12.7028 6.97518 12.7051C7.02132 12.7057 7.06747 12.7062 7.11502 12.7068C7.42029 12.7153 7.60838 12.7429 7.8402 12.9503C8.03365 13.1971 8.08436 13.4009 8.04695 13.711C7.97565 13.953 7.8247 14.1188 7.61727 14.2579C7.4803 14.3035 7.35759 14.3018 7.2152 14.3007C7.17383 14.3006 7.17383 14.3006 7.13162 14.3006C7.04366 14.3003 6.95571 14.2999 6.86775 14.2994C6.80807 14.2992 6.74838 14.299 6.68869 14.2988C6.54249 14.2984 6.39628 14.2977 6.25008 14.2969C6.27299 14.655 6.3152 14.9791 6.59676 15.232C6.92132 15.4462 7.22232 15.4738 7.5988 15.4757C7.67156 15.4766 7.74432 15.4775 7.81708 15.4785C7.93091 15.4798 8.04472 15.481 8.15856 15.4815C8.26903 15.4821 8.37946 15.4837 8.48992 15.4854C8.52366 15.4853 8.5574 15.4853 8.59216 15.4852C8.84722 15.4903 9.01351 15.5503 9.20738 15.7238C9.54592 16.1556 9.41226 16.762 9.38291 17.2801C9.37749 17.3761 9.37234 17.472 9.36722 17.568C9.3638 17.6302 9.36037 17.6925 9.35692 17.7547C9.35541 17.7828 9.35391 17.8109 9.35235 17.8398C9.3408 18.0407 9.31926 18.2368 9.29695 18.4375C11.3466 18.4375 13.3962 18.4375 15.5079 18.4375C15.3848 17.2062 15.215 16.0371 14.8406 14.8615C14.7479 14.5676 14.6931 14.3182 14.8048 14.0235C14.9247 13.8085 15.0521 13.6758 15.2808 13.5816C15.5215 13.5382 15.752 13.5462 15.9718 13.6621C16.7473 14.2205 16.8454 15.9431 16.9923 16.836C17.0416 17.1605 17.0791 17.4857 17.1095 17.8125C17.1145 17.8634 17.1196 17.9143 17.1249 17.9667C17.1369 18.1106 17.1442 18.2541 17.1485 18.3985C17.1498 18.4375 17.1511 18.4764 17.1524 18.5166C17.1562 18.6522 17.1587 18.7877 17.1607 18.9234C17.1619 18.9669 17.1631 19.0105 17.1643 19.0554C17.1664 19.3601 17.1256 19.5754 16.9213 19.807C16.8988 19.8248 16.8763 19.8426 16.8531 19.8609C16.8305 19.8794 16.8079 19.8978 16.7846 19.9169C16.6253 20.0237 16.454 20.0057 16.2703 20.0055C16.2361 20.0056 16.2018 20.0058 16.1666 20.0059C16.0514 20.0062 15.9363 20.0063 15.8211 20.0063C15.7387 20.0065 15.6563 20.0067 15.574 20.0069C15.3498 20.0074 15.1257 20.0077 14.9016 20.0079C14.7616 20.008 14.6217 20.0081 14.4817 20.0083C14.044 20.0088 13.6063 20.0092 13.1686 20.0094C12.663 20.0095 12.1574 20.0102 11.6517 20.0114C11.2611 20.0122 10.8705 20.0126 10.4799 20.0127C10.2465 20.0127 10.0132 20.0129 9.77976 20.0136C9.56023 20.0143 9.34071 20.0144 9.12117 20.014C9.04058 20.014 8.95999 20.0142 8.8794 20.0145C8.7694 20.015 8.65943 20.0148 8.54944 20.0144C8.51752 20.0147 8.48561 20.015 8.45272 20.0153C8.23137 20.0134 8.06713 19.9715 7.89742 19.8185C7.87909 19.7962 7.86076 19.7739 7.84187 19.751C7.82314 19.729 7.80441 19.7069 7.78511 19.6842C7.66123 19.5013 7.64504 19.3329 7.64916 19.1167C7.64959 19.0734 7.64959 19.0734 7.65003 19.0292C7.65441 18.7176 7.6698 18.4064 7.68756 18.0953C7.69303 17.9991 7.69816 17.9029 7.70325 17.8067C7.70666 17.7446 7.71009 17.6825 7.71355 17.6204C7.71506 17.5921 7.71656 17.5638 7.71812 17.5346C7.72728 17.3775 7.74459 17.225 7.77352 17.0704C7.74639 17.071 7.71926 17.0716 7.69131 17.0722C7.56572 17.0747 7.44014 17.0762 7.31453 17.0777C7.25056 17.0791 7.25056 17.0791 7.18529 17.0807C6.77206 17.0843 6.3933 17.0144 6.03035 16.8116C6.00575 16.7981 5.98116 16.7846 5.95581 16.7707C5.72577 16.6399 5.53614 16.4787 5.35164 16.2891C5.31523 16.2546 5.31523 16.2546 5.27809 16.2194C5.11866 16.0567 5.01499 15.8726 4.91219 15.6714C4.89932 15.6464 4.88644 15.6215 4.87318 15.5957C4.71215 15.2656 4.62565 14.923 4.62654 14.5557C4.6265 14.5199 4.62645 14.484 4.6264 14.4471C4.63921 13.8398 4.74264 13.2343 4.82781 12.6339C4.83273 12.5991 4.83766 12.5643 4.84274 12.5284C4.84977 12.48 4.84977 12.48 4.85694 12.4305C4.86102 12.4023 4.86509 12.3742 4.8693 12.3451C4.88296 12.2653 4.90127 12.1878 4.92195 12.1094C4.89837 12.1104 4.8748 12.1115 4.8505 12.1125C3.97148 12.1456 3.97148 12.1456 3.59383 11.9141C3.56487 11.8971 3.53592 11.8802 3.50609 11.8627C3.14461 11.6228 2.94076 11.2366 2.85164 10.8204C2.71139 10.0021 3.25817 9.07583 3.59383 8.35941C3.60983 8.32519 3.62584 8.29097 3.64233 8.25571C3.98476 7.53145 4.40042 6.84743 4.82186 6.16703C4.84574 6.128 4.86962 6.08897 4.89422 6.04876C5.0149 5.85453 5.13952 5.67139 5.2845 5.49442C5.73561 4.93059 5.74668 4.50725 5.70662 3.79994C5.69628 3.41227 5.83923 3.06728 6.0035 2.72221C6.01483 2.69837 6.02615 2.67453 6.03783 2.64998C6.24963 2.2407 6.59187 1.91174 6.91672 1.59098C6.97547 1.53295 7.0339 1.4746 7.09229 1.41621C7.27557 1.23362 7.4617 1.05682 7.65826 0.888444C7.8424 0.723875 8.01107 0.541917 8.1823 0.364114C8.21186 0.334002 8.24141 0.303891 8.27187 0.272866C8.29811 0.245763 8.32435 0.21866 8.35138 0.190736C8.59175 -0.0142552 8.81007 -0.01703 9.11239 -0.015744Z" fill="#171717"/>
</g>
<defs>
<clipPath id="clip0_327_1651">
<rect width="20" height="20" fill="white"/>
</clipPath>
</defs>
</svg>
