<svg width="20" height="20" viewBox="0 0 20 20" fill="none" xmlns="http://www.w3.org/2000/svg">
<g clip-path="url(#clip0_327_2388)">
<path d="M9.98751 -0.0121702C10.0442 -0.0120634 10.0442 -0.0120634 10.102 -0.0119544C10.6619 -0.0101799 11.2067 0.00969856 11.7575 0.117224C11.8101 0.126656 11.8101 0.126656 11.8637 0.136279C13.7656 0.480419 15.5243 1.39617 16.9138 2.73441C16.9524 2.77145 16.9524 2.77145 16.9918 2.80924C17.3625 3.16644 17.7039 3.52962 18.0075 3.94535C18.0411 3.99031 18.0746 4.03527 18.1081 4.08024C18.3439 4.40014 18.5542 4.73228 18.7497 5.07816C18.7654 5.10579 18.7811 5.13341 18.7973 5.16188C19.2959 6.0474 19.6308 7.00148 19.8337 7.99564C19.8454 8.05262 19.8454 8.05262 19.8572 8.11075C19.977 8.72916 20.0145 9.33478 20.0119 9.96342C20.0118 10.0004 20.0118 10.0373 20.0117 10.0753C20.0096 10.6432 19.9909 11.1988 19.8825 11.7578C19.8712 11.8174 19.8712 11.8174 19.8596 11.8782C19.6247 13.0737 19.1437 14.9959 18.1357 15.7955C17.8812 15.9311 17.6071 15.9501 17.329 15.8727C17.1326 15.7869 17.0149 15.6558 16.9138 15.4688C16.8724 15.3447 16.8682 15.2524 16.8674 15.1221C16.8668 15.0819 16.8663 15.0417 16.8657 15.0003C16.8749 14.8807 16.9024 14.7956 16.9528 14.6875C16.8886 14.7045 16.8886 14.7045 16.8231 14.7217C15.3421 15.0805 13.9428 14.744 12.656 13.9844C11.7867 13.4394 11.7867 13.4394 11.6794 13.086C11.6456 12.8318 11.6519 12.5957 11.7832 12.3706C11.9019 12.2215 12.0471 12.1301 12.2263 12.0703C12.6919 12.0283 12.9213 12.163 13.288 12.4248C14.1553 13.017 15.1567 13.3697 16.214 13.1787C16.7118 13.0512 17.1828 12.813 17.5458 12.4488C17.6169 12.3828 17.6169 12.3828 17.695 12.3828C17.7053 12.3607 17.7155 12.3386 17.726 12.3159C17.7772 12.219 17.8373 12.1363 17.9026 12.0484C18.1136 11.7498 18.2367 11.4473 18.32 11.0938C18.2966 11.1007 18.2732 11.1076 18.2491 11.1147C18.1418 11.1462 18.0344 11.1773 17.927 11.2085C17.8901 11.2194 17.8533 11.2302 17.8153 11.2414C16.7195 11.5583 15.4641 11.3777 14.4687 10.8295C13.9965 10.5579 13.5919 10.2229 13.2028 9.84379C13.1799 9.8216 13.1569 9.79941 13.1332 9.77655C12.5292 9.19206 12.0475 8.52867 11.558 7.84805C11.0643 7.16165 10.5412 6.51339 9.96066 5.89847C9.93583 5.87199 9.91101 5.8455 9.88543 5.81821C9.72514 5.65218 9.5492 5.50787 9.36923 5.36365C9.29871 5.30672 9.22899 5.24875 9.16049 5.1894C8.51712 4.63694 7.73881 4.19303 6.91378 3.98441C6.88468 3.97701 6.85557 3.96961 6.82559 3.96198C5.80404 3.80336 4.80404 4.17276 3.9841 4.76566C3.71957 4.96322 3.48718 5.17143 3.28097 5.42972C3.31013 5.42127 3.33928 5.41281 3.36932 5.40409C4.72522 5.07014 6.09278 5.43721 7.26535 6.13285C7.48117 6.26596 7.68717 6.41096 7.89035 6.56254C7.9145 6.58036 7.93866 6.59818 7.96355 6.61653C8.33019 6.89032 8.65804 7.20201 8.98165 7.52445C9.00059 7.54324 9.01953 7.56204 9.03904 7.5814C9.29929 7.84062 9.53679 8.11114 9.76535 8.39847C9.80443 8.44568 9.84363 8.4928 9.88299 8.53977C10.1173 8.82343 10.3302 9.11778 10.5344 9.42387C10.5583 9.45971 10.5822 9.49556 10.6069 9.53249C10.8015 9.82813 10.846 10.0344 10.82 10.3907C10.7421 10.6162 10.6001 10.7549 10.4074 10.8911C10.1638 10.9753 9.88387 10.9847 9.64083 10.8887C9.41739 10.7569 9.28423 10.5217 9.14035 10.3125C9.07721 10.2228 9.0136 10.1334 8.94992 10.044C8.93365 10.0211 8.91737 9.99827 8.90061 9.97472C8.57495 9.51935 8.22253 9.09964 7.83415 8.69631C7.78218 8.64223 7.73076 8.58762 7.67947 8.5329C6.83526 7.6526 5.65414 6.94906 4.41378 6.9141C3.64854 6.94356 2.97771 7.27948 2.45989 7.83375C1.70299 8.68583 1.61046 9.69819 1.64035 10.7813C1.76026 10.7813 1.81774 10.7099 1.91134 10.6372C2.12378 10.4807 2.3308 10.3656 2.57785 10.2735C2.62649 10.2547 2.62649 10.2547 2.67611 10.2356C3.52461 9.96768 4.46278 10.188 5.22784 10.5848C5.77464 10.8766 6.23395 11.2512 6.67941 11.6797C6.70058 11.7 6.72174 11.7203 6.74355 11.7413C7.03002 12.0178 7.29398 12.3025 7.53878 12.6172C8.23869 13.5161 8.97643 14.3874 9.9216 15.0391C9.94476 15.0552 9.96792 15.0712 9.99179 15.0878C10.2933 15.2943 10.6089 15.4733 10.9323 15.6431C11.1843 15.7784 11.3876 15.9315 11.4841 16.211C11.5172 16.4974 11.5105 16.7586 11.3278 16.9922C11.1464 17.1804 10.922 17.2551 10.6638 17.2657C9.73786 17.1683 8.71344 16.2321 8.0556 15.6269C7.975 15.5529 7.89286 15.4814 7.80978 15.4102C7.5279 15.1641 7.27286 14.8944 7.03097 14.6094C6.99884 14.572 6.96672 14.5347 6.93362 14.4962C6.74421 14.275 6.56004 14.0509 6.38156 13.8208C6.22825 13.6234 6.06895 13.4345 5.89923 13.2508C5.82846 13.1733 5.7621 13.0938 5.69552 13.0127C5.19943 12.4484 4.43623 11.8508 3.66854 11.7786C3.35236 11.7609 3.0689 11.7909 2.81222 11.9922C2.46559 12.3321 2.38209 12.7869 2.37353 13.2531C2.39702 13.5306 2.48988 13.7532 2.62179 13.9942C2.6374 14.0231 2.65301 14.052 2.66909 14.0818C2.80668 14.3329 2.95799 14.5718 3.12472 14.8047C3.15287 14.8441 3.18102 14.8834 3.21002 14.9239C3.37731 15.1521 3.55364 15.3667 3.7456 15.5745C3.81855 15.654 3.888 15.7353 3.95724 15.8179C4.28489 16.1923 4.67637 16.5057 5.07785 16.7969C5.09889 16.8123 5.11993 16.8278 5.14161 16.8437C5.81893 17.335 6.58618 17.7153 7.38253 17.9688C7.41368 17.9791 7.44482 17.9894 7.47691 18C9.57473 18.6871 11.9049 18.4418 13.8669 17.461C14.0172 17.3809 14.1641 17.2958 14.3102 17.2083C14.5468 17.0717 14.8287 17.0674 15.0917 17.132C15.3168 17.2278 15.4448 17.3992 15.5466 17.6172C15.6223 17.8642 15.5841 18.0917 15.4685 18.3203C15.3381 18.5255 15.1555 18.6221 14.9485 18.7378C14.8943 18.7683 14.8943 18.7683 14.839 18.7994C13.8713 19.3332 12.8383 19.668 11.7575 19.8828C11.7229 19.8899 11.6882 19.897 11.6526 19.9042C10.5748 20.1134 9.31733 20.0928 8.24191 19.8828C8.20687 19.8766 8.17183 19.8703 8.13573 19.8638C6.23441 19.5198 4.47437 18.6042 3.08566 17.2657C3.06202 17.2429 3.03838 17.2201 3.01402 17.1966C2.70438 16.8964 2.41219 16.5919 2.14816 16.25C2.10284 16.194 2.10284 16.194 2.05661 16.1368C1.00399 14.8144 0.32315 13.1935 0.0778453 11.5235C0.0709185 11.4764 0.0639916 11.4294 0.0568549 11.3809C-0.00560491 10.9255 -0.0142799 10.4738 -0.0124867 10.0147C-0.0124155 9.9768 -0.0123443 9.93891 -0.012271 9.89988C-0.0104978 9.33927 0.00924236 8.79381 0.116908 8.24222C0.12634 8.18966 0.12634 8.18966 0.135962 8.13604C0.480102 6.23418 1.39586 4.47543 2.7341 3.08597C2.75879 3.06022 2.78348 3.03446 2.80892 3.00793C3.16613 2.63729 3.5293 2.29589 3.94503 1.99222C3.99 1.95871 4.03496 1.92519 4.07992 1.89167C4.39983 1.65583 4.73196 1.44556 5.07785 1.25004C5.10547 1.23433 5.1331 1.21862 5.16156 1.20243C6.06467 0.693972 7.04705 0.352828 8.06124 0.14408C8.10288 0.135446 8.10288 0.135446 8.14535 0.126637C8.75638 0.00998061 9.36717 -0.0146041 9.98751 -0.0121702ZM7.30441 2.07035C7.23483 2.09004 7.16525 2.10972 7.09567 2.1294C6.94332 2.17306 6.79168 2.21862 6.64035 2.26566C6.64035 2.27855 6.64035 2.29144 6.64035 2.30472C6.71066 2.31688 6.71066 2.31688 6.7824 2.32929C7.86619 2.52552 8.83529 2.94303 9.72628 3.59379C9.74851 3.60999 9.77073 3.6262 9.79363 3.6429C10.0494 3.83121 10.2932 4.03033 10.5266 4.2461C10.6077 4.32035 10.6899 4.39246 10.773 4.4643C10.9373 4.60766 11.0933 4.75794 11.2473 4.91215C11.2746 4.93953 11.302 4.96691 11.3302 4.99513C11.5086 5.17564 11.6741 5.35952 11.8308 5.55927C11.907 5.65553 11.9863 5.74829 12.067 5.8408C12.3167 6.12844 12.5338 6.43475 12.7506 6.74757C13.0426 7.16667 13.3402 7.57975 13.6716 7.96879C13.7099 8.0143 13.7481 8.05982 13.7863 8.10535C14.4379 8.87761 15.236 9.64662 16.2888 9.76566C17.0379 9.81829 17.7137 9.69295 18.3591 9.29691C18.4129 9.18921 18.3895 9.12426 18.3705 9.00577C18.3603 8.94165 18.3603 8.94165 18.3499 8.87623C18.3424 8.83136 18.335 8.7865 18.3274 8.74027C18.3204 8.69601 18.3134 8.65175 18.3062 8.60615C18.2726 8.39898 18.2341 8.20618 18.1638 8.00785C18.1203 8.01404 18.0769 8.02024 18.0321 8.02662C17.1175 8.13976 16.317 7.95787 15.5742 7.39124C15.0648 6.97444 14.6203 6.49715 14.2185 5.9766C14.178 5.92465 14.1375 5.87272 14.097 5.82081C13.9088 5.57933 13.721 5.33754 13.534 5.0951C12.4234 3.65701 11.2066 2.12379 9.2966 1.83597C8.60105 1.77364 7.97022 1.87677 7.30441 2.07035ZM13.2419 2.26566C13.3832 2.43372 13.529 2.59593 13.6789 2.75638C13.8936 2.98809 14.0873 3.2333 14.2801 3.48326C14.3754 3.60582 14.4728 3.72669 14.57 3.84769C14.7202 4.03477 14.8691 4.2227 15.0168 4.41166C15.4988 5.03291 15.4988 5.03291 16.0153 5.62504C16.0675 5.68101 16.0675 5.68101 16.1208 5.7381C16.3625 5.99148 16.6039 6.19819 16.9138 6.36722C16.9377 6.38122 16.9616 6.39522 16.9863 6.40964C17.1865 6.51334 17.3982 6.49509 17.6169 6.48441C17.2667 5.3339 16.2472 4.19191 15.3122 3.4766C15.2504 3.42534 15.1885 3.37407 15.1267 3.32279C14.2529 2.61239 14.2529 2.61239 13.2419 2.26566Z" fill="#C79023"/>
</g>
<defs>
<clipPath id="clip0_327_2388">
<rect width="20" height="20" fill="white"/>
</clipPath>
</defs>
</svg>
