<svg width="20" height="20" viewBox="0 0 20 20" fill="none" xmlns="http://www.w3.org/2000/svg">
<g clip-path="url(#clip0_327_1639)">
<path d="M12.2903 1.30832C12.4992 1.41628 12.6512 1.57551 12.8147 1.7417C12.8486 1.77551 12.8825 1.80932 12.9175 1.84416C13.0097 1.93638 13.1017 2.02893 13.1935 2.12166C13.29 2.21906 13.387 2.31604 13.484 2.41306C13.6467 2.57607 13.8092 2.73936 13.9715 2.90286C14.179 3.11196 14.387 3.32061 14.5951 3.52911C14.7749 3.70925 14.9545 3.88956 15.1341 4.06992C15.1725 4.10841 15.2108 4.1469 15.2492 4.18538C15.3755 4.31215 15.5016 4.43908 15.6277 4.5661C15.6591 4.59761 15.6905 4.62911 15.7228 4.66157C15.8576 4.79764 15.9894 4.93453 16.1145 5.07961C16.2612 5.24976 16.4188 5.4075 16.5785 5.56543C16.6101 5.59692 16.6418 5.6284 16.6744 5.66084C16.7427 5.7287 16.811 5.79652 16.8794 5.86429C16.9877 5.97177 17.0959 6.07941 17.204 6.18709C17.5113 6.49308 17.8188 6.79891 18.1266 7.10432C18.3154 7.29159 18.5038 7.47916 18.6921 7.66692C18.7637 7.73815 18.8353 7.80927 18.9071 7.88028C19.0076 7.97972 19.1077 8.07953 19.2077 8.17942C19.2371 8.20834 19.2665 8.23727 19.2968 8.26707C19.558 8.52926 19.7582 8.8002 19.8754 9.15278C19.891 9.19855 19.9065 9.24433 19.9226 9.29149C20.0862 9.81493 20.0606 10.4341 19.8437 10.9375C19.8309 10.9707 19.8181 11.004 19.8049 11.0383C19.5702 11.5824 19.0009 12.0195 18.5884 12.43C18.4835 12.5344 18.3788 12.6389 18.274 12.7435C18.0519 12.9652 17.8296 13.1867 17.6074 13.4082C17.349 13.6656 17.0907 13.9231 16.8325 14.1808C16.7297 14.2833 16.6268 14.3858 16.5239 14.4882C16.4605 14.5514 16.3972 14.6146 16.3338 14.6779C16.3055 14.706 16.2772 14.7341 16.2481 14.763C16.0962 14.9149 15.9523 15.071 15.812 15.2336C15.6852 15.3767 15.5498 15.5113 15.4148 15.6467C15.3833 15.6785 15.3518 15.7103 15.3193 15.743C15.2158 15.8472 15.1122 15.9512 15.0086 16.0552C14.9731 16.091 14.9375 16.1267 14.9009 16.1635C14.7322 16.3329 14.5635 16.5021 14.3947 16.6713C14.2006 16.8657 14.0069 17.0605 13.8135 17.2555C13.6451 17.4252 13.4763 17.5945 13.3074 17.7636C13.2358 17.8353 13.1645 17.9071 13.0932 17.9791C12.9936 18.0796 12.8935 18.1797 12.7932 18.2797C12.7641 18.3093 12.735 18.339 12.705 18.3695C12.504 18.5684 12.3115 18.7246 12.0236 18.7693C11.7366 18.7636 11.5629 18.734 11.3403 18.5424C11.1461 18.3167 11.1195 18.1423 11.1172 17.8515C11.1884 17.3151 11.8852 16.8211 12.2491 16.4591C12.3144 16.394 12.3797 16.3289 12.445 16.2638C12.5849 16.1243 12.7249 15.9848 12.8649 15.8454C13.0863 15.6249 13.3075 15.4042 13.5287 15.1835C13.6045 15.1078 13.6804 15.0321 13.7562 14.9564C13.7752 14.9375 13.7941 14.9186 13.8137 14.8991C14.0287 14.6845 14.2437 14.47 14.4588 14.2556C14.4784 14.236 14.498 14.2164 14.5183 14.1962C14.8371 13.8783 15.156 13.5605 15.475 13.2427C15.8032 12.9158 16.1311 12.5887 16.4589 12.2614C16.6787 12.0419 16.8987 11.8227 17.119 11.6036C17.2558 11.4675 17.3923 11.3311 17.5287 11.1946C17.5921 11.1314 17.6555 11.0682 17.7191 11.0052C17.8057 10.9192 17.8921 10.8328 17.9783 10.7464C18.0036 10.7215 18.0288 10.6966 18.0548 10.6709C18.25 10.474 18.3755 10.2938 18.3813 10.0073C18.3829 9.96996 18.3846 9.93265 18.3863 9.89421C18.3201 9.57903 18.0626 9.33466 17.8398 9.11528C17.8119 9.08739 17.7841 9.0595 17.7554 9.03076C17.6628 8.93819 17.5699 8.84604 17.4769 8.75389C17.4101 8.68728 17.3434 8.62064 17.2766 8.55398C17.1333 8.4109 16.9898 8.268 16.8462 8.12525C16.6383 7.91865 16.4307 7.71169 16.2233 7.50463C15.8864 7.16835 15.5492 6.8323 15.2119 6.49643C15.1817 6.46633 15.1817 6.46633 15.1508 6.43562C15.0692 6.35431 14.9875 6.273 14.9058 6.19169C14.6808 5.96765 14.4559 5.74356 14.2309 5.51945C14.2108 5.49937 14.1906 5.47929 14.1698 5.4586C13.8337 5.1237 13.4977 4.78863 13.1618 4.45348C12.9549 4.24699 12.7477 4.04065 12.5404 3.83451C12.3817 3.67663 12.2231 3.51856 12.0646 3.36041C11.9996 3.29563 11.9346 3.2309 11.8694 3.16626C11.7806 3.07801 11.6919 2.98953 11.6033 2.90099C11.5775 2.87547 11.5516 2.84995 11.525 2.82365C11.2879 2.58571 11.1283 2.38775 11.123 2.03852C11.1257 1.78625 11.175 1.64954 11.3403 1.45747C11.6206 1.21625 11.9457 1.16659 12.2903 1.30832Z" fill="#171717"/>
<path d="M0.789283 9.21348C0.865884 9.21322 0.865884 9.21322 0.944031 9.21296C1.00104 9.21296 1.05806 9.21297 1.11507 9.21298C1.17537 9.21285 1.23567 9.2127 1.29597 9.21254C1.46212 9.21215 1.62826 9.21201 1.79441 9.2119C1.97343 9.21175 2.15245 9.21138 2.33148 9.21104C2.76403 9.21026 3.19659 9.20987 3.62914 9.20952C3.83276 9.20935 4.03637 9.20914 4.23999 9.20894C4.91671 9.20827 5.59343 9.20771 6.27016 9.20742C6.44581 9.20735 6.62147 9.20727 6.79713 9.2072C6.84079 9.20718 6.88445 9.20716 6.92943 9.20714C7.63687 9.20682 8.3443 9.20583 9.05174 9.20456C9.77778 9.20327 10.5038 9.20256 11.2299 9.20244C11.6376 9.20235 12.0454 9.20201 12.4531 9.20101C12.8003 9.20017 13.1476 9.19985 13.4948 9.20023C13.672 9.20041 13.8491 9.20033 14.0263 9.19958C14.1885 9.19889 14.3508 9.19892 14.513 9.19953C14.5717 9.19963 14.6303 9.19946 14.689 9.19899C14.9966 9.19672 15.2451 9.19887 15.5079 9.37498C15.6924 9.56128 15.7728 9.77729 15.7813 10.039C15.7467 10.2638 15.6782 10.4685 15.5079 10.625C15.2183 10.8152 14.9415 10.8033 14.6038 10.8011C14.5433 10.8012 14.4829 10.8015 14.4224 10.8018C14.2567 10.8025 14.091 10.8021 13.9253 10.8017C13.7464 10.8013 13.5675 10.8018 13.3886 10.8023C13.0384 10.803 12.6881 10.8028 12.3379 10.8024C12.0532 10.802 11.7685 10.802 11.4839 10.8021C11.4433 10.8022 11.4028 10.8022 11.3611 10.8022C11.2787 10.8023 11.1964 10.8023 11.1141 10.8024C10.3422 10.8028 9.57039 10.8023 8.79854 10.8015C8.13631 10.8008 7.47409 10.8009 6.81186 10.8016C6.04276 10.8024 5.27367 10.8028 4.50457 10.8023C4.42255 10.8022 4.34054 10.8022 4.25852 10.8021C4.21817 10.8021 4.17781 10.8021 4.13624 10.8021C3.85192 10.8019 3.5676 10.8022 3.28329 10.8025C2.93678 10.803 2.59028 10.8028 2.24377 10.802C2.06699 10.8016 1.89022 10.8014 1.71344 10.802C1.55157 10.8024 1.38971 10.8022 1.22784 10.8013C1.16933 10.8012 1.11082 10.8012 1.05231 10.8016C0.417246 10.8054 0.417246 10.8054 0.162597 10.554C0.141373 10.5203 0.141373 10.5203 0.11972 10.4858C0.104866 10.4632 0.0900114 10.4406 0.0747068 10.4173C-0.0439558 10.1978 -0.0388019 9.90899 0.0254209 9.67222C0.112752 9.47666 0.242633 9.35896 0.429779 9.25779C0.558616 9.21484 0.653581 9.2137 0.789283 9.21348Z" fill="#171717"/>
</g>
<defs>
<clipPath id="clip0_327_1639">
<rect width="20" height="20" fill="white"/>
</clipPath>
</defs>
</svg>
