<svg width="20" height="20" viewBox="0 0 20 20" fill="none" xmlns="http://www.w3.org/2000/svg">
<g clip-path="url(#clip0_327_1699)">
<path d="M9.3863 0.507815C8.78474 0.683596 8.99959 0.488284 4.39802 5.07422C1.45662 8.01172 0.124586 9.36328 0.0738044 9.47266C-0.137133 9.92188 0.175367 10.4922 0.659742 10.5391C1.03084 10.5742 1.10896 10.5352 1.54646 10.1094L1.9488 9.71875L1.96443 13.3633C1.97615 17.418 1.96052 17.1406 2.24568 17.7617C2.73005 18.8125 3.65584 19.457 4.83552 19.5703C5.37849 19.6211 7.74177 19.6211 8.0113 19.5703C8.26912 19.5195 8.46443 19.375 8.58552 19.1406L8.67146 18.9688V15.7148V12.4609H10.0386H11.4058V15.7148V18.9688L11.4957 19.1406C11.6129 19.375 11.8082 19.5195 12.066 19.5703C12.3355 19.6211 14.6207 19.6211 15.1636 19.5703C15.8238 19.5078 16.3355 19.3125 16.8355 18.9258C17.5426 18.3828 17.9801 17.5469 18.0347 16.6445C18.0504 16.3477 18.0426 16.2891 17.9605 16.1367C17.8316 15.8867 17.6246 15.7344 17.3863 15.7109C17.1011 15.6836 16.9449 15.7266 16.7652 15.8789C16.5816 16.0391 16.5074 16.2188 16.4527 16.6523C16.3824 17.1992 16.0738 17.6328 15.5855 17.8672L15.3316 17.9883L14.1519 18L12.9683 18.0117V14.7578V11.5L12.8824 11.3281C12.7613 11.0938 12.566 10.9492 12.3082 10.8984C12.1832 10.875 11.273 10.8594 10.0386 10.8594C8.80427 10.8594 7.89412 10.875 7.76912 10.8984C7.5113 10.9492 7.31599 11.0938 7.1988 11.3281L7.10896 11.5V14.7578V18.0117L5.89021 18L4.66755 17.9883L4.41365 17.8672C3.96834 17.6523 3.64412 17.2344 3.55427 16.7617C3.53084 16.6289 3.51521 15.0273 3.51521 12.3477V8.14453L6.57771 5.10938C8.2613 3.4375 9.68709 2.05469 9.74568 2.03125C9.89802 1.97266 10.2222 1.98438 10.3629 2.05078C10.4332 2.08594 11.8355 3.46875 13.484 5.12891L16.484 8.14453V10.4297V12.7188L16.5738 12.8906C16.6207 12.9844 16.7261 13.1172 16.8082 13.1797C16.9488 13.293 16.984 13.3008 17.2652 13.3008C17.5465 13.3008 17.5816 13.293 17.7222 13.1797C17.8043 13.1172 17.9097 12.9844 17.9605 12.8906C18.0465 12.7188 18.0465 12.6953 18.0465 11.2148V9.71484L18.4527 10.1094C18.8902 10.5391 18.9683 10.5742 19.3394 10.5391C19.8238 10.4922 20.1324 9.92578 19.9254 9.47266C19.8238 9.24609 11.6949 1.06641 11.3199 0.812502C10.9371 0.546877 10.523 0.42969 10.0152 0.433596C9.76521 0.433596 9.54646 0.46094 9.3863 0.507815Z" fill="#171717"/>
</g>
<defs>
<clipPath id="clip0_327_1699">
<rect width="20" height="20" fill="white"/>
</clipPath>
</defs>
</svg>
