<svg width="20" height="20" viewBox="0 0 20 20" fill="none" xmlns="http://www.w3.org/2000/svg">
<g clip-path="url(#clip0_616_13)">
<path opacity="0.98" fill-rule="evenodd" clip-rule="evenodd" d="M2.59766 -0.0195312C3.50911 -0.0195312 4.42059 -0.0195312 5.33203 -0.0195312C5.87352 0.283849 5.99723 0.713535 5.70312 1.26953C5.60316 1.38795 5.47945 1.47258 5.33203 1.52344C4.58984 1.53646 3.84766 1.54948 3.10547 1.5625C2.31197 1.61724 1.81067 2.02739 1.60156 2.79297C1.55315 3.63818 1.52711 4.48453 1.52344 5.33203C1.38551 5.67156 1.1316 5.85383 0.761719 5.87891C0.389857 5.84973 0.12944 5.66742 -0.0195312 5.33203C-0.0195312 4.42059 -0.0195312 3.50911 -0.0195312 2.59766C0.292969 1.16536 1.16536 0.292969 2.59766 -0.0195312Z" fill="#171717"/>
<path opacity="0.98" fill-rule="evenodd" clip-rule="evenodd" d="M14.6289 -0.0195312C15.5404 -0.0195312 16.4518 -0.0195312 17.3633 -0.0195312C18.7695 0.319011 19.6419 1.19141 19.9805 2.59766C19.9805 3.50911 19.9805 4.42059 19.9805 5.33203C19.6739 5.87422 19.2442 5.99793 18.6914 5.70312C18.573 5.60316 18.4884 5.47945 18.4375 5.33203C18.4245 4.58984 18.4114 3.84766 18.3984 3.10547C18.3437 2.31197 17.9336 1.81067 17.168 1.60156C16.3227 1.55315 15.4764 1.52711 14.6289 1.52344C14.2889 1.38407 14.1066 1.13016 14.082 0.761719C14.1112 0.389857 14.2935 0.12944 14.6289 -0.0195312Z" fill="#171717"/>
<path opacity="0.975" fill-rule="evenodd" clip-rule="evenodd" d="M9.55078 2.08967C10.1764 2.03119 10.7754 2.12885 11.3477 2.38264C12.9332 3.25241 14.5087 4.13783 16.0742 5.03889C16.708 5.5817 17.0921 6.26529 17.2266 7.08967C17.2526 7.63654 17.2526 8.18342 17.2266 8.73029C17.0118 9.27502 16.6277 9.4508 16.0742 9.25764C15.8466 9.13428 15.7099 8.94545 15.6641 8.69123C15.6511 8.33967 15.638 7.98811 15.625 7.63654C14.0041 8.52506 12.3895 9.4235 10.7813 10.3319C10.7487 12.233 10.7552 14.1341 10.8008 16.035C12.225 15.2551 13.6443 14.4673 15.0586 13.6717C15.353 13.4149 15.5418 13.0958 15.625 12.7147C15.6111 11.8819 16.0082 11.5498 16.8164 11.7186C17.215 12.0026 17.3517 12.3867 17.2266 12.8709C17.0817 13.8316 16.6064 14.5803 15.8008 15.117C14.3685 15.9113 12.9362 16.7056 11.5039 17.4998C10.5529 17.9633 9.5893 17.9893 8.61328 17.5779C7.08356 16.7415 5.56012 15.8951 4.04297 15.0389C3.31223 14.4956 2.87603 13.7729 2.73438 12.8709C2.70833 10.9438 2.70833 9.01674 2.73438 7.08967C2.87922 6.129 3.35448 5.38033 4.16016 4.84357C5.59246 4.04932 7.02473 3.25503 8.45703 2.46076C8.81164 2.29266 9.17625 2.16897 9.55078 2.08967ZM9.70703 3.69123C9.98727 3.67216 10.2607 3.70471 10.5273 3.78889C11.9852 4.56986 13.4305 5.37064 14.8633 6.19123C13.2434 7.11197 11.6157 8.02346 9.98047 8.92561C8.3452 8.02346 6.71758 7.11197 5.09766 6.19123C6.38672 5.46857 7.67578 4.74592 8.96484 4.02326C9.20692 3.88897 9.45434 3.77829 9.70703 3.69123ZM4.31641 7.63654C5.94586 8.51963 7.56695 9.41807 9.17969 10.3319C9.21223 12.233 9.20574 14.1341 9.16016 16.035C7.78492 15.2654 6.40469 14.5037 5.01953 13.7498C4.65106 13.4984 4.4232 13.1533 4.33594 12.7147C4.31641 11.022 4.30988 9.32932 4.31641 7.63654Z" fill="#171717"/>
<path opacity="0.98" fill-rule="evenodd" clip-rule="evenodd" d="M5.33203 19.9807C4.42059 19.9807 3.50911 19.9807 2.59766 19.9807C1.19141 19.6421 0.319011 18.7698 -0.0195312 17.3635C-0.0195312 16.4521 -0.0195312 15.5406 -0.0195312 14.6291C0.285433 14.0873 0.715121 13.9636 1.26953 14.258C1.38795 14.358 1.47258 14.4817 1.52344 14.6291C1.53646 15.3713 1.54948 16.1135 1.5625 16.8557C1.61724 17.6492 2.02739 18.1505 2.79297 18.3596C3.63818 18.408 4.48453 18.4341 5.33203 18.4377C5.67207 18.5771 5.85434 18.831 5.87891 19.1995C5.84922 19.5727 5.66691 19.8332 5.33203 19.9807Z" fill="#171717"/>
<path opacity="0.98" fill-rule="evenodd" clip-rule="evenodd" d="M19.9805 14.6289C19.9805 15.5404 19.9805 16.4518 19.9805 17.3633C19.6419 18.7695 18.7695 19.6419 17.3633 19.9805C16.4518 19.9805 15.5403 19.9805 14.6289 19.9805C14.0871 19.6755 13.9633 19.2458 14.2578 18.6914C14.3578 18.573 14.4815 18.4884 14.6289 18.4375C15.3711 18.4245 16.1133 18.4114 16.8555 18.3984C17.6489 18.3437 18.1503 17.9336 18.3594 17.168C18.4078 16.3227 18.4338 15.4764 18.4375 14.6289C18.5769 14.2889 18.8308 14.1066 19.1992 14.082C19.5711 14.1112 19.8315 14.2935 19.9805 14.6289Z" fill="#171717"/>
</g>
<defs>
<clipPath id="clip0_616_13">
<rect width="20" height="20" fill="white"/>
</clipPath>
</defs>
</svg>
