<svg width="21" height="20" viewBox="0 0 21 20" fill="none" xmlns="http://www.w3.org/2000/svg">
<g clip-path="url(#clip0_616_2)">
<path opacity="0.98" fill-rule="evenodd" clip-rule="evenodd" d="M3.09766 -0.0195312C4.00911 -0.0195312 4.92059 -0.0195312 5.83203 -0.0195312C6.37352 0.283849 6.49723 0.713535 6.20312 1.26953C6.10316 1.38795 5.97945 1.47258 5.83203 1.52344C5.08984 1.53646 4.34766 1.54948 3.60547 1.5625C2.81197 1.61724 2.31067 2.02739 2.10156 2.79297C2.05315 3.63818 2.02711 4.48453 2.02344 5.33203C1.88551 5.67156 1.6316 5.85383 1.26172 5.87891C0.889857 5.84973 0.62944 5.66742 0.480469 5.33203C0.480469 4.42059 0.480469 3.50911 0.480469 2.59766C0.792969 1.16536 1.66536 0.292969 3.09766 -0.0195312Z" fill="#C79023"/>
<path opacity="0.98" fill-rule="evenodd" clip-rule="evenodd" d="M15.1289 -0.0195312C16.0404 -0.0195312 16.9518 -0.0195312 17.8633 -0.0195312C19.2695 0.319011 20.1419 1.19141 20.4805 2.59766C20.4805 3.50911 20.4805 4.42059 20.4805 5.33203C20.1739 5.87422 19.7442 5.99793 19.1914 5.70312C19.073 5.60316 18.9884 5.47945 18.9375 5.33203C18.9245 4.58984 18.9114 3.84766 18.8984 3.10547C18.8437 2.31197 18.4336 1.81067 17.668 1.60156C16.8227 1.55315 15.9764 1.52711 15.1289 1.52344C14.7889 1.38407 14.6066 1.13016 14.582 0.761719C14.6112 0.389857 14.7935 0.12944 15.1289 -0.0195312Z" fill="#C79023"/>
<path opacity="0.975" fill-rule="evenodd" clip-rule="evenodd" d="M10.0508 2.08967C10.6764 2.03119 11.2754 2.12885 11.8477 2.38264C13.4332 3.25241 15.0087 4.13783 16.5742 5.03889C17.208 5.5817 17.5921 6.26529 17.7266 7.08967C17.7526 7.63654 17.7526 8.18342 17.7266 8.73029C17.5118 9.27502 17.1277 9.4508 16.5742 9.25764C16.3466 9.13428 16.2099 8.94545 16.1641 8.69123C16.1511 8.33967 16.138 7.98811 16.125 7.63654C14.5041 8.52506 12.8895 9.4235 11.2813 10.3319C11.2487 12.233 11.2552 14.1341 11.3008 16.035C12.725 15.2551 14.1443 14.4673 15.5586 13.6717C15.853 13.4149 16.0418 13.0958 16.125 12.7147C16.1111 11.8819 16.5082 11.5498 17.3164 11.7186C17.715 12.0026 17.8517 12.3867 17.7266 12.8709C17.5817 13.8316 17.1064 14.5803 16.3008 15.117C14.8685 15.9113 13.4362 16.7056 12.0039 17.4998C11.0529 17.9633 10.0893 17.9893 9.11328 17.5779C7.58356 16.7415 6.06012 15.8951 4.54297 15.0389C3.81223 14.4956 3.37603 13.7729 3.23438 12.8709C3.20833 10.9438 3.20833 9.01674 3.23438 7.08967C3.37922 6.129 3.85448 5.38033 4.66016 4.84357C6.09246 4.04932 7.52473 3.25503 8.95703 2.46076C9.31164 2.29266 9.67625 2.16897 10.0508 2.08967ZM10.207 3.69123C10.4873 3.67216 10.7607 3.70471 11.0273 3.78889C12.4852 4.56986 13.9305 5.37064 15.3633 6.19123C13.7434 7.11197 12.1157 8.02346 10.4805 8.92561C8.8452 8.02346 7.21758 7.11197 5.59766 6.19123C6.88672 5.46857 8.17578 4.74592 9.46484 4.02326C9.70692 3.88897 9.95434 3.77829 10.207 3.69123ZM4.81641 7.63654C6.44586 8.51963 8.06695 9.41807 9.67969 10.3319C9.71223 12.233 9.70574 14.1341 9.66016 16.035C8.28492 15.2654 6.90469 14.5037 5.51953 13.7498C5.15106 13.4984 4.9232 13.1533 4.83594 12.7147C4.81641 11.022 4.80988 9.32932 4.81641 7.63654Z" fill="#C79023"/>
<path opacity="0.98" fill-rule="evenodd" clip-rule="evenodd" d="M5.83203 19.9807C4.92059 19.9807 4.00911 19.9807 3.09766 19.9807C1.69141 19.6421 0.819011 18.7698 0.480469 17.3635C0.480469 16.4521 0.480469 15.5406 0.480469 14.6291C0.785433 14.0873 1.21512 13.9636 1.76953 14.258C1.88795 14.358 1.97258 14.4817 2.02344 14.6291C2.03646 15.3713 2.04948 16.1135 2.0625 16.8557C2.11724 17.6492 2.52739 18.1505 3.29297 18.3596C4.13818 18.408 4.98453 18.4341 5.83203 18.4377C6.17207 18.5771 6.35434 18.831 6.37891 19.1995C6.34922 19.5727 6.16691 19.8332 5.83203 19.9807Z" fill="#C79023"/>
<path opacity="0.98" fill-rule="evenodd" clip-rule="evenodd" d="M20.4805 14.6289C20.4805 15.5404 20.4805 16.4518 20.4805 17.3633C20.1419 18.7695 19.2695 19.6419 17.8633 19.9805C16.9518 19.9805 16.0403 19.9805 15.1289 19.9805C14.5871 19.6755 14.4633 19.2458 14.7578 18.6914C14.8578 18.573 14.9815 18.4884 15.1289 18.4375C15.8711 18.4245 16.6133 18.4114 17.3555 18.3984C18.1489 18.3437 18.6503 17.9336 18.8594 17.168C18.9078 16.3227 18.9338 15.4764 18.9375 14.6289C19.0769 14.2889 19.3308 14.1066 19.6992 14.082C20.0711 14.1112 20.3315 14.2935 20.4805 14.6289Z" fill="#C79023"/>
</g>
<defs>
<clipPath id="clip0_616_2">
<rect width="20" height="20" fill="white" transform="translate(0.5)"/>
</clipPath>
</defs>
</svg>
