<svg width="20" height="20" viewBox="0 0 20 20" fill="none" xmlns="http://www.w3.org/2000/svg">
<g clip-path="url(#clip0_327_2216)">
<path d="M2.40614 0.257812C1.74989 0.417969 1.21864 0.902344 0.992076 1.55859C0.910044 1.79688 0.886607 1.94531 0.870982 2.42578L0.847544 3.00391L0.687388 3.03125C0.597544 3.04297 0.480357 3.07812 0.425669 3.10938C0.273326 3.18359 0.0858256 3.41406 0.0389506 3.58203C0.00770062 3.6875 -0.000111877 5.62109 0.00770062 10.2344L0.0194194 16.7383L0.113169 16.8867C0.163951 16.9688 0.269419 17.0781 0.347544 17.1289C0.425669 17.1797 2.21864 17.8008 4.32801 18.5117L8.17176 19.8047H9.99989H11.828L15.6679 18.5156C17.7811 17.8047 19.5741 17.1797 19.6522 17.1289C19.7304 17.0781 19.8358 16.9688 19.8866 16.8867C19.9804 16.7422 19.9804 16.7188 19.9921 15.6055C20.0038 14.4922 19.9999 14.4688 19.9139 14.3008C19.8632 14.2031 19.7577 14.0703 19.6757 14.0078C19.535 13.8945 19.4999 13.8867 19.2186 13.8867C18.9374 13.8867 18.9022 13.8945 18.7616 14.0078C18.6796 14.0703 18.5741 14.2031 18.5233 14.2969C18.4452 14.457 18.4374 14.5195 18.4374 15.2031C18.4374 15.6055 18.4335 15.9375 18.4257 15.9375C18.4179 15.9375 17.0819 16.3867 15.4569 16.9336L12.4999 17.9258V12.4102V6.89453L13.039 6.71094C13.3319 6.61328 14.6679 6.16406 16.0077 5.71094L18.4374 4.89062V7.88672C18.4374 10.7148 18.4413 10.8867 18.5116 11.0352C18.7968 11.6484 19.6405 11.6484 19.9257 11.0352C19.996 10.8867 19.9999 10.6992 19.9999 7.27344C19.9999 3.33203 20.0116 3.51953 19.7733 3.26953C19.6405 3.12891 19.5155 3.0625 19.3124 3.03125L19.1522 3.00391L19.1288 2.42578C19.1054 1.76172 19.0233 1.46094 18.7733 1.07812C18.3866 0.5 17.6913 0.160156 16.9921 0.207031C16.7343 0.222656 16.3866 0.335938 14.16 1.12109C12.7616 1.61719 11.4882 2.08594 11.328 2.16797C10.9335 2.36328 10.5624 2.64453 10.2538 2.97656L9.99989 3.25L9.74598 2.97656C9.22645 2.41406 8.80848 2.17578 7.62879 1.75391C5.48036 0.988281 3.51161 0.300781 3.3202 0.25C3.05848 0.183594 2.70692 0.183594 2.40614 0.257812ZM5.33583 2.60156C6.64442 3.0625 7.80458 3.48047 7.91004 3.53125C8.60145 3.85156 9.10145 4.55078 9.20301 5.33594L9.22645 5.54688H8.8202H8.41395L5.44911 4.54688C3.81629 4 2.46473 3.53516 2.44911 3.51953C2.42958 3.5 2.42176 3.16797 2.42958 2.78125C2.44129 2.13672 2.44911 2.06641 2.52333 1.96484C2.61708 1.83984 2.75379 1.75781 2.87489 1.75781C2.91786 1.75781 4.02723 2.13672 5.33583 2.60156ZM17.4296 1.91016C17.5624 2.05859 17.5858 2.21875 17.5702 2.94922L17.5585 3.53516L14.5897 4.53906L11.621 5.54297H11.203C10.7147 5.54688 10.7382 5.57422 10.8358 5.11328C10.9725 4.48047 11.414 3.89062 11.9882 3.58203C12.0858 3.52734 12.828 3.25 13.6327 2.96484C14.4374 2.68359 15.5272 2.29297 16.0546 2.10547C17.1327 1.71484 17.2421 1.69922 17.4296 1.91016ZM7.31629 6.82812L7.49989 6.89062V12.4102V17.9258L4.54286 16.9336C2.91786 16.3867 1.58192 15.9375 1.57411 15.9375C1.5702 15.9375 1.56239 13.4531 1.56239 10.4141V4.89062L4.34754 5.82812C5.87489 6.34375 7.21083 6.79297 7.31629 6.82812ZM10.9296 12.6836L10.9374 18.2422H9.99989H9.06239V12.7031C9.06239 9.65625 9.07411 7.14844 9.08973 7.13281C9.10536 7.12109 9.51942 7.11328 10.0155 7.11719L10.9179 7.12891L10.9296 12.6836Z" fill="white"/>
<path d="M15.7614 8.92578C15.6755 8.95703 15.3903 9.05469 15.1247 9.14453C14.8513 9.23438 14.5935 9.34766 14.5231 9.40625C14.2185 9.66406 14.1755 10.1367 14.4294 10.4805C14.5231 10.6094 14.8552 10.7812 15.0114 10.7812C15.0739 10.7812 15.4216 10.6836 15.7888 10.5625C16.3591 10.375 16.4724 10.3242 16.5974 10.1992C16.9724 9.82422 16.8708 9.20312 16.3981 8.96875C16.1716 8.85547 15.9919 8.84375 15.7614 8.92578Z" fill="white"/>
</g>
<defs>
<clipPath id="clip0_327_2216">
<rect width="20" height="20" fill="white"/>
</clipPath>
</defs>
</svg>
