<svg width="20" height="20" viewBox="0 0 20 20" fill="none" xmlns="http://www.w3.org/2000/svg">
<g clip-path="url(#clip0_327_2390)">
<path d="M5.16329 3.29848C5.43775 3.53399 5.48877 3.82015 5.56383 4.16014C5.78438 5.09418 6.11817 5.87772 6.9635 6.40454C7.43365 6.68796 7.93744 6.85867 8.46391 7.00423C8.49348 7.01251 8.52305 7.02078 8.55351 7.02931C8.60912 7.04467 8.66486 7.05953 8.72077 7.07375C8.94355 7.13471 9.1277 7.23778 9.2795 7.41469C9.40736 7.66871 9.42547 7.94322 9.34908 8.21761C9.2632 8.41427 9.13478 8.53197 8.94518 8.6328C8.78685 8.68984 8.62616 8.73558 8.46386 8.77988C7.49 9.04754 6.54233 9.41032 5.99809 10.3207C5.73218 10.7978 5.57945 11.3188 5.51012 11.8603C5.47103 12.1164 5.36724 12.3123 5.16588 12.4782C4.94551 12.6099 4.70216 12.6106 4.45299 12.5781C4.20438 12.5089 4.07016 12.3697 3.94518 12.1484C3.90299 12.0357 3.87616 11.9215 3.84996 11.8042C3.83375 11.7382 3.81737 11.6723 3.80083 11.6064C3.79251 11.5731 3.78419 11.5399 3.77561 11.5056C3.54212 10.6048 3.12775 9.82801 2.31188 9.33194C1.87958 9.08385 1.41101 8.93681 0.937365 8.78905C0.851839 8.76236 0.766354 8.7356 0.681026 8.70828C0.610762 8.68581 0.540306 8.66393 0.469835 8.64211C0.253348 8.55367 0.124147 8.42846 0.0283985 8.21898C-0.0543058 7.94654 -0.0321726 7.6678 0.095232 7.41469C0.313619 7.16018 0.574724 7.09637 0.888536 7.01903C1.84901 6.76577 2.79435 6.38529 3.32033 5.493C3.56172 5.06355 3.68754 4.62376 3.80588 4.14971C3.83779 4.02383 3.87226 3.8991 3.90856 3.7744C3.92495 3.71715 3.92495 3.71715 3.94167 3.65874C4.02738 3.44923 4.157 3.32398 4.359 3.23165C4.63143 3.14894 4.91018 3.17107 5.16329 3.29848ZM4.6483 6.40624C4.58868 6.48652 4.53282 6.56727 4.4774 6.65038C4.13896 7.13808 3.73004 7.48108 3.24205 7.81249C3.18968 7.85117 3.13746 7.89005 3.0858 7.92967C3.12221 7.95243 3.15861 7.97519 3.19612 7.99864C3.73925 8.34497 4.31357 8.78365 4.60924 9.37499C4.75814 9.32535 4.78482 9.26625 4.87291 9.13817C5.2267 8.64197 5.64552 8.26502 6.18364 7.97347C6.20549 7.95902 6.22735 7.94456 6.24986 7.92967C6.24986 7.90389 6.24986 7.87811 6.24986 7.85155C6.16945 7.79743 6.08889 7.7473 6.00572 7.69774C5.51236 7.39204 5.05031 6.97257 4.76579 6.46224C4.7528 6.44376 4.73981 6.42528 4.72643 6.40624C4.70065 6.40624 4.67486 6.40624 4.6483 6.40624Z" fill="#C79023"/>
<path d="M10.476 10.7594C10.7504 10.9949 10.8014 11.2811 10.8765 11.6211C11.0971 12.5551 11.4308 13.3386 12.2762 13.8654C12.7463 14.1489 13.2501 14.3196 13.7766 14.4651C13.8062 14.4734 13.8357 14.4817 13.8662 14.4902C13.9218 14.5056 13.9775 14.5204 14.0334 14.5347C14.2562 14.5956 14.4404 14.6987 14.5922 14.8756C14.72 15.1296 14.7381 15.4041 14.6618 15.6785C14.5759 15.8752 14.4475 15.9929 14.2579 16.0937C14.0981 16.1515 13.9359 16.1981 13.7721 16.243C13.6398 16.2795 13.5082 16.3182 13.3767 16.3571C13.351 16.3646 13.3254 16.3722 13.299 16.38C12.4587 16.6313 11.723 17.0685 11.2891 17.8515C11.0998 18.2144 10.9796 18.5957 10.8913 18.9941C10.8832 19.0303 10.875 19.0665 10.8667 19.1038C10.8508 19.1756 10.8355 19.2474 10.8209 19.3194C10.7616 19.5889 10.6713 19.7777 10.4587 19.9572C10.3063 20.018 10.1677 20.02 10.0049 20.0195C9.97456 20.0206 9.94419 20.0217 9.91291 20.0228C9.71764 20.0235 9.58555 19.9917 9.43328 19.8662C9.20943 19.6295 9.16534 19.2982 9.09428 18.9917C8.9419 18.3733 8.73458 17.7699 8.28129 17.3046C8.25344 17.2753 8.2256 17.2459 8.19691 17.2157C7.62233 16.6545 6.82951 16.395 6.06983 16.1962C5.80285 16.1232 5.59305 16.0432 5.4079 15.8274C5.28004 15.5734 5.26193 15.2989 5.33832 15.0245C5.42422 14.8278 5.55258 14.7102 5.74222 14.6093C5.90202 14.5515 6.06419 14.505 6.22802 14.46C6.36016 14.4235 6.49165 14.3849 6.62311 14.3461C6.64874 14.3386 6.67436 14.331 6.70076 14.3232C7.54783 14.0698 8.26498 13.6038 8.71647 12.8305C8.93795 12.4178 9.04249 11.9682 9.14549 11.5146C9.21627 11.2095 9.27887 10.9698 9.52412 10.7594C9.829 10.6059 10.1711 10.6059 10.476 10.7594ZM9.96097 13.8671C9.91382 13.9272 9.8696 13.9895 9.8267 14.0527C9.44613 14.5847 9.00276 14.9847 8.43754 15.3125C8.48716 15.4613 8.53594 15.4742 8.66947 15.5517C8.87519 15.6771 9.04532 15.821 9.21894 15.9874C9.2896 16.0632 9.2896 16.0632 9.37504 16.0546C9.38486 16.077 9.39468 16.0994 9.40479 16.1224C9.45949 16.2225 9.52401 16.2939 9.60209 16.3769C9.74481 16.5337 9.8545 16.692 9.96097 16.875C10.0345 16.7838 10.1075 16.6923 10.1789 16.5994C10.2488 16.5084 10.3196 16.4182 10.3907 16.3281C10.4102 16.3027 10.4297 16.2772 10.4499 16.251C10.748 15.8844 11.165 15.6008 11.5625 15.3515C11.4409 15.2502 11.315 15.1594 11.1841 15.0708C10.7754 14.7857 10.3788 14.4286 10.1197 13.999C10.0798 13.9337 10.0798 13.9337 10.0391 13.8671C10.0133 13.8671 9.98754 13.8671 9.96097 13.8671Z" fill="#C79023"/>
<path d="M15.7885 3.29845C16.0629 3.53396 16.1139 3.82012 16.189 4.16011C16.4096 5.09415 16.7433 5.87769 17.5887 6.40451C18.0588 6.68793 18.5626 6.85864 19.0891 7.0042C19.1187 7.01248 19.1482 7.02075 19.1787 7.02928C19.2343 7.04464 19.29 7.0595 19.3459 7.07372C19.5687 7.13468 19.7529 7.23775 19.9047 7.41466C20.0211 7.64588 20.0295 7.86979 20 8.12496C19.9223 8.35001 19.7803 8.48736 19.5899 8.62545C18.8224 8.88583 17.7857 8.34656 17.1045 8.01509C16.4154 7.66863 15.7579 7.14763 15.3516 6.48433C15.3516 6.45855 15.3516 6.43277 15.3516 6.40621C15.2536 6.49669 15.1728 6.59131 15.0953 6.69918C14.755 7.15541 14.3053 7.66362 13.75 7.85152C13.8394 7.94716 13.9345 8.01787 14.043 8.09078C14.554 8.44509 14.9162 8.83101 15.2735 9.33589C15.3075 9.29314 15.3075 9.29314 15.3421 9.24953C15.7565 8.73413 15.7565 8.73413 15.9766 8.67183C16.2777 8.64141 16.5157 8.63638 16.7578 8.82808C16.9443 9.01055 17.033 9.18153 17.0484 9.44087C17.0409 9.75513 16.8708 9.9876 16.7017 10.2417C16.3997 10.7138 16.2769 11.223 16.1572 11.7652C16.0892 12.06 16.0245 12.2802 15.7885 12.4827C15.5344 12.6106 15.2599 12.6287 14.9855 12.5523C14.7866 12.4654 14.6763 12.3361 14.5703 12.1484C14.5273 12.0341 14.4996 11.9183 14.4727 11.7993C14.4563 11.7331 14.4398 11.6669 14.4233 11.6008C14.4152 11.5679 14.4071 11.5351 14.3988 11.5013C14.1947 10.6833 13.8506 9.91368 13.1186 9.4392C12.6174 9.14856 12.0969 8.93272 11.5389 8.77712C11.5093 8.76882 11.4798 8.76052 11.4493 8.75197C11.3934 8.73655 11.3373 8.72166 11.2811 8.70743C11.0572 8.64666 10.8729 8.54423 10.7204 8.3665C10.5925 8.11248 10.5744 7.83798 10.6508 7.56359C10.7367 7.36688 10.8651 7.24922 11.0547 7.14839C11.2145 7.09059 11.3767 7.04403 11.5405 6.99907C11.6727 6.9626 11.8042 6.924 11.9356 6.88518C11.9612 6.87762 11.9869 6.87005 12.0133 6.86226C12.8603 6.6089 13.5775 6.14284 14.029 5.36952C14.2505 4.9569 14.355 4.50728 14.458 4.0537C14.5288 3.74857 14.5914 3.50889 14.8366 3.29845C15.1415 3.14498 15.4836 3.14498 15.7885 3.29845Z" fill="#C79023"/>
<path d="M10.4759 0.134417C10.7172 0.34151 10.7898 0.593902 10.8604 0.892931C10.9207 1.12489 11.0143 1.25239 11.2208 1.38442C11.401 1.47195 11.5787 1.54368 11.77 1.60399C12.0044 1.67995 12.1489 1.75838 12.2778 1.97264C12.3842 2.20557 12.3861 2.46476 12.3179 2.70979C12.2212 2.93129 12.0526 3.06847 11.8297 3.15939C11.71 3.19896 11.5892 3.23382 11.4681 3.26842C11.2624 3.33112 11.1298 3.40207 10.9765 3.55467C10.9092 3.69961 10.8671 3.84004 10.8231 3.99336C10.8101 4.03793 10.7971 4.08249 10.7836 4.1284C10.772 4.17045 10.7604 4.2125 10.7484 4.25581C10.6653 4.47441 10.5372 4.60254 10.3283 4.69801C10.0875 4.77111 9.82388 4.76667 9.59222 4.66551C9.27236 4.47188 9.20293 4.15492 9.10592 3.81804C9.05517 3.596 9.05517 3.596 8.91641 3.43108C8.88725 3.4203 8.8581 3.40953 8.82806 3.39842C8.77164 3.37622 8.77164 3.37622 8.71408 3.35356C8.67193 3.33775 8.62978 3.32194 8.58636 3.30565C7.91129 3.04653 7.91129 3.04653 7.70257 2.75145C7.61587 2.50048 7.60886 2.22123 7.71722 1.97508C7.87549 1.71275 8.09675 1.63173 8.3764 1.54296C8.75268 1.4344 8.75268 1.4344 9.03207 1.17735C9.13383 0.96532 9.19163 0.734768 9.25286 0.508409C9.33433 0.290038 9.46367 0.162611 9.67156 0.0675831C9.944 -0.0151213 10.2227 0.00701193 10.4759 0.134417Z" fill="#C79023"/>
<path d="M2.81961 15.4469C3.06095 15.654 3.13355 15.9064 3.20413 16.2054C3.2644 16.4374 3.35809 16.5649 3.56454 16.6969C3.74479 16.7845 3.92242 16.8562 4.1137 16.9165C4.36118 16.9963 4.53327 17.0922 4.65859 17.3315C4.73514 17.5713 4.73658 17.8418 4.64562 18.0768C4.48326 18.3447 4.28735 18.4294 3.9985 18.5222C3.97292 18.5304 3.94733 18.5386 3.92098 18.5471C3.84582 18.5708 3.77026 18.5932 3.6947 18.6156C3.48647 18.6993 3.35372 18.7951 3.25677 19.0039C3.22421 19.1039 3.19586 19.2048 3.1669 19.3059C3.15385 19.3504 3.14081 19.395 3.12738 19.4409C3.11574 19.483 3.10411 19.525 3.09213 19.5683C3.02847 19.7357 2.94319 19.8401 2.8048 19.9524C2.65123 20.0191 2.51435 20.0201 2.34857 20.0195C2.3182 20.0206 2.28784 20.0217 2.25656 20.0229C2.05457 20.0236 1.93423 19.9837 1.77431 19.8601C1.5761 19.6627 1.5178 19.3633 1.4425 19.1035C1.39266 18.8964 1.39266 18.8964 1.26016 18.7436C1.231 18.7328 1.20185 18.722 1.17181 18.7109C1.11539 18.6887 1.11539 18.6887 1.05783 18.6661C1.01568 18.6503 0.973533 18.6344 0.93011 18.6182C0.255036 18.359 0.255036 18.359 0.0463207 18.064C-0.0403788 17.813 -0.047393 17.5337 0.0609691 17.2876C0.21924 17.0252 0.440498 16.9442 0.720149 16.8555C1.09643 16.7469 1.09643 16.7469 1.37582 16.4899C1.47758 16.2778 1.53538 16.0473 1.59661 15.8209C1.67808 15.6025 1.80742 15.4751 2.01531 15.3801C2.28775 15.2974 2.56649 15.3195 2.81961 15.4469Z" fill="#C79023"/>
<path d="M18.1321 15.4469C18.3735 15.654 18.4461 15.9064 18.5166 16.2054C18.5769 16.4374 18.6706 16.5649 18.877 16.6969C19.0573 16.7845 19.2349 16.8562 19.4262 16.9165C19.6607 16.9925 19.8052 17.0709 19.934 17.2851C20.0405 17.5181 20.0424 17.7773 19.9741 18.0223C19.8774 18.2438 19.7088 18.381 19.4859 18.4719C19.3662 18.5115 19.2455 18.5463 19.1243 18.5809C18.9186 18.6436 18.7861 18.7146 18.6327 18.8672C18.5655 19.0121 18.5233 19.1525 18.4794 19.3059C18.4664 19.3504 18.4533 19.395 18.4399 19.4409C18.4282 19.483 18.4166 19.525 18.4046 19.5683C18.341 19.7357 18.2557 19.8401 18.1173 19.9524C17.9637 20.0191 17.8268 20.0201 17.6611 20.0195C17.6307 20.0206 17.6003 20.0217 17.5691 20.0229C17.3671 20.0236 17.2467 19.9837 17.0868 19.8601C16.8886 19.6627 16.8303 19.3633 16.755 19.1035C16.7052 18.8964 16.7052 18.8964 16.5727 18.7436C16.5435 18.7328 16.5143 18.722 16.4843 18.7109C16.4279 18.6887 16.4279 18.6887 16.3703 18.6661C16.3282 18.6503 16.286 18.6344 16.2426 18.6182C15.5675 18.359 15.5675 18.359 15.3588 18.064C15.2721 17.813 15.2651 17.5337 15.3735 17.2876C15.5317 17.0252 15.753 16.9442 16.0326 16.8555C16.4089 16.7469 16.4089 16.7469 16.6883 16.4899C16.7901 16.2778 16.8479 16.0473 16.9091 15.8209C16.9906 15.6025 17.1199 15.4751 17.3278 15.3801C17.6003 15.2974 17.879 15.3195 18.1321 15.4469Z" fill="#C79023"/>
</g>
<defs>
<clipPath id="clip0_327_2390">
<rect width="20" height="20" fill="white"/>
</clipPath>
</defs>
</svg>
