<svg width="20" height="20" viewBox="0 0 20 20" fill="none" xmlns="http://www.w3.org/2000/svg">
<g clip-path="url(#clip0_327_2482)">
<path d="M16.0156 0.058599C15.875 0.089849 15.6289 0.179693 15.4688 0.257818C15.1953 0.39063 15.0781 0.496099 13.8242 1.7461L12.4688 3.09376L9.51562 3.81251C7.66016 4.26172 6.44141 4.57422 6.23438 4.65626C5.08594 5.1211 4.13672 6.04297 3.65234 7.17188C3.43359 7.68751 0.0390625 19.0039 0.0390625 19.2266C0.0390625 19.6836 0.441406 20.0469 0.875 19.9883C1.13672 19.9492 12.5312 16.4922 12.8633 16.3477C13.582 16.0352 14.4023 15.3438 14.8711 14.6484C15.0234 14.4219 15.2578 13.9531 15.3711 13.6524C15.4219 13.5234 15.5938 12.8555 15.7617 12.168C16.0938 10.7852 16.1055 10.668 15.9219 10.3906C15.75 10.1328 15.3867 9.9961 15.082 10.0781C14.9023 10.125 14.6719 10.3086 14.5938 10.4649C14.5625 10.5195 14.4141 11.0938 14.2578 11.7383C14.1016 12.3828 13.9336 13.0234 13.8789 13.1641C13.5742 13.9883 12.8672 14.6914 12.0547 14.9883C11.7422 15.1016 3.65234 17.5391 3.625 17.5313C3.60547 17.5234 4.34375 16.7695 5.26172 15.8516L6.93359 14.1797L7.55469 14.0234C8.95703 13.6641 9.96094 13.2578 10.3789 12.8789C10.8516 12.4453 11.0938 11.8828 11.0938 11.2109C11.0938 10.5274 10.8555 9.98438 10.3555 9.51954C10.0664 9.25391 9.75 9.08594 9.34375 8.98048C8.97266 8.88673 8.64453 8.88673 8.27344 8.98048C7.44141 9.19532 6.96484 9.65626 6.56641 10.6484C6.39453 11.0781 6.07422 12.1172 5.93359 12.7031L5.84375 13.082L4.14844 14.7734C3.21484 15.7031 2.46484 16.4297 2.47656 16.3867C2.53125 16.1875 4.85938 8.45704 4.94922 8.1836C5.07031 7.80079 5.26953 7.39844 5.46875 7.13282C5.76953 6.72266 6.28906 6.32422 6.78125 6.12891C6.94922 6.06251 8.29688 5.71485 9.85938 5.33204L12.6367 4.65626L14.1992 6.21485C15.2617 7.26954 15.8086 7.78907 15.9062 7.83204C16.1016 7.91016 16.3125 7.90626 16.5039 7.81641C16.6094 7.76563 17.1445 7.25391 18.125 6.26563C19.4492 4.92969 19.6055 4.75782 19.7188 4.51954C19.8984 4.14844 19.9609 3.86719 19.9609 3.45704C19.9609 3.04688 19.8906 2.74219 19.7188 2.38282C19.6172 2.16797 19.4688 1.9961 18.7812 1.30469C17.9102 0.425787 17.6953 0.261724 17.2266 0.113287C16.8906 0.00781775 16.3477 -0.0156198 16.0156 0.058599ZM16.7773 1.60547C16.9023 1.64063 17.0664 1.78126 17.5898 2.30079C17.9531 2.65626 18.2812 3.01563 18.3242 3.09376C18.4141 3.26954 18.4219 3.58204 18.3398 3.78126C18.2969 3.87501 17.9258 4.28126 17.2539 4.94922C16.6914 5.51563 16.2148 5.97657 16.1914 5.97657C16.1719 5.97657 15.6602 5.48438 15.0586 4.88282L13.9648 3.78907L14.9414 2.8086C15.8828 1.86329 16.1445 1.63282 16.3086 1.58985C16.4453 1.55469 16.6172 1.56251 16.7773 1.60547ZM9.21484 10.5977C9.42188 10.7344 9.53125 10.9531 9.53125 11.2188C9.53125 11.543 9.41406 11.707 9.07422 11.8789C8.84375 11.9961 7.73828 12.3867 7.65234 12.3828C7.58203 12.3828 8.0625 11.0352 8.22656 10.7774C8.42188 10.4649 8.88672 10.3828 9.21484 10.5977Z" fill="#C79023"/>
</g>
<defs>
<clipPath id="clip0_327_2482">
<rect width="20" height="20" fill="white"/>
</clipPath>
</defs>
</svg>
