<svg width="20" height="20" viewBox="0 0 20 20" fill="none" xmlns="http://www.w3.org/2000/svg">
<g clip-path="url(#clip0_327_2382)">
<path d="M1.28907 0.0585938C0.87891 0.175781 0.50391 0.457031 0.28516 0.828125C0.0351598 1.24219 0.0390661 1.16406 0.0390661 4.75391C0.0390661 8.09375 0.0507848 8.41406 0.199222 9.16016C0.558597 10.9609 1.69532 12.6992 3.40625 14.0664C4.32813 14.8008 5.54688 15.5352 6.3125 15.8164C6.57813 15.9141 6.60547 15.9336 6.82422 16.2305C7.78125 17.5156 9.2461 18.6836 10.957 19.5352C11.7031 19.9023 11.9766 19.9727 12.6953 19.9727C13.4258 19.9727 13.6758 19.9062 14.5313 19.4883C15.4531 19.0391 16.2461 18.543 16.4414 18.2969C16.8125 17.8242 16.4336 17.0703 15.8281 17.0703C15.6094 17.0703 15.4883 17.125 14.9883 17.4492C14.4453 17.8086 13.4492 18.3047 13.125 18.3867C12.8086 18.4609 12.375 18.4375 12.0547 18.3242C11.9297 18.2812 11.5703 18.1016 11.2578 17.9297C10.2891 17.3906 9.60938 16.8984 8.9375 16.2578C8.57422 15.9062 8.50391 15.8203 8.59375 15.8203C8.65625 15.8203 9.08594 15.6055 9.41016 15.4141L9.70313 15.2422L9.85938 15.4062C10.0195 15.5703 10.2383 15.6641 10.4531 15.6641C10.6406 15.6641 10.957 15.4922 11.0508 15.3398C11.3438 14.8633 11.9727 14.6094 12.7305 14.6602C13.3438 14.7031 13.707 14.8789 14.0117 15.2773C14.1914 15.5156 14.3711 15.625 14.6367 15.6562C14.8867 15.6836 15.2031 15.5195 15.3359 15.2891C15.5391 14.9414 15.4883 14.6094 15.1758 14.2109C14.6953 13.5977 13.8164 13.1719 12.8906 13.1016L12.5391 13.0742L12.6602 12.9336C13.2656 12.2109 13.6523 11.6758 13.8633 11.2578C13.9258 11.1367 13.9688 11.0938 14.0352 11.0938C14.1875 11.0938 14.5234 10.9023 14.6055 10.7656C14.7188 10.582 14.9531 10.4883 15.293 10.4883C15.6211 10.4883 15.8281 10.5781 16.1055 10.8359C16.5352 11.2422 17.1133 11.1523 17.3633 10.6484C17.5781 10.2148 17.418 9.83594 16.8555 9.43359C16.2617 9.00781 15.4883 8.82031 14.8516 8.94141L14.6797 8.97656L14.7031 8.85156C14.7695 8.50391 14.8047 7.90234 14.8047 7.14453V6.30078L15.3242 6.23438C16.2773 6.10938 17.2813 5.89844 18.0977 5.66016C18.3125 5.59766 18.375 5.58984 18.4219 5.62891C18.4727 5.67188 18.4766 6.11328 18.4688 9.03906C18.457 12.0703 18.4453 12.4375 18.3828 12.7734C18.2813 13.3125 18.0508 13.9766 17.7578 14.5703C17.4609 15.168 17.4453 15.2773 17.6094 15.5898C17.6953 15.7578 17.7578 15.8203 17.9297 15.9102C18.1133 16.0078 18.1758 16.0195 18.3555 16C18.668 15.9727 18.8398 15.832 19.0664 15.4336C19.4297 14.8008 19.6953 14.0742 19.8945 13.1875C19.9805 12.793 19.9805 12.7852 19.9805 9.00391V5.21484L19.8711 4.99219C19.5 4.23828 18.6992 3.875 17.8906 4.09766C16.8281 4.39062 16.0898 4.55078 15.3711 4.64844C15.1992 4.67188 15 4.69922 14.9297 4.71094L14.8047 4.73047V3.11719C14.8047 1.35938 14.7891 1.21875 14.582 0.859375C14.1758 0.171875 13.4219 -0.136719 12.6563 0.0742188C11.0234 0.523438 10.082 0.683594 8.57422 0.78125C6.57422 0.90625 4.27735 0.671875 2.56641 0.167969C2.00782 0.00390625 1.61328 -0.03125 1.28907 0.0585938ZM2.30469 1.71484C5.5586 2.62109 9.62891 2.58984 12.8633 1.63672C13.0781 1.57422 13.1406 1.56641 13.1875 1.60547C13.2383 1.64844 13.2422 2.08594 13.2305 4.99609C13.2188 8.67969 13.2227 8.58594 12.9648 9.41406C12.8047 9.91016 12.4023 10.7148 12.0781 11.1719C11.7188 11.6797 10.7617 12.6367 10.1953 13.0547C9.61719 13.4805 8.97266 13.8789 8.37891 14.1797C7.94922 14.4023 7.88282 14.4219 7.59766 14.4414C7.04297 14.4805 6.58985 14.3047 5.53125 13.6523C3.98438 12.7031 2.88282 11.5742 2.25 10.293C1.97266 9.73828 1.84375 9.37109 1.71094 8.79297C1.62891 8.42578 1.625 8.34375 1.61328 5.04688C1.60157 2.40234 1.60938 1.66016 1.64453 1.61328C1.69922 1.54688 1.69532 1.54688 2.30469 1.71484Z" fill="#C79023"/>
<path d="M4.25819 4.94528C3.62148 5.07809 2.84023 5.62887 2.73476 6.01559C2.57069 6.62887 3.09023 7.16012 3.69569 6.99215C3.80116 6.9609 3.9496 6.87497 4.06679 6.7695C4.53554 6.34762 5.0746 6.34372 5.56679 6.75778C5.82851 6.97653 6.02773 7.05075 6.28554 7.01559C6.74257 6.95309 7.03944 6.50778 6.91835 6.06637C6.85585 5.82418 6.72694 5.66012 6.43007 5.44137C5.79726 4.96872 4.99648 4.78512 4.25819 4.94528Z" fill="#C79023"/>
<path d="M9.49239 4.94526C8.91426 5.06635 8.14082 5.58198 7.98848 5.94526C7.80098 6.40229 8.09786 6.94136 8.57832 7.01557C8.83614 7.05464 9.07442 6.97261 9.30098 6.76948C9.76973 6.3476 10.3088 6.3437 10.801 6.75776C11.0627 6.97651 11.2619 7.05073 11.5197 7.01557C11.9768 6.95307 12.2736 6.50776 12.1525 6.06635C12.09 5.82417 11.9611 5.6601 11.6643 5.44135C11.0315 4.9687 10.2307 4.7851 9.49239 4.94526Z" fill="#C79023"/>
<path d="M4.98848 9.10155C4.80488 9.16014 4.62129 9.32421 4.53145 9.51561C4.26582 10.0586 4.76973 10.8047 5.72285 11.2812C6.67207 11.7539 8.01973 11.7539 9.0041 11.2695C9.77363 10.8945 10.3361 10.2109 10.2619 9.74217C10.1994 9.36717 9.93379 9.11327 9.5627 9.07421C9.25801 9.04296 9.03535 9.15624 8.82441 9.44139C8.49238 9.88671 8.09395 10.0547 7.36348 10.0586C6.63301 10.0586 6.2502 9.89842 5.91035 9.44921C5.8166 9.3203 5.67988 9.19921 5.59785 9.16014C5.42598 9.07811 5.14473 9.05077 4.98848 9.10155Z" fill="#C79023"/>
</g>
<defs>
<clipPath id="clip0_327_2382">
<rect width="20" height="20" fill="white"/>
</clipPath>
</defs>
</svg>
