<svg width="20" height="20" viewBox="0 0 20 20" fill="none" xmlns="http://www.w3.org/2000/svg">
<g clip-path="url(#clip0_327_2366)">
<path opacity="0.974" fill-rule="evenodd" clip-rule="evenodd" d="M14.5898 -0.0195312C14.8763 -0.0195312 15.1628 -0.0195312 15.4492 -0.0195312C16.2859 0.154858 16.9435 0.597566 17.4219 1.30859C17.6964 1.85049 17.7876 2.42341 17.6953 3.02734C17.4512 4.1341 16.9629 5.11719 16.2305 5.97656C17.2386 6.3048 18.1631 6.78656 19.0039 7.42188C19.4861 7.85723 19.8116 8.38457 19.9805 9.00391C19.9805 9.27734 19.9805 9.55078 19.9805 9.82422C19.7701 10.5109 19.3795 11.0773 18.8086 11.5234C17.5652 12.3723 16.198 12.9322 14.707 13.2031C12.2104 13.6789 9.6973 13.7831 7.16797 13.5156C5.49953 13.3492 3.89796 12.9325 2.36328 12.2656C2.09649 12.1257 1.83607 11.976 1.58203 11.8164C1.53002 12.1432 1.53653 12.4687 1.60156 12.793C1.81227 13.1496 2.09221 13.4426 2.44141 13.6719C3.62859 14.3193 4.8916 14.749 6.23047 14.9609C8.65039 15.3355 11.0723 15.3485 13.4961 15C14.0484 14.9078 14.5952 14.7906 15.1367 14.6484C15.7493 14.5584 16.0879 14.8188 16.1523 15.4297C16.1544 15.7382 16.0242 15.9725 15.7617 16.1328C14.3309 16.5344 12.8726 16.7688 11.3867 16.8359C8.9391 16.9857 6.53027 16.7513 4.16016 16.1328C3.24736 15.8787 2.38798 15.5076 1.58203 15.0195C1.50113 15.4146 1.5467 15.7922 1.71875 16.1523C2.28826 16.7273 2.95883 17.1505 3.73047 17.4219C5.14652 17.9227 6.60484 18.2221 8.10547 18.3203C10.2604 18.4978 12.3959 18.3676 14.5117 17.9297C15.5737 17.7059 16.5763 17.3284 17.5195 16.7969C17.7847 16.6099 18.0255 16.395 18.2422 16.1523C18.3275 16.0209 18.3796 15.8776 18.3984 15.7227C18.4114 15.0846 18.4245 14.4466 18.4375 13.8086C18.6136 13.3526 18.9456 13.1768 19.4336 13.2812C19.7141 13.36 19.8964 13.5358 19.9805 13.8086C19.9805 14.5898 19.9805 15.3711 19.9805 16.1523C19.6945 17.0543 19.1346 17.7379 18.3008 18.2031C17.1728 18.8309 15.9748 19.2736 14.707 19.5312C13.5783 19.7567 12.4455 19.9065 11.3086 19.9805C10.4232 19.9805 9.53777 19.9805 8.65234 19.9805C7.0391 19.8937 5.45055 19.6268 3.88672 19.1797C2.81645 18.8594 1.83989 18.3646 0.957031 17.6953C0.48684 17.2685 0.161319 16.7542 -0.0195312 16.1523C-0.0195312 13.7175 -0.0195312 11.2825 -0.0195312 8.84766C0.149167 8.21902 0.51375 7.73074 1.07422 7.38281C1.45395 7.16691 1.84458 6.9716 2.24609 6.79688C3.26172 6.41926 4.27734 6.04168 5.29297 5.66406C6.43156 5.21211 7.49926 4.63922 8.49609 3.94531C9.86234 2.89764 11.2426 1.86899 12.6367 0.859375C13.2382 0.447816 13.8892 0.154846 14.5898 -0.0195312ZM14.7852 1.58203C15.3246 1.52952 15.7477 1.72484 16.0547 2.16797C16.1295 2.46655 16.1295 2.76604 16.0547 3.06641C15.7807 3.83614 15.3771 4.52625 14.8438 5.13672C12.5927 7.62047 9.83879 9.29363 6.58203 10.1562C5.39324 10.4268 4.19535 10.4789 2.98828 10.3125C2.64576 10.2417 2.32024 10.1245 2.01172 9.96094C1.55404 9.6677 1.47592 9.30312 1.77734 8.86719C2.23945 8.55801 2.73425 8.31062 3.26172 8.125C4.8875 7.59195 6.46305 6.9409 7.98828 6.17188C8.45441 5.90086 8.91016 5.61441 9.35547 5.3125C10.7377 4.25578 12.1309 3.21413 13.5352 2.1875C13.9295 1.93168 14.3462 1.72986 14.7852 1.58203ZM14.9805 7.28516C16.0089 7.53906 16.9594 7.96223 17.832 8.55469C18.0521 8.73551 18.2279 8.95035 18.3594 9.19922C18.4072 9.42453 18.3682 9.63285 18.2422 9.82422C17.795 10.325 17.2546 10.6961 16.6211 10.9375C14.9 11.5998 13.1161 11.9645 11.2695 12.0312C10.4102 12.0573 9.55078 12.0573 8.69141 12.0312C7.98281 11.9995 7.27969 11.9213 6.58203 11.7969C8.63574 11.3599 10.5368 10.5657 12.2852 9.41406C13.2573 8.79777 14.1558 8.08812 14.9805 7.28516Z" fill="#C79023"/>
<path opacity="0.963" fill-rule="evenodd" clip-rule="evenodd" d="M13.3398 3.33982C14.0748 3.28699 14.4068 3.62553 14.3359 4.35545C14.3044 4.47053 14.2524 4.57467 14.1797 4.66795C13.4901 5.30857 12.7544 5.88803 11.9726 6.40623C11.5507 6.68916 11.1341 6.68916 10.7226 6.40623C10.4702 6.04002 10.4637 5.66892 10.7031 5.29295C11.5314 4.80346 12.2931 4.22404 12.9882 3.55467C13.0962 3.46192 13.2134 3.39031 13.3398 3.33982Z" fill="#C79023"/>
</g>
<defs>
<clipPath id="clip0_327_2366">
<rect width="20" height="20" fill="white"/>
</clipPath>
</defs>
</svg>
