<svg width="20" height="20" viewBox="0 0 20 20" fill="none" xmlns="http://www.w3.org/2000/svg">
<g clip-path="url(#clip0_327_2521)">
<path opacity="0.971" fill-rule="evenodd" clip-rule="evenodd" d="M9.08203 -0.0195312C9.65496 -0.0195312 10.2279 -0.0195312 10.8008 -0.0195312C12.2998 0.126358 13.7061 0.575578 15.0195 1.32812C15.3036 1.49292 15.5705 1.68173 15.8203 1.89453C16.0024 2.2215 16.0024 2.54703 15.8203 2.87109C15.5982 3.13179 15.3182 3.22945 14.9805 3.16406C14.5646 2.93097 14.1479 2.69659 13.7305 2.46094C11.7862 1.51575 9.76793 1.32044 7.67578 1.875C4.71355 2.80599 2.76693 4.75262 1.83594 7.71484C1.0242 11.169 1.92914 14.0792 4.55078 16.4453C7.19398 18.4916 10.0846 18.9213 13.2227 17.7344C13.6393 17.5261 14.056 17.3177 14.4727 17.1094C15.2453 17.0356 15.5773 17.3806 15.4688 18.1445C15.3711 18.3984 15.1953 18.5742 14.9414 18.6719C13.6462 19.3879 12.266 19.8241 10.8008 19.9805C10.2279 19.9805 9.65496 19.9805 9.08203 19.9805C5.56426 19.5666 2.91453 17.8348 1.13281 14.7852C0.539559 13.6631 0.155445 12.4782 -0.0195312 11.2305C-0.0195312 10.3971 -0.0195312 9.56379 -0.0195312 8.73047C0.584496 4.99504 2.60273 2.33227 6.03516 0.742188C7.01902 0.339973 8.03465 0.0860672 9.08203 -0.0195312Z" fill="white"/>
<path opacity="0.968" fill-rule="evenodd" clip-rule="evenodd" d="M18.9258 1.58202C19.4135 1.49685 19.7455 1.67914 19.9219 2.12889C19.9624 2.35914 19.9364 2.58049 19.8437 2.79296C17.0964 6.21745 14.3489 9.6419 11.6016 13.0664C10.8449 13.8698 9.96597 14.0326 8.96484 13.5547C7.39745 12.1566 5.86753 10.7178 4.37499 9.23827C4.22656 8.89737 4.25257 8.57186 4.45312 8.26171C4.76785 8.00698 5.11288 7.96139 5.48827 8.12499C6.92179 9.49346 8.3671 10.8476 9.82421 12.1875C10.0296 12.2432 10.2053 12.1976 10.3516 12.0508C13.0859 8.63932 15.8203 5.22784 18.5547 1.81639C18.6657 1.71238 18.7894 1.63426 18.9258 1.58202Z" fill="white"/>
<path opacity="0.969" fill-rule="evenodd" clip-rule="evenodd" d="M18.6132 6.89454C19.121 6.8129 19.466 7.00822 19.6484 7.48048C20.3444 10.4468 19.8431 13.1877 18.1445 15.7031C17.7799 15.9375 17.4153 15.9375 17.0507 15.7031C16.8334 15.4633 16.7618 15.1834 16.8359 14.8633C17.1056 14.389 17.3661 13.9072 17.6171 13.418C18.4098 11.5565 18.5595 9.6424 18.0664 7.67579C18.0952 7.30478 18.2775 7.04439 18.6132 6.89454Z" fill="white"/>
</g>
<defs>
<clipPath id="clip0_327_2521">
<rect width="20" height="20" fill="white"/>
</clipPath>
</defs>
</svg>
