<svg width="20" height="20" viewBox="0 0 20 20" fill="none" xmlns="http://www.w3.org/2000/svg">
<g clip-path="url(#clip0_327_2371)">
<path d="M14.2764 0.216513C14.3671 0.282962 14.449 0.352807 14.531 0.429678C14.5559 0.452992 14.5808 0.476306 14.6065 0.500326C14.9 0.80394 15.043 1.20887 15.0485 1.62597C15.0495 1.67078 15.0505 1.7156 15.0516 1.76177C15.0245 2.08321 14.9061 2.36102 14.7531 2.64159C14.7363 2.67304 14.7195 2.70448 14.7021 2.73688C14.5417 3.03345 14.3711 3.32405 14.1999 3.61451C14.0256 3.91103 13.8572 4.21048 13.6911 4.51171C13.4859 4.88349 13.2766 5.25231 13.0605 5.6179C12.8156 6.03353 12.5802 6.45466 12.3435 6.87499C12.3816 6.87464 12.4197 6.8743 12.4589 6.87394C12.8198 6.87076 13.1806 6.86842 13.5415 6.8669C13.727 6.86608 13.9125 6.86498 14.0979 6.8632C14.2773 6.86149 14.4566 6.86057 14.6359 6.86017C14.704 6.85988 14.7721 6.85932 14.8402 6.85847C15.3967 6.85181 15.8332 6.91937 16.2888 7.26562C16.329 7.29381 16.3693 7.32201 16.4108 7.35107C16.6946 7.59778 16.8468 7.9686 16.9528 8.3203C16.9641 8.35671 16.9641 8.35671 16.9756 8.39385C17.0736 8.89054 16.9622 9.37619 16.7038 9.80468C16.5618 10.0136 16.4096 10.176 16.1716 10.2734C15.8904 10.3088 15.6453 10.3074 15.4131 10.1338C15.2104 9.95113 15.1155 9.77557 15.0998 9.50439C15.1032 9.27969 15.1887 9.02976 15.3513 8.86718C15.3401 8.67089 15.3401 8.67089 15.2341 8.51562C15.12 8.4772 15.0148 8.47168 14.895 8.47169C14.8402 8.47154 14.8402 8.47154 14.7842 8.47138C14.7244 8.47151 14.7244 8.47151 14.6634 8.47163C14.6001 8.47152 14.6001 8.47152 14.5356 8.47141C14.4439 8.47126 14.3523 8.47117 14.2606 8.47116C14.0657 8.47103 13.8708 8.47019 13.6759 8.46939C13.3129 8.46791 12.95 8.46669 12.587 8.46677C12.3346 8.4668 12.0821 8.46589 11.8297 8.46435C11.7336 8.46394 11.6374 8.46388 11.5413 8.46418C11.4067 8.46456 11.2721 8.46373 11.1374 8.46263C11.0979 8.46303 11.0584 8.46343 11.0176 8.46384C10.7598 8.46007 10.5904 8.40763 10.3903 8.24218C10.2297 8.07312 10.154 7.9143 10.1315 7.6831C10.1459 7.19117 10.5541 6.68336 10.7955 6.27423C10.9714 5.97583 11.1411 5.67445 11.3083 5.37108C11.4929 5.03647 11.6809 4.70438 11.8747 4.37499C12.0918 4.00572 12.3015 3.63276 12.5085 3.25773C12.7218 2.8719 12.94 2.48901 13.1598 2.10681C13.1972 2.04168 13.1972 2.04168 13.2353 1.97524C13.2574 1.93695 13.2794 1.89866 13.3021 1.85921C13.3498 1.77433 13.3947 1.6891 13.4372 1.60155C13.2776 1.68924 13.1487 1.79686 13.0173 1.92138C12.9956 1.94168 12.9739 1.96198 12.9515 1.9829C12.8788 2.05092 12.8065 2.1192 12.7341 2.18749C12.6811 2.23724 12.6282 2.28699 12.5752 2.33672C12.4631 2.44211 12.351 2.54761 12.2391 2.65319C12.078 2.80504 11.9166 2.95654 11.7551 3.1079C11.7166 3.14392 11.7166 3.14392 11.6774 3.18066C11.6258 3.22905 11.5742 3.27743 11.5225 3.32582C11.3925 3.44765 11.2625 3.56953 11.1325 3.6914C11.0804 3.74023 11.0283 3.78905 10.9763 3.83788C10.9505 3.86205 10.9247 3.88622 10.8981 3.91112C9.36168 5.35155 7.82522 6.79198 6.28876 8.23241C6.26296 8.25661 6.23715 8.2808 6.21056 8.30573C6.15874 8.35431 6.10691 8.40289 6.05507 8.45145C5.92082 8.57726 5.7867 8.70319 5.65278 8.82934C5.62518 8.85529 5.59759 8.88125 5.56916 8.908C5.51703 8.95703 5.46495 9.00611 5.41291 9.05524C5.26252 9.19663 5.10917 9.33341 4.95178 9.46697C4.75123 9.65305 4.65847 9.83694 4.63593 10.1074C4.64004 10.3524 4.7453 10.5227 4.90937 10.6982C5.18318 10.8739 5.49201 10.8706 5.80896 10.8687C5.84928 10.8688 5.88959 10.8689 5.93113 10.869C6.01809 10.8691 6.10505 10.8691 6.192 10.8689C6.32979 10.8687 6.46757 10.869 6.60535 10.8696C6.9969 10.871 7.38844 10.8717 7.77999 10.8713C8.02001 10.8711 8.26 10.8718 8.50001 10.8731C8.59123 10.8734 8.68244 10.8734 8.77366 10.8729C8.90127 10.8724 9.02882 10.873 9.15643 10.8739C9.19384 10.8735 9.23125 10.873 9.26979 10.8725C9.57282 10.8767 9.76465 10.9728 9.97529 11.189C10.1033 11.3908 10.1559 11.5983 10.1169 11.8359C9.99942 12.1734 9.83156 12.4899 9.66523 12.8052C9.64103 12.8514 9.61685 12.8976 9.59269 12.9438C9.54368 13.0375 9.49457 13.1312 9.44537 13.2248C9.36085 13.3857 9.27682 13.5469 9.19284 13.7082C9.0784 13.9278 8.96364 14.1474 8.84896 14.3669C8.79145 14.477 8.73395 14.5871 8.67646 14.6973C8.65737 14.7338 8.63829 14.7704 8.61863 14.808C8.46483 15.1029 8.3118 15.3981 8.15888 15.6934C7.99131 16.0169 7.82288 16.3399 7.65256 16.662C7.55055 16.8554 7.44978 17.0494 7.34955 17.2436C7.33639 17.2692 7.32323 17.2947 7.30967 17.3209C7.24385 17.4485 7.17813 17.5761 7.11252 17.7038C7.08823 17.7509 7.06394 17.798 7.03965 17.8451C7.0182 17.8869 6.99675 17.9286 6.97465 17.9715C6.93454 18.0469 6.8921 18.1211 6.8473 18.1938C6.79004 18.2757 6.79004 18.2757 6.79657 18.3594C6.91062 18.3083 6.98707 18.2554 7.07123 18.1633C7.10387 18.1279 7.10387 18.1279 7.13717 18.0919C7.16013 18.0665 7.18308 18.0412 7.20673 18.0151C7.23084 17.9889 7.25496 17.9627 7.2798 17.9356C7.32943 17.8816 7.37896 17.8275 7.4284 17.7734C7.51243 17.6814 7.597 17.5899 7.68164 17.4985C7.77741 17.395 7.87292 17.2912 7.96845 17.1875C8.23901 16.8938 8.51051 16.6009 8.78325 16.3092C8.95762 16.1225 9.13034 15.9344 9.30268 15.7458C9.45321 15.5816 9.60567 15.4192 9.75785 15.2565C9.8979 15.1066 10.0371 14.9561 10.1755 14.8047C10.3604 14.6024 10.5472 14.402 10.7344 14.2018C10.8745 14.0519 11.0137 13.9014 11.152 13.75C11.3369 13.5477 11.5238 13.3473 11.711 13.1471C11.851 12.9973 11.9902 12.8467 12.1286 12.6953C12.2002 12.6171 12.2718 12.539 12.3435 12.4609C12.3658 12.4365 12.3882 12.4121 12.4113 12.3869C12.4837 12.3081 12.5564 12.2295 12.6291 12.1509C12.6628 12.1141 12.6628 12.1141 12.6971 12.0766C13.0881 11.6553 13.0881 11.6553 13.3534 11.6299C13.6447 11.6211 13.8412 11.6373 14.0622 11.8359C14.2338 12.0121 14.2895 12.1762 14.3088 12.4194C14.2907 12.8997 13.8608 13.2597 13.537 13.571C13.4314 13.6777 13.3337 13.7893 13.2354 13.9027C13.1211 14.033 13.002 14.1587 12.883 14.2847C12.8313 14.3396 12.7796 14.3945 12.728 14.4495C12.7026 14.4764 12.6772 14.5034 12.6511 14.5312C12.5455 14.6438 12.4407 14.7571 12.3361 14.8706C12.3172 14.8911 12.2983 14.9117 12.2788 14.9328C12.2222 14.9943 12.1656 15.0557 12.1091 15.1172C11.8385 15.411 11.567 15.7037 11.2943 15.9955C11.1199 16.1821 10.9472 16.3703 10.7748 16.5588C10.6243 16.7231 10.4719 16.8855 10.3197 17.0482C10.1796 17.198 10.0404 17.3486 9.90204 17.5C9.71715 17.7023 9.53033 17.9027 9.34311 18.1029C9.20306 18.2527 9.06386 18.4033 8.92548 18.5547C8.75874 18.737 8.59099 18.9184 8.42255 19.0991C8.39977 19.1236 8.37698 19.1481 8.35351 19.1733C7.59804 19.9828 7.59804 19.9828 7.02179 20.0131C6.45662 20.0245 6.05996 19.9124 5.6247 19.5312C5.31633 19.2137 5.15325 18.8221 5.14374 18.3813C5.14155 18.3162 5.14155 18.3162 5.13932 18.2497C5.16642 17.779 5.41346 17.3552 5.62958 16.9482C5.65983 16.8905 5.69003 16.8328 5.7202 16.775C5.79266 16.6365 5.86557 16.4982 5.93871 16.3601C5.98803 16.2668 6.03709 16.1734 6.08613 16.08C6.13082 15.9949 6.17556 15.9099 6.2205 15.8249C6.36883 15.5444 6.51429 15.2624 6.65986 14.9805C6.83597 14.6394 7.01281 14.2987 7.19238 13.9594C7.29474 13.7655 7.39574 13.571 7.49619 13.3762C7.50955 13.3503 7.52291 13.3244 7.53667 13.2977C7.60372 13.1677 7.67068 13.0376 7.73751 12.9075C7.76205 12.8598 7.78659 12.8122 7.81113 12.7646C7.83299 12.722 7.85485 12.6795 7.87736 12.6357C7.92939 12.5391 7.92939 12.5391 7.96845 12.5C7.93198 12.4998 7.89551 12.4997 7.85794 12.4996C7.51204 12.4981 7.16616 12.4958 6.82027 12.4928C6.64251 12.4913 6.46474 12.49 6.28697 12.4894C6.11498 12.4888 5.94302 12.4875 5.77104 12.4856C5.70586 12.485 5.64068 12.4847 5.57549 12.4847C4.84339 12.4839 4.22253 12.32 3.67264 11.803C3.19679 11.2969 2.97703 10.6463 2.99408 9.95696C3.05278 9.29126 3.32192 8.79796 3.78876 8.3203C3.81258 8.29543 3.8364 8.27055 3.86094 8.24493C3.99911 8.10329 4.14535 7.97345 4.2952 7.84438C4.37699 7.77139 4.45405 7.69529 4.53095 7.61718C4.65596 7.49021 4.78651 7.37315 4.92157 7.25707C5.00296 7.18459 5.0795 7.10889 5.15595 7.03124C5.28096 6.90428 5.41151 6.78721 5.54657 6.67113C5.62796 6.59865 5.7045 6.52295 5.78095 6.4453C5.90596 6.31834 6.03651 6.20127 6.17157 6.0852C6.25296 6.01272 6.3295 5.93701 6.40595 5.85937C6.53096 5.7324 6.66151 5.61533 6.79657 5.49926C6.87796 5.42678 6.9545 5.35108 7.03095 5.27343C7.15596 5.14646 7.28651 5.0294 7.42158 4.91332C7.50296 4.84084 7.5795 4.76514 7.65595 4.68749C7.78096 4.56053 7.91151 4.44346 8.04658 4.32738C8.12796 4.2549 8.2045 4.1792 8.28095 4.10155C8.40596 3.97459 8.53651 3.85752 8.67158 3.74145C8.75296 3.66897 8.8295 3.59326 8.90595 3.51562C9.03096 3.38865 9.16151 3.27158 9.29658 3.15551C9.37796 3.08303 9.4545 3.00733 9.53095 2.92968C9.65596 2.80271 9.78651 2.68565 9.92158 2.56957C10.003 2.49709 10.0795 2.42139 10.156 2.34374C10.281 2.21678 10.4115 2.09971 10.5466 1.98363C10.628 1.91115 10.7045 1.83545 10.781 1.7578C10.906 1.63084 11.0365 1.51377 11.1716 1.3977C11.253 1.32522 11.3295 1.24951 11.406 1.17187C11.531 1.04484 11.6615 0.927634 11.7969 0.811758C11.8774 0.739797 11.9514 0.663885 12.0261 0.585928C12.6207 -0.0121473 13.5208 -0.252764 14.2764 0.216513Z" fill="#C79023"/>
</g>
<defs>
<clipPath id="clip0_327_2371">
<rect width="20" height="20" fill="white"/>
</clipPath>
</defs>
</svg>
