<svg width="20" height="20" viewBox="0 0 20 20" fill="none" xmlns="http://www.w3.org/2000/svg">
<g clip-path="url(#clip0_375_5)">
<path opacity="0.971" fill-rule="evenodd" clip-rule="evenodd" d="M9.08203 -0.0195312C9.68098 -0.0195312 10.28 -0.0195312 10.8789 -0.0195312C14.8192 0.482301 17.6121 2.53959 19.2578 6.15234C19.6288 7.1023 19.8696 8.07887 19.9805 9.08203C19.9805 9.68098 19.9805 10.28 19.9805 10.8789C19.802 12.6448 19.2095 14.2594 18.2031 15.7227C17.933 16.0697 17.588 16.1673 17.168 16.0156C16.7879 15.7876 16.6512 15.4556 16.7578 15.0195C18.5339 12.4202 18.8595 9.6468 17.7344 6.69922C16.471 3.9518 14.3551 2.27862 11.3867 1.67969C7.97176 1.24198 5.21785 2.3813 3.125 5.09766C1.60285 7.34254 1.19921 9.77742 1.91406 12.4023C2.22566 13.4425 2.72045 14.38 3.39844 15.2148C3.50588 15.3971 3.54495 15.5924 3.51562 15.8008C3.37476 16.3579 3.22502 16.9112 3.06641 17.4609C3.82255 17.3706 4.57777 17.2599 5.33203 17.1289C5.42262 17.1509 5.51379 17.1705 5.60547 17.1875C8.51281 18.8186 11.4164 18.8186 14.3164 17.1875C14.8884 17.008 15.2725 17.1968 15.4688 17.7539C15.5231 18.0773 15.4254 18.3442 15.1758 18.5547C13.8344 19.3556 12.3891 19.8308 10.8398 19.9805C10.2669 19.9805 9.69402 19.9805 9.12109 19.9805C7.72137 19.8468 6.39977 19.4432 5.15625 18.7695C4.09824 18.9477 3.03705 19.117 1.97266 19.2773C1.37533 19.1771 1.12143 18.8255 1.21094 18.2227C1.41691 17.4312 1.63175 16.6435 1.85547 15.8594C0.787051 14.3664 0.162049 12.7062 -0.0195312 10.8789C-0.0195312 10.28 -0.0195312 9.68098 -0.0195312 9.08203C0.464867 5.2675 2.43102 2.5136 5.87891 0.820312C6.90984 0.380348 7.97754 0.100401 9.08203 -0.0195312Z" fill="#171717"/>
<path opacity="0.968" fill-rule="evenodd" clip-rule="evenodd" d="M7.32422 5.76124C9.09512 5.75471 10.8659 5.76124 12.6367 5.78077C13.1119 5.90432 13.3267 6.2103 13.2812 6.69874C13.2231 7.03069 13.0343 7.24553 12.7148 7.34327C10.8919 7.36932 9.06902 7.36932 7.24609 7.34327C6.89012 7.20799 6.6948 6.9476 6.66016 6.56202C6.70645 6.14503 6.92781 5.87811 7.32422 5.76124Z" fill="#171717"/>
<path opacity="0.992" fill-rule="evenodd" clip-rule="evenodd" d="M5.91797 9.19874C8.62633 9.19221 11.3346 9.19874 14.043 9.21827C14.4676 9.39682 14.6434 9.71585 14.5703 10.1753C14.4883 10.4526 14.3125 10.6414 14.043 10.7417C11.3346 10.7678 8.62629 10.7678 5.91797 10.7417C5.56234 10.6137 5.38004 10.3598 5.37109 9.97999C5.38805 9.59924 5.57031 9.33881 5.91797 9.19874Z" fill="#171717"/>
<path opacity="0.968" fill-rule="evenodd" clip-rule="evenodd" d="M7.24608 12.5972C9.06905 12.5907 10.892 12.5972 12.7148 12.6167C13.1362 12.7753 13.325 13.0813 13.2812 13.5347C13.1966 13.8797 12.9817 14.0946 12.6367 14.1792C10.8659 14.2053 9.09503 14.2053 7.32421 14.1792C6.78264 14.0142 6.58085 13.6561 6.71874 13.105C6.81413 12.8467 6.98991 12.6774 7.24608 12.5972Z" fill="#171717"/>
</g>
<defs>
<clipPath id="clip0_375_5">
<rect width="20" height="20" fill="white"/>
</clipPath>
</defs>
</svg>
