<svg width="20" height="20" viewBox="0 0 20 20" fill="none" xmlns="http://www.w3.org/2000/svg">
<g clip-path="url(#clip0_327_2314)">
<path opacity="0.971" fill-rule="evenodd" clip-rule="evenodd" d="M9.19901 -0.0195312C9.71983 -0.0195312 10.2407 -0.0195312 10.7615 -0.0195312C13.3542 0.303128 15.3659 1.55313 16.7967 3.73047C17.9967 5.76348 18.2962 7.92492 17.6951 10.2148C17.3488 11.3371 16.828 12.3658 16.1326 13.3008C15.8888 13.5932 15.6544 13.8927 15.4295 14.1992C14.3878 15.3711 13.3462 16.543 12.3045 17.7148C11.7665 18.383 11.2587 19.0731 10.781 19.7852C10.6763 19.8666 10.5656 19.9317 10.449 19.9805C10.1365 19.9805 9.82401 19.9805 9.51151 19.9805C9.39494 19.9317 9.28424 19.8666 9.17948 19.7852C8.70182 19.0731 8.19401 18.383 7.65604 17.7148C6.61436 16.543 5.57272 15.3711 4.53104 14.1992C3.80242 13.3418 3.19044 12.4043 2.6951 11.3867C1.80599 9.30277 1.74089 7.1934 2.49979 5.05859C3.48342 2.70776 5.18264 1.12573 7.59744 0.3125C8.12819 0.159828 8.66205 0.0491504 9.19901 -0.0195312ZM9.27713 1.58203C12.0022 1.43729 14.0921 2.505 15.5467 4.78516C16.5351 6.63184 16.6523 8.53289 15.8982 10.4883C15.4526 11.4714 14.8796 12.3699 14.1795 13.1836C13.268 14.1992 12.3565 15.2148 11.4451 16.2305C10.9333 16.8265 10.4451 17.4385 9.98026 18.0664C8.80522 16.5457 7.54873 15.0874 6.21073 13.6914C5.53627 12.9259 4.93733 12.1055 4.41385 11.2305C3.29551 9.08125 3.29551 6.93281 4.41385 4.78516C5.53053 2.96002 7.15162 1.89232 9.27713 1.58203Z" fill="white"/>
<path opacity="0.97" fill-rule="evenodd" clip-rule="evenodd" d="M9.39412 3.10549C11.5554 2.95877 13.1895 3.80512 14.2965 5.64455C14.9137 6.87444 15.0309 8.15045 14.648 9.47268C14.3688 9.96737 13.9717 10.0911 13.4566 9.84377C13.2715 9.71436 13.1608 9.53858 13.1246 9.31643C13.18 8.88256 13.2256 8.44635 13.2613 8.00784C13.1702 6.31522 12.3108 5.23448 10.6832 4.76565C8.92255 4.51096 7.66603 5.18155 6.91365 6.77737C6.3974 8.43163 6.83357 9.76623 8.22224 10.7813C8.90697 11.2015 9.64915 11.3577 10.4488 11.25C10.6607 11.1972 10.8756 11.1647 11.0933 11.1524C11.703 11.2157 11.9634 11.5543 11.8746 12.168C11.7954 12.3775 11.6587 12.5403 11.4644 12.6563C9.45279 13.2 7.72751 12.7248 6.28865 11.2305C4.93248 9.50311 4.72415 7.64112 5.66365 5.64455C6.50087 4.20194 7.74435 3.35559 9.39412 3.10549Z" fill="white"/>
</g>
<defs>
<clipPath id="clip0_327_2314">
<rect width="20" height="20" fill="white"/>
</clipPath>
</defs>
</svg>
